<svg width="1299" height="467" viewBox="0 0 1299 467" fill="none" xmlns="http://www.w3.org/2000/svg">
<path d="M1282.48 3.97754L1282.47 4.04492L1282.58 3.99512L1298.23 38.627L1297.31 39.0381L1282.22 5.6123L1150.35 147.448L1150.19 147.482L763.822 233.953L629.421 355.864L629.3 355.975L629.139 355.991L321.139 388.991L321.07 388.998L321.003 388.987L123.238 356.027L0.671875 466.923L0.335938 466.552L0 466.182L122.747 355.123L122.927 354.961L123.164 355.001L321.099 387.989L628.869 355.014L763.249 233.124L763.347 233.035L763.476 233.006L1149.82 146.54L1281.53 4.88184L1244.58 0.994141L1244.69 0L1282.48 3.97754Z" fill="#CCCCCC"/>
</svg>
