<svg width="24" height="24" viewBox="0 0 24 24" fill="none" xmlns="http://www.w3.org/2000/svg">
<path fill-rule="evenodd" clip-rule="evenodd" d="M12.0018 2C16.4199 2.0002 20.0018 5.58184 20.0018 10C20.0018 12.1067 19.1853 14.0215 17.8543 15.4502L19.9119 19.9775C20.2166 20.6483 19.7172 21.3919 19.0057 21.3916L18.8914 21.3848L16.6033 21.1309L15.2283 22.667C14.76 23.1901 13.926 23.0752 13.6043 22.4785L13.5535 22.3682L12.0047 18.4561L10.4832 22.3633C10.2288 23.0159 9.41036 23.2018 8.89923 22.7588L8.81232 22.6738L7.40509 21.1309L5.11115 21.3848C4.37892 21.4657 3.8279 20.7602 4.04962 20.084L4.09064 19.9775L6.14728 15.4502C4.81661 14.0215 4.00177 12.1064 4.00177 10C4.00177 5.58172 7.58349 2 12.0018 2ZM12.0018 4C8.68807 4 6.00177 6.68629 6.00177 10C6.00177 13.3137 8.68807 16 12.0018 16C15.3153 15.9998 18.0018 13.3136 18.0018 10C18.0018 6.68641 15.3153 4.0002 12.0018 4ZM11.742 7.16797C11.8433 6.94384 12.1622 6.94382 12.2635 7.16797L12.9998 8.79883L14.7469 8.98047C14.9922 9.00588 15.0929 9.30917 14.911 9.47559L13.6238 10.6514L13.992 12.3701C14.0438 12.6124 13.7836 12.8017 13.5692 12.6777L12.0027 11.7715L10.4363 12.6777C10.2219 12.8018 9.96164 12.6124 10.0135 12.3701L10.3817 10.6514L9.09455 9.47559C8.91251 9.30918 9.01325 9.00588 9.25861 8.98047L11.0057 8.79883L11.742 7.16797Z" fill="#323232"/>
</svg>
