<svg width="24" height="24" viewBox="0 0 24 24" fill="none" xmlns="http://www.w3.org/2000/svg">
<g clip-path="url(#clip0_989_45145)">
<path d="M1.3854 10.2352H22.6154C22.8404 10.2352 23.0354 10.0902 23.0954 9.8752C23.1554 9.66019 23.0704 9.43019 22.8854 9.31519L12.2254 2.5602C12.0604 2.4552 11.8504 2.4552 11.6904 2.5602L1.1154 9.3102C0.925396 9.4302 0.840396 9.66019 0.905396 9.87019C0.965396 10.0852 1.1654 10.2302 1.3854 10.2302V10.2352ZM11.9604 3.5752L20.8954 9.23519H3.0954L11.9604 3.5752Z" fill="#323232"/>
<path d="M21.6255 12.4552C21.9005 12.4552 22.1255 12.2302 22.1255 11.9552C22.1255 11.6802 21.9005 11.4552 21.6255 11.4552H2.37549C2.10049 11.4552 1.87549 11.6802 1.87549 11.9552C1.87549 12.2302 2.10049 12.4552 2.37549 12.4552H3.55049V18.4102H2.37549C2.10049 18.4102 1.87549 18.6352 1.87549 18.9102C1.87549 19.1852 2.10049 19.4102 2.37549 19.4102H21.6205C21.8955 19.4102 22.1205 19.1852 22.1205 18.9102C22.1205 18.6352 21.8955 18.4102 21.6205 18.4102H20.3655V12.4552H21.6205H21.6255ZM11.2105 12.4552H12.7055V18.4102H11.2105V12.4552ZM10.2105 18.4102H7.04049V12.4552H10.2105V18.4102ZM13.7055 12.4552H16.8755V18.4102H13.7055V12.4552ZM4.55049 12.4552H6.04549V18.4102H4.55049V12.4552ZM19.3655 18.4102H17.8705V12.4552H19.3655V18.4102Z" fill="#323232"/>
<path d="M22.6153 20.4952H1.38525C1.11025 20.4952 0.885254 20.7202 0.885254 20.9952C0.885254 21.2702 1.11025 21.4952 1.38525 21.4952H22.6153C22.8903 21.4952 23.1153 21.2702 23.1153 20.9952C23.1153 20.7202 22.8903 20.4952 22.6153 20.4952Z" fill="#323232"/>
<path d="M12.0004 8.11512C12.7239 8.11512 13.3104 7.52861 13.3104 6.80512C13.3104 6.08162 12.7239 5.49512 12.0004 5.49512C11.2769 5.49512 10.6904 6.08162 10.6904 6.80512C10.6904 7.52861 11.2769 8.11512 12.0004 8.11512Z" fill="#8DE2E0"/>
</g>
<defs>
<clipPath id="clip0_989_45145">
<rect width="24" height="24" fill="white"/>
</clipPath>
</defs>
</svg>
