<svg width="34" height="34" viewBox="0 0 34 34" fill="none" xmlns="http://www.w3.org/2000/svg">
<path d="M2.125 13.459L4.2877 9.20898H19.2946L23.375 13.216L2.125 13.459Z" fill="#8DE2E0"/>
<path fill-rule="evenodd" clip-rule="evenodd" d="M29.7341 21.9583C29.5552 23.944 27.8864 25.5 25.8542 25.5C23.8219 25.5 22.1532 23.944 21.9742 21.9583H11.3175C11.1385 23.944 9.46973 25.5 7.43751 25.5C5.40528 25.5 3.73649 23.944 3.55756 21.9583H0.708341C0.31587 21.9583 -0.0017853 21.6392 7.55203e-06 21.2468C7.55203e-06 21.1948 0.00101782 21.0988 0.00259851 20.9649C0.00522415 20.7426 0.009248 20.4951 0.0149624 20.2286C0.0313018 19.4666 0.0579254 18.7043 0.0972604 17.9911C0.126118 17.4679 0.160879 16.9904 0.20931 16.5159C0.625765 14.121 1.45218 11.8168 2.65188 9.70554L2.69719 9.6357C3.16322 9.00232 3.87116 8.59227 4.65105 8.50445L4.73031 8.5H18.684C18.8601 8.5 19.0298 8.56556 19.1602 8.68391L23.7682 12.8677C23.7752 12.8725 23.7822 12.8773 23.7891 12.8823L23.8599 12.8922C24.0937 12.9247 24.3557 12.961 24.6399 13.0001C25.4517 13.1117 26.2777 13.2234 27.0684 13.3275L27.4615 13.3791C29.1142 13.5946 30.3342 13.7397 30.9202 13.785C31.9202 13.8639 32.6191 14.2694 32.998 14.9104C33.2391 15.3184 33.309 15.731 33.2891 16.083L33.289 16.0845C33.2874 16.1093 33.287 16.1154 33.2864 16.1215L33.2858 16.1279C33.2749 16.2457 33.2555 16.4512 33.2299 16.7151C33.1872 17.1551 33.1429 17.5951 33.0993 18.0062C33.0812 18.1767 33.0635 18.3389 33.0464 18.4917C33.0095 18.8221 32.9756 19.1038 32.9453 19.3291C32.7474 20.8008 31.8954 21.9583 30.6176 21.9583H29.7341ZM29.6034 20.5417H30.6175C31.0237 20.5417 31.4264 19.9946 31.5413 19.1403C31.57 18.927 31.6027 18.655 31.6386 18.3343C31.6553 18.1842 31.6727 18.0246 31.6905 17.8567C31.7337 17.4503 31.7775 17.0143 31.8198 16.5783C31.8443 16.3261 31.863 16.1281 31.8747 16.0023C31.8799 15.9062 31.8552 15.7612 31.7784 15.6312C31.6434 15.4029 31.3647 15.2411 30.8099 15.1974C30.1907 15.1495 28.9578 15.0029 27.2783 14.7838L26.8834 14.732C26.0897 14.6275 25.2611 14.5155 24.4469 14.4035C24.1619 14.3644 23.8991 14.328 23.6645 14.2953L23.3703 14.2542C23.2792 14.2414 23.192 14.211 23.1133 14.1654H2.23738C1.97082 15.0014 1.76157 15.8514 1.61213 16.7063C1.57295 17.1065 1.5396 17.5646 1.51177 18.0691C1.47342 18.7646 1.44732 19.5117 1.4313 20.259C1.42922 20.3559 1.42737 20.4502 1.42574 20.5417H3.68832C4.15081 18.9065 5.65424 17.7083 7.4375 17.7083C9.22077 17.7083 10.7242 18.9065 11.1867 20.5417H22.105C22.5675 18.9065 24.0709 17.7083 25.8542 17.7083C27.6374 17.7083 29.1409 18.9065 29.6034 20.5417ZM4.77415 9.91667H18.4104L21.5296 12.7487H2.74945C3.06878 11.9606 3.44008 11.19 3.86111 10.4451C4.0859 10.1561 4.41343 9.96667 4.77415 9.91667ZM7.43751 24.0833C8.80671 24.0833 9.91667 22.9734 9.91667 21.6042C9.91667 20.235 8.80671 19.125 7.43751 19.125C6.0683 19.125 4.95834 20.235 4.95834 21.6042C4.95834 22.9734 6.0683 24.0833 7.43751 24.0833ZM28.3333 21.6042C28.3333 22.9734 27.2234 24.0833 25.8542 24.0833C24.485 24.0833 23.375 22.9734 23.375 21.6042C23.375 20.235 24.485 19.125 25.8542 19.125C27.2234 19.125 28.3333 20.235 28.3333 21.6042Z" fill="#323232"/>
<path d="M12.0404 17.7077H19.832C20.2232 17.7077 20.5404 17.3906 20.5404 16.9993C20.5404 16.6081 20.2232 16.291 19.832 16.291H12.0404C11.6492 16.291 11.332 16.6081 11.332 16.9993C11.332 17.3906 11.6492 17.7077 12.0404 17.7077Z" fill="#E40000"/>
</svg>
