<svg width="24" height="24" viewBox="0 0 24 24" fill="none" xmlns="http://www.w3.org/2000/svg">
<path fill-rule="evenodd" clip-rule="evenodd" d="M21.13 2.625H3.08C2.415 2.625 1.875 3.165 1.875 3.83V5.995H12.595L21.125 2.63L21.13 2.625Z" fill="#8DE2E0"/>
<path fill-rule="evenodd" clip-rule="evenodd" d="M11.9004 14.7452C12.6404 14.7452 13.2354 14.1452 13.2354 13.4102C13.2354 12.6752 12.6354 12.0752 11.9004 12.0752C11.1654 12.0752 10.5654 12.6752 10.5654 13.4102C10.5654 14.1452 11.1654 14.7452 11.9004 14.7452Z" fill="#DF0000"/>
<path d="M21.99 2.38C21.755 2.22 21.48 2.145 21.19 2.14C21.17 2.14 21.15 2.125 21.125 2.125H3.08C2.14 2.125 1.375 2.89 1.375 3.83V15.4C1.375 16.34 2.14 17.105 3.08 17.105H7.645V20.56C7.645 21.03 7.84 21.43 8.185 21.665C8.395 21.805 8.64 21.875 8.905 21.875C9.11 21.875 9.32 21.835 9.535 21.75L21.105 17.165C21.955 16.825 22.625 15.885 22.625 15.02V3.69C22.625 3.12 22.4 2.66 21.995 2.38H21.99ZM3.08 3.125H18.35L12.505 5.49H2.375V3.825C2.375 3.435 2.69 3.12 3.08 3.12V3.125ZM3.08 16.1C2.69 16.1 2.375 15.785 2.375 15.395V6.49H10.03L9.165 6.84C8.46 7.12 7.885 7.815 7.71 8.535H5.22C4.945 8.535 4.72 8.76 4.72 9.035C4.72 9.31 4.945 9.535 5.22 9.535H7.65V11.425H5.22C4.945 11.425 4.72 11.65 4.72 11.925C4.72 12.2 4.945 12.425 5.22 12.425H7.65V16.1H3.08ZM21.625 15.015C21.625 15.475 21.21 16.045 20.735 16.23L9.165 20.815C8.99 20.885 8.835 20.89 8.745 20.83C8.655 20.77 8.64 20.63 8.64 20.55V8.98C8.64 8.52 9.055 7.95 9.53 7.76L20.855 3.175C20.95 3.135 21.05 3.12 21.14 3.12C21.245 3.12 21.345 3.145 21.42 3.195C21.58 3.305 21.615 3.515 21.615 3.675V15.005L21.625 15.015Z" fill="#323232"/>
</svg>
