<svg width="16" height="16" viewBox="0 0 16 16" fill="none" xmlns="http://www.w3.org/2000/svg">
<path fill-rule="evenodd" clip-rule="evenodd" d="M7.99794 1.33398C10.9434 1.33398 13.3318 3.72162 13.3319 6.66699C13.3319 8.07145 12.7878 9.34814 11.9003 10.3008L13.2724 13.3193C13.4751 13.7664 13.1421 14.2619 12.6679 14.2617L12.5917 14.2578L11.0663 14.0879L10.1493 15.1123C9.83708 15.4606 9.28171 15.3839 9.06728 14.9863L9.0331 14.9131L7.9999 12.3047L6.98622 14.9092C6.81665 15.3443 6.27133 15.4682 5.93056 15.1729L5.87197 15.1162L4.93447 14.0879L3.40517 14.2578C2.91687 14.3119 2.54926 13.8405 2.69716 13.3896L2.72451 13.3193L4.0956 10.3008C3.20848 9.34819 2.66493 8.07125 2.66493 6.66699C2.66511 3.72176 5.05272 1.3342 7.99794 1.33398ZM7.99794 2.66699C5.7891 2.66721 3.99812 4.45814 3.99794 6.66699C3.99794 8.876 5.78899 10.6668 7.99794 10.667C10.2071 10.667 11.9979 8.87613 11.9979 6.66699C11.9978 4.458 10.207 2.66699 7.99794 2.66699ZM7.82509 4.7793C7.89259 4.62989 8.10516 4.62997 8.17275 4.7793L8.66396 5.86719L9.829 5.9873C9.99255 6.00429 10.0588 6.20647 9.9374 6.31738L9.07997 7.10156L9.32509 8.24805C9.35928 8.40933 9.18667 8.53462 9.04384 8.45215L7.99892 7.84766L6.95497 8.45215C6.81214 8.5348 6.63865 8.40934 6.67275 8.24805L6.91884 7.10156L6.06044 6.31738C5.93931 6.20641 6.00632 6.00424 6.16982 5.9873L7.33388 5.86719L7.82509 4.7793Z" fill="#323232"/>
</svg>
