<svg width="34" height="34" viewBox="0 0 34 34" fill="none" xmlns="http://www.w3.org/2000/svg">
<path fill-rule="evenodd" clip-rule="evenodd" d="M5.40967 13.7393L4.40639 11.675C4.40639 11.675 3.63862 9.27814 5.58918 8.55863C7.53973 7.83912 24.8583 1.66662 24.8583 1.66662C24.8583 1.66662 26.6481 0.83186 27.9954 3.54736C28.2064 3.97267 28.7142 5.16046 28.7142 5.16046C29.8641 4.68748 5.40967 13.7393 5.40967 13.7393Z" fill="#8DE2E0"/>
<path fill-rule="evenodd" clip-rule="evenodd" d="M5.51399 12.7184L27.7574 4.65959L27.1346 2.94511C26.8843 2.25606 26.1247 1.90121 25.4379 2.15168L5.7007 9.3496C5.01321 9.60032 4.65832 10.3628 4.90886 11.0525L5.51399 12.7184ZM28.2209 5.93565L7.37435 13.4883H26.8428C28.3762 13.4883 29.62 14.7313 29.6201 16.2647V17.9003L30.977 17.4055C31.6645 17.1548 32.0194 16.3923 31.7688 15.7026L28.2209 5.93565ZM29.6201 19.4082L31.4624 18.7364C32.8847 18.2177 33.6176 16.6429 33.1004 15.2189L28.4662 2.46143C27.9486 1.03675 26.3755 0.301825 24.9525 0.82076L5.21532 8.01868C3.79303 8.53737 3.06004 10.1122 3.57732 11.5362L4.28645 13.4883H3.35449C1.82122 13.4885 0.578287 14.7314 0.578125 16.2647V30.5157C0.578287 32.049 1.82122 33.2919 3.35449 33.2921H26.8428C28.3762 33.2921 29.62 32.0491 29.6201 30.5157V19.4082ZM1.99512 16.2647C1.99528 15.5138 2.60362 14.9055 3.35449 14.9053H26.8428C27.5938 14.9053 28.203 15.5137 28.2031 16.2647V30.5157C28.203 31.2667 27.5938 31.8751 26.8428 31.8751H3.35449C2.60362 31.8749 1.99528 31.2666 1.99512 30.5157V16.2647ZM10.834 28.334C10.834 27.9428 10.5162 27.6251 10.125 27.6251H5.38281C4.99161 27.6251 4.67383 27.9428 4.67383 28.334C4.67394 28.7251 4.99168 29.0421 5.38281 29.0421H10.125C10.5161 29.0421 10.8339 28.7251 10.834 28.334ZM7.57227 23.3751C7.57203 22.9841 7.25434 22.6671 6.86328 22.6671H5.56543C5.17437 22.6671 4.85668 22.9841 4.85645 23.3751C4.85645 23.7663 5.17423 24.084 5.56543 24.084H6.86328C7.25448 24.084 7.57227 23.7663 7.57227 23.3751ZM12.1172 23.3751C12.117 22.9842 11.8001 22.6672 11.4092 22.6671H10.125C9.73405 22.6672 9.41723 22.9841 9.41699 23.3751C9.41699 23.7662 9.7339 24.0839 10.125 24.084H11.4092C11.8002 24.0839 12.1172 23.7661 12.1172 23.3751ZM16.6621 23.3751C16.6619 22.9841 16.3451 22.6671 15.9541 22.6671H14.6553C14.2643 22.6671 13.9475 22.9841 13.9473 23.3751C13.9473 23.7662 14.2641 24.084 14.6553 24.084H15.9541C16.3452 24.084 16.6621 23.7662 16.6621 23.3751ZM21.207 23.3751C21.2068 22.9841 20.8901 22.6671 20.499 22.6671H19.2002C18.8093 22.6672 18.4924 22.9842 18.4922 23.3751C18.4922 23.7662 18.8091 24.0839 19.2002 24.084H20.499C20.8902 24.084 21.207 23.7663 21.207 23.3751ZM10.834 18.4171C10.8339 18.0259 10.5162 17.709 10.125 17.709H5.38281C4.99165 17.709 4.67389 18.0259 4.67383 18.4171C4.67383 18.8083 4.99161 19.1251 5.38281 19.1251H10.125C10.5162 19.1251 10.834 18.8083 10.834 18.4171ZM24.6936 11.133L27.2368 10.1963C27.5892 10.0665 27.7696 9.67557 27.6398 9.32316C27.51 8.97075 27.1191 8.79029 26.7667 8.9201L24.2236 9.85683C23.8712 9.98663 23.6907 10.3775 23.8205 10.7299C23.9503 11.0824 24.3412 11.2628 24.6936 11.133Z" fill="#323232"/>
<path d="M24.4824 26.0312C25.6049 26.0312 26.5154 26.9428 26.5156 28.0674C26.5156 29.1921 25.605 30.1045 24.4824 30.1045C23.775 30.1044 23.152 29.7418 22.7881 29.1924C22.424 29.7414 21.802 30.1045 21.0947 30.1045C19.9723 30.1043 19.0625 29.192 19.0625 28.0674C19.0627 26.943 19.9724 26.0315 21.0947 26.0312C21.8015 26.0312 22.4239 26.393 22.7881 26.9414C23.1521 26.3926 23.7755 26.0314 24.4824 26.0312Z" fill="#E40000"/>
</svg>
