<svg width="36" height="36" viewBox="0 0 36 36" fill="none" xmlns="http://www.w3.org/2000/svg">
<path d="M18.0006 5.25C18.7079 5.25 19.339 5.68857 19.6226 6.40409L21.726 13.0563H28.3982V13.4255L28.4348 13.06C29.14 13.1306 29.7276 13.6313 29.9272 14.3177C30.1259 14.9964 29.9112 15.7335 29.3431 16.2174L23.9412 20.314L26.0629 27.0279C26.2427 27.7381 25.9786 28.4916 25.3907 28.9212C24.7897 29.359 23.9837 29.3598 23.3697 28.9134L18.0005 24.8417L12.6184 28.9225C12.0166 29.3598 11.2107 29.359 10.6087 28.9206C10.0217 28.4916 9.75766 27.7381 9.9494 26.9859L12.0583 20.3138L6.62322 16.1899C6.0891 15.7335 5.87445 14.9964 6.07279 14.319C6.27271 13.6315 6.86007 13.1307 7.63942 13.0563H14.2751L16.396 6.35075C16.6621 5.68805 17.2937 5.25 18.0006 5.25ZM18.0006 6.75C17.9135 6.75 17.8284 6.80904 17.8072 6.85617L15.3741 14.5563L7.71427 14.5525C7.62604 14.5614 7.54412 14.6312 7.51274 14.7391C7.47897 14.8545 7.51527 14.9791 7.56372 15.0222L13.8072 19.7578L11.3916 27.396C11.3607 27.518 11.4051 27.6447 11.4928 27.7088C11.5682 27.7637 11.6613 27.7637 11.7243 27.7181L18.0006 22.9592L24.2638 27.709C24.339 27.7637 24.4322 27.7637 24.5066 27.7094C24.5953 27.6447 24.6396 27.518 24.6207 27.438L22.1923 19.7578L28.4026 15.0496C28.4851 14.9791 28.5214 14.8545 28.4872 14.7378C28.4589 14.6406 28.3883 14.574 28.3086 14.5563H20.6271L18.2111 6.90842C18.1711 6.8084 18.0871 6.75 18.0006 6.75ZM28.3982 13.4255L28.3601 13.8063V14.5563H28.3982V13.4255Z" fill="#323232"/>
<path d="M31.2019 18.8027L31.2823 18.8518L33.4251 20.3518C33.7644 20.5894 33.8469 21.057 33.6094 21.3964C33.3901 21.7096 32.9748 21.804 32.6453 21.6298L32.5649 21.5807L30.4221 20.0807C30.0828 19.8431 30.0003 19.3755 30.2378 19.0361C30.4571 18.7229 30.8724 18.6285 31.2019 18.8027ZM4.81959 18.8518C5.15892 18.6143 5.62657 18.6968 5.86411 19.0361C6.10166 19.3755 6.01914 19.8431 5.67981 20.0807L3.53706 21.5807C3.19773 21.8182 2.73008 21.7357 2.49254 21.3964C2.25499 21.057 2.33751 20.5894 2.67684 20.3518L4.81959 18.8518ZM34.6019 14.1188C35.0161 14.1188 35.3519 14.4546 35.3519 14.8688C35.3519 15.2534 35.0624 15.5705 34.6894 15.6138L34.6019 15.6188H32.4592C32.045 15.6188 31.7092 15.283 31.7092 14.8688C31.7092 14.4842 31.9987 14.1672 32.3717 14.1239L32.4592 14.1188H34.6019ZM3.64275 14.1188C4.05696 14.1188 4.39275 14.4546 4.39275 14.8688C4.39275 15.2534 4.10322 15.5705 3.73022 15.6138L3.64275 15.6188H1.5C1.08579 15.6188 0.75 15.283 0.75 14.8688C0.75 14.4842 1.03953 14.1672 1.41253 14.1239L1.5 14.1188H3.64275ZM33.6094 8.66761C33.8287 8.98084 33.7752 9.4034 33.4988 9.6534L33.4251 9.71213L31.2823 11.2121C30.943 11.4497 30.4754 11.3672 30.2378 11.0278C30.0185 10.7146 30.072 10.292 30.3484 10.042L30.4221 9.98331L32.5649 8.48331C32.9042 8.24576 33.3718 8.32828 33.6094 8.66761ZM3.45664 8.43414L3.53706 8.48331L5.67981 9.98331C6.01914 10.2209 6.10166 10.6885 5.86411 11.0278C5.64484 11.3411 5.2295 11.4355 4.90001 11.2613L4.81959 11.2121L2.67684 9.71213C2.33751 9.47459 2.25499 9.00694 2.49254 8.66761C2.71181 8.35438 3.12715 8.25998 3.45664 8.43414Z" fill="#8DE2E0"/>
</svg>
