<svg width="24" height="24" viewBox="0 0 24 24" fill="none" xmlns="http://www.w3.org/2000/svg">
<path d="M7.4501 13.72L5.3651 14.32C4.9201 14.445 4.4401 14.285 4.1601 13.92L1.6401 10.615C1.4451 10.36 1.5701 9.99498 1.8701 9.90498L2.7051 9.66498C3.0501 9.56498 3.4251 9.63498 3.7101 9.86498L7.5951 12.935C7.8851 13.165 7.7951 13.625 7.4401 13.725" fill="#DF0000"/>
<path d="M22.9299 8.79506L22.8999 8.69006C22.7749 8.23506 22.4899 7.16506 21.5099 6.61006C20.7999 6.20506 19.8799 6.16006 18.7799 6.47006L14.0949 7.79006C14.0949 7.79006 14.0749 7.77506 14.0649 7.77006L9.13486 5.88506C8.21986 5.58506 7.19986 5.73506 6.41486 6.28506C6.29486 6.37006 6.21486 6.50006 6.20486 6.65006C6.19486 6.80006 6.23986 6.94006 6.34486 7.04506C6.92486 7.64006 8.02986 8.69006 8.69486 9.31006L6.46986 9.94006C6.20486 10.0151 6.04986 10.2901 6.12486 10.5551C6.19986 10.8201 6.47486 10.9751 6.73986 10.9001L19.0549 7.43006C19.8899 7.19506 20.5499 7.21006 21.0199 7.48006C21.4799 7.74006 21.7049 8.21006 21.8349 8.59506C20.1999 9.06506 15.3249 10.4651 15.3249 10.4651C15.2099 10.4951 15.1149 10.5701 15.0499 10.6651C15.0249 10.7051 12.3249 14.7101 11.4499 16.0401C11.0999 16.5351 10.6049 16.9051 10.0349 17.1051L11.1149 12.4401C11.1549 12.2701 11.0999 12.0851 10.9699 11.9651C10.8399 11.8451 10.6599 11.8001 10.4899 11.8451L8.91986 12.2951C8.65486 12.3701 8.49986 12.6501 8.57986 12.9151C8.65486 13.1801 8.93486 13.3351 9.19986 13.2551L9.94986 13.0401L8.87986 17.6501C8.84486 17.8051 8.88486 17.9701 8.98986 18.0951C9.08486 18.2051 9.22486 18.2651 9.36486 18.2651C9.37986 18.2651 9.39986 18.2651 9.41486 18.2651C10.5599 18.1501 11.5999 17.5551 12.2699 16.6051C13.0499 15.4151 15.2699 12.1201 15.7699 11.3751C16.7999 11.0801 22.0299 9.58006 22.5899 9.41506C22.8549 9.34006 23.0049 9.06006 22.9299 8.79506ZM7.54486 6.83006C7.95486 6.70006 8.39986 6.69506 8.79986 6.83006L12.4949 8.24506L9.81485 9.00006C9.48986 8.69506 8.34486 7.62506 7.53986 6.83506L7.54486 6.83006Z" fill="#323232"/>
</svg>
