<svg width="31" height="30" viewBox="0 0 31 30" fill="none" xmlns="http://www.w3.org/2000/svg">
<path d="M15.4873 1.49023C21.2308 1.49042 25.8867 5.95827 25.8867 11.4697C25.8866 16.9811 21.2307 21.449 15.4873 21.4492C9.74376 21.4492 5.08707 16.9812 5.08691 11.4697C5.08691 5.95816 9.74366 1.49023 15.4873 1.49023ZM15.4873 2.72852C10.4563 2.72856 6.37793 6.64301 6.37793 11.4707C6.37817 16.2982 10.4565 20.2119 15.4873 20.2119C20.5182 20.2119 24.5964 16.2982 24.5967 11.4707C24.5967 6.64298 20.5183 2.72852 15.4873 2.72852Z" fill="#323232"/>
<path d="M2.68066 24.6382L8.51435 24.1206L11.3376 29.0469L14.8764 22.6484C14.4082 22.6254 13.9469 22.5784 13.495 22.5043C11.4207 22.5076 10.0192 22.3204 9.29047 21.9428C8.59148 21.5806 7.86328 20.6924 7.10586 19.2781C6.78364 18.9604 6.48557 18.6203 6.20397 18.2676L2.68066 24.6382Z" fill="#323232"/>
<path d="M7.10531 19.2773L4.93945 23.1932L9.23697 22.8118L11.3164 26.4417L13.4945 22.5035C11.0086 22.0943 8.79051 20.9396 7.10531 19.2773Z" fill="white"/>
<path d="M24.5409 18.5449C24.2523 18.8844 23.9412 19.2045 23.6138 19.5089C22.577 20.8397 21.7004 21.6768 20.984 22.0203C20.2474 22.3736 18.9607 22.5518 17.1239 22.5549C16.6646 22.617 16.1995 22.6574 15.7246 22.6669L19.2544 29.0475L22.0777 24.1212L27.9113 24.6388L24.5409 18.5449Z" fill="#323232"/>
<path d="M17.124 22.5519L19.2744 26.4399L21.3544 22.8107L25.652 23.192L23.6139 19.5059C21.8809 21.1186 19.6305 22.2126 17.124 22.5519Z" fill="white"/>
<path d="M19.9119 10.0886H16.8292L15.8759 7.27494C15.7534 6.91356 15.2201 6.91356 15.0976 7.27494L14.1451 10.0886H11.0624C10.666 10.0886 10.5009 10.5755 10.822 10.7989L13.3159 12.5379L12.3634 15.3515C12.2409 15.7129 12.6722 16.0136 12.9933 15.7903L15.4872 14.0513L17.981 15.7903C18.3021 16.0136 18.7335 15.7129 18.611 15.3515L17.6585 12.5379L20.1523 10.7989C20.4726 10.5755 20.3083 10.0886 19.9119 10.0886Z" fill="#E40000"/>
</svg>
