<svg width="32" height="32" viewBox="0 0 32 32" fill="none" xmlns="http://www.w3.org/2000/svg">
<path d="M22.2461 26.3402C22.0661 26.3402 21.8995 26.2669 21.7728 26.1469L19.9528 24.3269C19.6928 24.0669 19.6928 23.6469 19.9528 23.3869C20.2128 23.1269 20.6328 23.1269 20.8928 23.3869L22.2395 24.7335L26.1061 20.8669C26.3661 20.6069 26.7861 20.6069 27.0461 20.8669C27.3061 21.1269 27.3061 21.5469 27.0461 21.8069L22.7128 26.1402C22.5861 26.2669 22.4195 26.3335 22.2395 26.3335L22.2461 26.3402Z" fill="#DF0000"/>
<path d="M23.4979 16.2009C22.5513 16.2009 21.6513 16.3876 20.8246 16.7142L20.0246 10.4676L24.7713 5.72089C25.2713 5.22089 25.5446 4.55422 25.5446 3.84755C25.5446 3.14089 25.2713 2.47422 24.7713 1.97422C23.7379 0.940885 22.0579 0.940885 21.0246 1.97422L16.2846 6.72089L4.89127 5.26755C4.09127 5.16755 3.27793 5.44755 2.7046 6.01422L2.19127 6.52755C1.89127 6.82088 1.75793 7.24755 1.81793 7.66089C1.8846 8.07422 2.1446 8.44089 2.51793 8.63422L10.3446 12.6476L7.19794 15.7942L3.4646 15.2676C2.95127 15.1942 2.4246 15.3742 2.0646 15.7409L1.47127 16.3409C1.2446 16.5742 1.1446 16.9009 1.2046 17.2209C1.27127 17.5409 1.4846 17.8076 1.7846 17.9342L6.69794 20.0142L8.79127 24.9475C8.91793 25.2475 9.1846 25.4676 9.5046 25.5276C9.57127 25.5409 9.63127 25.5476 9.69794 25.5476C9.95127 25.5476 10.2046 25.4476 10.3913 25.2676L10.9913 24.6742C11.3579 24.3142 11.5379 23.7876 11.4646 23.2742L10.9379 19.5409L14.0579 16.3942L16.5513 21.2276C16.3179 21.9476 16.1846 22.7076 16.1846 23.5009C16.1846 27.5276 19.4646 30.8075 23.4913 30.8075C27.5179 30.8075 30.7979 27.5276 30.7979 23.5009C30.7979 19.4742 27.5179 16.1942 23.4913 16.1942L23.4979 16.2009ZM15.2513 15.7809C15.0579 15.4076 14.6979 15.1476 14.2846 15.0809C13.8713 15.0142 13.4446 15.1542 13.1513 15.4542L9.87794 18.7276C9.6646 18.9409 9.55793 19.2542 9.59793 19.5542L10.1446 23.4609C10.1579 23.5609 10.1246 23.6542 10.0579 23.7276L9.8246 23.9542L7.93127 19.5009C7.79793 19.1876 7.55127 18.9409 7.21794 18.8009L2.77793 16.9142L3.01127 16.6809C3.07793 16.6076 3.17793 16.5809 3.27793 16.5942L7.19127 17.1476C7.49127 17.1876 7.79794 17.0876 8.01127 16.8676L11.2846 13.5942C11.5846 13.2942 11.7179 12.8742 11.6579 12.4609C11.5913 12.0476 11.3313 11.6809 10.9579 11.4942L3.13127 7.48089L3.65127 6.96755C3.93127 6.68755 4.33127 6.55422 4.7246 6.60089L16.1246 8.04755C16.5313 8.10089 16.9379 7.96089 17.2246 7.67422L21.9713 2.92755C22.4713 2.42755 23.3379 2.42755 23.8313 2.92755C24.3446 3.44089 24.3446 4.27422 23.8313 4.78755L19.0846 9.53422C18.7979 9.82089 18.6579 10.2342 18.7113 10.6342L19.5713 17.3742C18.6446 17.9742 17.8646 18.7742 17.2846 19.7142L15.2646 15.7942L15.2513 15.7809ZM23.4979 29.4742C20.2046 29.4742 17.5246 26.7942 17.5246 23.5009C17.5246 20.2076 20.2046 17.5276 23.4979 17.5276C26.7913 17.5276 29.4713 20.2076 29.4713 23.5009C29.4713 26.7942 26.7913 29.4742 23.4979 29.4742Z" fill="#323232"/>
</svg>
