<svg width="29" height="29" viewBox="0 0 29 29" fill="none" xmlns="http://www.w3.org/2000/svg">
<path d="M24.166 15.709V26.584H5.43685V15.709H4.22852V26.584C4.22852 27.2513 4.7695 27.7923 5.43685 27.7923H24.166C24.8334 27.7923 25.3743 27.2513 25.3743 26.584V15.709H24.166Z" fill="#323232"/>
<path d="M12.0818 14.4993H3.62435V10.8743H25.9785V14.4993H17.5159V15.7077H25.9785C26.6459 15.7077 27.1868 15.1667 27.1868 14.4993V10.8743C27.1868 10.207 26.6459 9.66602 25.9785 9.66602H3.62435C2.957 9.66602 2.41602 10.207 2.41602 10.8743V14.4993C2.41602 15.1667 2.957 15.7077 3.62435 15.7077H12.0818V14.4993Z" fill="#323232"/>
<rect x="13.291" y="10.875" width="3.02083" height="15.7083" fill="#E40000"/>
<path d="M13.7845 8.45573C9.70727 7.28442 8.2096 6.01879 9.29149 4.65882C10.6386 3.46927 12.1363 4.7349 13.7845 8.45573Z" fill="#8DE2E0"/>
<path d="M15.7663 8.45573C19.8435 7.28442 21.3412 6.01879 20.2593 4.65882C18.9122 3.46927 17.4145 4.7349 15.7663 8.45573Z" fill="#8DE2E0"/>
<path d="M9.89783 1.20866C11.0798 1.17379 12.2075 1.70122 12.8793 2.58171C14.0939 3.89838 15.4037 7.3675 15.4037 9.66667C15.4037 10.0406 15.0673 10.3247 14.6986 10.2624C14.636 10.2518 14.5215 10.2316 14.3627 10.2018C14.0993 10.1524 13.806 10.094 13.4906 10.027C12.5883 9.83538 11.685 9.61181 10.8392 9.35905C9.25917 8.88681 8.06043 8.36911 7.35583 7.77116C6.14256 6.74035 5.71715 5.08581 6.29236 3.62175C6.86343 2.16857 8.29914 1.2112 9.89783 1.20866ZM9.9281 2.41667H9.90857C8.79785 2.41553 7.80695 3.07389 7.41833 4.06218C7.03295 5.04284 7.31751 6.1512 8.13904 6.84928C8.67974 7.30815 9.7575 7.77366 11.1869 8.20085C11.9978 8.4432 12.8699 8.65907 13.7426 8.8444C13.8831 8.87426 14.0192 8.90213 14.1498 8.92839C13.9203 6.95705 12.8766 4.35858 11.9564 3.35807C11.4859 2.74439 10.7271 2.39095 9.9281 2.41667Z" fill="#323232"/>
<path d="M19.6904 1.20893C21.2933 1.20729 22.7343 2.16468 23.3066 3.62104C23.882 5.08504 23.4565 6.73935 22.2432 7.77045C21.5388 8.36823 20.34 8.88706 18.7598 9.35932C17.914 9.61207 17.0107 9.83468 16.1084 10.0263C15.793 10.0933 15.4997 10.1517 15.2363 10.2011C15.0775 10.2309 14.963 10.2511 14.9004 10.2617C14.5318 10.3239 14.1953 10.0398 14.1953 9.66596C14.1954 7.37851 15.4918 3.93316 16.7012 2.60151C17.4113 1.68999 18.5341 1.17149 19.6904 1.20893ZM19.6719 2.41596C18.8729 2.39024 18.114 2.74364 17.6436 3.35737L17.6074 3.39936C16.7187 4.36273 15.6793 6.95698 15.4502 8.92768C15.5808 8.90142 15.7168 8.87356 15.8574 8.84369C16.7301 8.65837 17.6022 8.44248 18.4131 8.20014C19.8423 7.773 20.9194 7.30719 21.46 6.84858C22.2819 6.15029 22.568 5.04221 22.1826 4.06147C21.7941 3.07306 20.8027 2.4152 19.6719 2.41596Z" fill="#323232"/>
</svg>
