<svg width="34" height="34" viewBox="0 0 34 34" fill="none" xmlns="http://www.w3.org/2000/svg">
<path fill-rule="evenodd" clip-rule="evenodd" d="M23.0871 1.41825C24.9663 1.41633 26.6558 2.53914 27.3268 4.24659C28.0014 5.9632 27.502 7.90318 26.0791 9.11204C25.2532 9.8129 23.848 10.4204 21.9953 10.9741C21.5737 11.1001 21.14 11.2198 20.6994 11.333H30.457C31.2394 11.333 31.8737 11.9673 31.8737 12.7497V16.9997C31.8737 17.7821 31.2394 18.4163 30.457 18.4163H29.7487V31.1663C29.7487 31.9488 29.1144 32.583 28.332 32.583H6.3737C5.59129 32.583 4.95703 31.9488 4.95703 31.1663V18.4163H4.2487C3.46629 18.4163 2.83203 17.7821 2.83203 16.9997V12.7497C2.83203 11.9673 3.46629 11.333 4.2487 11.333H14.0078C13.5668 11.2197 13.1329 11.1 12.711 10.9739C10.8583 10.4202 9.45215 9.8127 8.626 9.1116C7.20364 7.90297 6.70438 5.96285 7.37893 4.24637C8.04857 2.54253 9.73295 1.42099 11.6074 1.41824C12.9931 1.3775 14.3141 1.99543 15.1016 3.02762C15.9191 3.9137 16.7735 5.63151 17.353 7.44408C17.9272 5.64751 18.7714 3.94402 19.5824 3.05124C20.415 1.98246 21.7313 1.37422 23.0871 1.41825ZM18.5931 10.3708C19.6163 10.1535 20.6389 9.90091 21.5897 9.61676C23.2655 9.11592 24.5285 8.56989 25.1622 8.03215C26.1258 7.21347 26.4602 5.91458 26.0083 4.76475C25.5528 3.60575 24.391 2.83359 23.065 2.83455C22.1282 2.80439 21.2385 3.2191 20.6869 3.93868L20.6453 3.98809C19.6033 5.11742 18.3838 8.15893 18.1153 10.4696C18.2685 10.4388 18.4281 10.4058 18.5931 10.3708ZM11.6407 2.83426L11.6172 2.83523C10.3148 2.83392 9.15276 3.60594 8.69729 4.76492C8.24565 5.91453 8.58002 7.21314 9.543 8.03152C10.1769 8.56951 11.4404 9.11565 13.1162 9.61648C14.0669 9.90059 15.0893 10.1531 16.1123 10.3704C16.2773 10.4054 16.4376 10.4382 16.5908 10.469C16.3217 8.15784 15.0974 5.1117 14.0186 3.93875C13.467 3.21922 12.5774 2.8041 11.6407 2.83426ZM4.2487 16.9997H14.1644V18.4163H6.3737V31.1663H28.332V18.4163H20.5353V16.9997H30.457V12.7497H4.2487V16.9997Z" fill="#323232"/>
<rect x="15.582" y="12.75" width="3.54167" height="18.4167" fill="#E40000"/>
<path fill-rule="evenodd" clip-rule="evenodd" d="M16.1631 9.91493C16.1631 9.91493 8.99283 7.85505 10.8955 5.46339C13.2645 3.37141 16.1631 9.91493 16.1631 9.91493ZM18.4871 9.91493C18.4871 9.91493 25.6574 7.85505 23.7548 5.46339C21.3857 3.37141 18.4871 9.91493 18.4871 9.91493Z" fill="#8DE2E0"/>
</svg>
