<svg width="24" height="24" viewBox="0 0 24 24" fill="none" xmlns="http://www.w3.org/2000/svg">
<path d="M19.895 10.3201C19.895 10.3201 18.765 12.6701 21.915 12.2651C21.915 12.2651 21.7449 11.5851 21.0849 10.9801C20.4249 10.3751 19.8899 10.3201 19.8899 10.3201H19.895Z" fill="#8DE2E0"/>
<path d="M2.55518 9.75494L3.48518 7.98494C3.78018 7.41994 4.36518 7.06494 5.00018 7.06494H12.0302C12.7902 7.06494 13.5202 7.37494 14.0402 7.92494L15.8002 9.75494" fill="#8DE2E0"/>
<path d="M21.8651 11.0949C21.3001 10.3449 20.4751 9.86494 19.5451 9.73994L16.0351 9.27494L14.4051 7.57994C13.7901 6.93494 12.9251 6.56494 12.0301 6.56494H5.00006C4.17006 6.56494 3.42006 7.01994 3.04006 7.74994L2.11006 9.51994C2.11006 9.51994 2.10506 9.54494 2.10006 9.55494C2.09006 9.57494 2.08006 9.58994 2.07506 9.60994C1.65006 11.0299 1.43506 12.4999 1.43506 13.9849V14.7749C1.43506 15.0499 1.66006 15.2749 1.93506 15.2749H3.60006C3.83506 16.5049 4.91506 17.4349 6.21006 17.4349C7.50506 17.4349 8.58506 16.5049 8.82006 15.2749H14.8851C15.1201 16.5049 16.2001 17.4349 17.4951 17.4349C18.7901 17.4349 19.8701 16.5049 20.1051 15.2749H21.8601C22.1101 15.2749 22.3201 15.0949 22.3551 14.8499L22.5251 13.6999C22.6651 12.7699 22.4301 11.8449 21.8651 11.0949ZM3.93006 8.20994C4.14006 7.80994 4.55006 7.55994 5.00006 7.55994H12.0301C12.6551 7.55994 13.2551 7.81494 13.6801 8.26494L14.6251 9.24994H3.38506L3.93006 8.20994ZM6.21506 16.4349C5.30006 16.4349 4.55506 15.6899 4.55506 14.7749C4.55506 13.8599 5.30006 13.1149 6.21506 13.1149C7.13006 13.1149 7.87506 13.8599 7.87506 14.7749C7.87506 15.6899 7.13006 16.4349 6.21506 16.4349ZM17.4951 16.4349C16.5801 16.4349 15.8401 15.6949 15.8351 14.7799C15.8351 14.7799 15.8351 14.7799 15.8351 14.7749C15.8351 14.7699 15.8351 14.7749 15.8351 14.7699C15.8351 13.8599 16.5801 13.1149 17.4951 13.1149C18.4101 13.1149 19.1551 13.8599 19.1551 14.7749C19.1551 15.6899 18.4101 16.4349 17.4951 16.4349ZM21.5351 13.5499L21.4301 14.2749H20.1051C19.8701 13.0449 18.7901 12.1149 17.4951 12.1149C16.2001 12.1149 15.1201 13.0449 14.8851 14.2749H8.82006C8.58506 13.0449 7.50506 12.1149 6.21006 12.1149C4.91506 12.1149 3.83506 13.0449 3.60006 14.2749H2.43506V13.9849C2.43506 12.7199 2.60006 11.4649 2.93006 10.2499H15.8001L19.4051 10.7249C20.0701 10.8149 20.6551 11.1549 21.0551 11.6899C21.4551 12.2249 21.6251 12.8849 21.5251 13.5449L21.5351 13.5499Z" fill="#323232"/>
<path d="M6.21512 15.7449C6.75083 15.7449 7.18512 15.3106 7.18512 14.7749C7.18512 14.2392 6.75083 13.8049 6.21512 13.8049C5.6794 13.8049 5.24512 14.2392 5.24512 14.7749C5.24512 15.3106 5.6794 15.7449 6.21512 15.7449Z" fill="#DF0000"/>
<path d="M17.4949 15.7449C18.0306 15.7449 18.4649 15.3106 18.4649 14.7749C18.4649 14.2392 18.0306 13.8049 17.4949 13.8049C16.9592 13.8049 16.5249 14.2392 16.5249 14.7749C16.5249 15.3106 16.9592 15.7449 17.4949 15.7449Z" fill="#DF0000"/>
</svg>
