<svg width="24" height="24" viewBox="0 0 24 24" fill="none" xmlns="http://www.w3.org/2000/svg">
<g clip-path="url(#clip0_989_44159)">
<path d="M4.66523 14.955C6.48777 14.955 7.96523 13.4775 7.96523 11.655C7.96523 9.83244 6.48777 8.35498 4.66523 8.35498C2.84269 8.35498 1.36523 9.83244 1.36523 11.655C1.36523 13.4775 2.84269 14.955 4.66523 14.955Z" fill="#DF0000"/>
<path d="M3.20996 22.5501C5.04996 20.6801 7.88496 18.8201 10.505 18.8201C14.925 18.8201 17.8 22.5501 17.8 22.5501H3.20996Z" fill="#8DE2E0"/>
<path d="M23.105 7.7951C22.32 5.0701 19.635 4.3801 18.36 4.2051C18.575 3.5801 18.915 2.5901 19.155 1.8251C19.21 1.6551 19.17 1.4701 19.05 1.3351C18.93 1.2051 18.75 1.1451 18.575 1.1851C18.5 1.2001 16.805 1.5901 15.385 3.0651C13.715 2.0901 11.52 2.2401 11.42 2.2451C11.225 2.2601 11.06 2.3851 10.99 2.5651C10.92 2.7451 10.965 2.9501 11.1 3.0901L12.78 4.8201C10.52 5.2901 9.42003 6.8651 9.36503 6.9451C9.26003 7.1001 9.25003 7.2951 9.33503 7.4601C9.42003 7.6251 9.59003 7.7251 9.77503 7.7251C10.835 7.7251 11.785 7.7401 12.435 7.7551C11.085 10.0701 11.39 12.3001 11.405 12.4051C11.435 12.6001 11.57 12.7601 11.76 12.8151C11.805 12.8301 11.855 12.8351 11.9 12.8351C12.045 12.8351 12.185 12.7751 12.28 12.6601L14.715 9.8151C14.895 9.6051 14.87 9.2901 14.66 9.1101C14.45 8.9301 14.135 8.9551 13.955 9.1651L12.415 10.9651C12.52 10.0551 12.845 8.7901 13.75 7.5801C13.86 7.4301 13.88 7.2301 13.8 7.0651C13.72 6.8951 13.55 6.7851 13.365 6.7801C13.35 6.7801 12.355 6.7451 10.955 6.7351C11.555 6.2651 12.51 5.7501 13.85 5.7001C14.045 5.6951 14.22 5.5701 14.295 5.3851C14.37 5.2001 14.33 4.9951 14.19 4.8501L12.67 3.2801C13.44 3.3601 14.43 3.5751 15.17 4.1201C15.385 4.2751 15.68 4.2401 15.85 4.0401C16.51 3.2551 17.295 2.7751 17.885 2.4951C17.555 3.4851 17.21 4.4651 17.205 4.4801C17.15 4.6301 17.175 4.8001 17.265 4.9301C17.355 5.0601 17.505 5.1401 17.665 5.1451C17.795 5.1451 20.385 5.2201 21.64 7.0101C20.59 6.6401 19.07 6.2151 18 6.3701C17.815 6.3951 17.66 6.5251 17.6 6.7051C17.54 6.8851 17.585 7.0801 17.72 7.2151C17.735 7.2301 19.07 8.6001 19.515 10.3151L15.96 6.8701C15.96 6.8701 15.94 6.8601 15.935 6.8551C15.905 6.8301 15.875 6.8101 15.84 6.7951C15.815 6.7851 15.795 6.7701 15.77 6.7601C15.735 6.7501 15.7 6.7451 15.665 6.7401C15.635 6.7401 15.605 6.7351 15.575 6.7401C15.56 6.7401 15.55 6.7401 15.535 6.7401C15.515 6.7401 15.495 6.7551 15.475 6.7651C15.445 6.7751 15.42 6.7801 15.39 6.7951C15.355 6.8101 15.325 6.8351 15.3 6.8601C15.285 6.8701 15.27 6.8751 15.255 6.8901C15.25 6.9001 15.245 6.9101 15.24 6.9151C15.215 6.9451 15.2 6.9751 15.18 7.0101C15.165 7.0351 15.155 7.0601 15.145 7.0851C15.135 7.1151 15.13 7.1451 15.13 7.1801C15.13 7.2151 15.125 7.2451 15.13 7.2801C15.13 7.2901 15.13 7.3001 15.13 7.3151C15.875 12.0551 15.205 15.7901 13.09 18.7301C12.305 18.4851 11.45 18.3301 10.52 18.3301C7.69503 18.3301 4.71503 20.3351 2.87003 22.2101C2.73003 22.3551 2.68503 22.5701 2.76503 22.7551C2.84503 22.9401 3.02503 23.0601 3.22503 23.0601H17.815C18.005 23.0601 18.18 22.9501 18.265 22.7801C18.35 22.6101 18.33 22.4051 18.21 22.2551C18.12 22.1401 16.595 20.2051 14.06 19.0951C16 16.2801 16.735 12.8301 16.3 8.5951L19.81 11.9951C19.95 12.1301 20.155 12.1751 20.34 12.1001C20.52 12.0301 20.645 11.8601 20.66 11.6651C20.77 9.9251 19.865 8.3351 19.175 7.3951C20.375 7.5701 21.845 8.1301 22.44 8.3951C22.615 8.4751 22.825 8.4451 22.97 8.3151C23.115 8.1851 23.175 7.9851 23.12 7.8001L23.105 7.7951ZM4.47503 22.0501C6.15003 20.6151 8.39503 19.3201 10.5 19.3201C13.355 19.3201 15.56 21.0051 16.645 22.0501H4.47503Z" fill="#323232"/>
</g>
<defs>
<clipPath id="clip0_989_44159">
<rect width="24" height="24" fill="white"/>
</clipPath>
</defs>
</svg>
