<svg width="24" height="24" viewBox="0 0 24 24" fill="none" xmlns="http://www.w3.org/2000/svg">
<g clip-path="url(#clip0_989_45004)">
<path fill-rule="evenodd" clip-rule="evenodd" d="M10.4151 14.2798H13.5901C14.0301 14.2798 14.3851 14.6348 14.3851 15.0748V19.8398C14.3851 20.2798 14.0301 20.6348 13.5901 20.6348H10.4151C9.97512 20.6348 9.62012 20.2798 9.62012 19.8398V15.0748C9.62012 14.6348 9.97512 14.2798 10.4151 14.2798Z" fill="#DF0000"/>
<path d="M19.7452 8.05512V2.99512H16.5752V5.61512" fill="#8DE2E0"/>
<path d="M22.8751 10.0002L20.2451 7.89516V2.99516C20.2451 2.72016 20.0201 2.49516 19.7451 2.49516H16.5751C16.3001 2.49516 16.0751 2.72016 16.0751 2.99516V4.56016L12.3101 1.55016C12.1251 1.40516 11.8701 1.40516 11.6851 1.55016L1.12509 10.0002C0.910085 10.1702 0.875085 10.4852 1.04509 10.7052C1.22008 10.9202 1.53009 10.9552 1.75008 10.7852L3.91508 9.05516V22.0402C3.91508 22.3152 4.14008 22.5402 4.41508 22.5402H19.7501C20.0251 22.5402 20.2501 22.3152 20.2501 22.0402V9.18516L22.2551 10.7902C22.3451 10.8652 22.4601 10.9002 22.5651 10.9002C22.7101 10.9002 22.8551 10.8352 22.9551 10.7102C23.1251 10.4952 23.0901 10.1802 22.8751 10.0052V10.0002ZM17.0751 3.49516H19.2451V7.09516L17.0751 5.36016V3.49516ZM19.2451 21.5352H4.91508V8.25016L12.0001 2.58016L16.2051 5.94516C16.2401 5.98016 16.2801 6.01016 16.3201 6.03516L19.2451 8.37516V21.5302V21.5352Z" fill="#323232"/>
</g>
<defs>
<clipPath id="clip0_989_45004">
<rect width="24" height="24" fill="white"/>
</clipPath>
</defs>
</svg>
