<svg width="29" height="25" viewBox="0 0 29 25" fill="none" xmlns="http://www.w3.org/2000/svg">
<path d="M4.34863 22.4111C4.34889 21.5829 5.59154 21.5829 5.5918 22.4111V24.2236C5.5918 25.0522 4.34863 25.0522 4.34863 24.2236V22.4111ZM22.9932 22.4111C22.9934 21.5829 24.2351 21.5829 24.2354 22.4111V24.2236C24.2354 25.0522 22.9932 25.0522 22.9932 24.2236V22.4111ZM9.95703 4.28711C9.95737 3.45898 11.1989 3.45898 11.1992 4.28711V6.84277C11.1992 7.67135 9.95703 7.67135 9.95703 6.84277V4.28711Z" fill="#323232"/>
<path d="M12.4319 17.3542H8.67179C8.34338 17.3542 8.07715 17.0879 8.07715 16.7595V11.1193C8.07715 10.9616 8.1398 10.8103 8.25132 10.6988L10.1314 8.8187C10.3636 8.58647 10.7401 8.58647 10.9723 8.8187L12.8524 10.6988C12.9639 10.8103 13.0266 10.9616 13.0266 11.1193V16.7595C13.0266 17.0879 12.7603 17.3542 12.4319 17.3542Z" fill="#E40000"/>
<path d="M26.127 3.74414C27.4986 3.74578 28.6094 4.85879 28.6094 6.23047V20.5137C28.6094 21.8865 27.4968 23 26.124 23H2.48535C1.1127 22.9998 0 21.8864 0 20.5137V6.20215C0.000207922 4.82961 1.11283 3.71699 2.48535 3.7168L26.127 3.74414ZM2.4873 4.95801C1.79948 4.95801 1.24323 5.51481 1.24316 6.20117V20.5127C1.24316 21.1991 1.79903 21.7558 2.48535 21.7559H26.124C26.8103 21.7557 27.3662 21.199 27.3662 20.5127V6.22949C27.3662 5.54364 26.8108 4.98713 26.125 4.98633L2.4873 4.95801Z" fill="#323232"/>
<path d="M4.9668 3.96484C5.30978 3.96496 5.58769 4.22984 5.58789 4.55664V22.0156C5.58789 22.3426 5.3099 22.6073 4.9668 22.6074C4.62359 22.6074 4.34473 22.3427 4.34473 22.0156V4.55664C4.34492 4.22977 4.62371 3.96484 4.9668 3.96484ZM23.627 3.96484C23.9699 3.96502 24.2479 4.22988 24.248 4.55664V22.0156C24.248 22.3425 23.97 22.6073 23.627 22.6074C23.2837 22.6074 23.0049 22.3427 23.0049 22.0156V4.55664C23.0051 4.22977 23.2839 3.96484 23.627 3.96484ZM16.6318 0C17.7443 4.46437e-05 18.6504 0.891655 18.6504 1.99609V4.28613C18.6503 4.62925 18.3715 4.90723 18.0283 4.90723C17.6854 4.90698 17.4073 4.6291 17.4072 4.28613V1.99609C17.4072 1.5827 17.0624 1.24321 16.6318 1.24316H11.9746C11.5442 1.24337 11.1992 1.5828 11.1992 1.99609V4.28613C11.1991 4.6292 10.9212 4.90715 10.5781 4.90723C10.235 4.90723 9.95714 4.62925 9.95703 4.28613V1.99609C9.95703 0.891759 10.8623 0.000211878 11.9746 0H16.6318Z" fill="#323232"/>
</svg>
