<svg width="24" height="24" viewBox="0 0 24 24" fill="none" xmlns="http://www.w3.org/2000/svg">
<g clip-path="url(#clip0_989_43834)">
<path d="M1.35498 15.5549H22.645V16.0499C22.645 16.9099 21.95 17.6049 21.09 17.6049H2.90998C2.04998 17.6049 1.35498 16.9099 1.35498 16.0499V15.5549Z" fill="#8DE2E0"/>
<path d="M17.8351 8.05989C17.8351 8.14989 17.7901 8.28989 17.7901 8.37989V9.89489C17.7901 10.0799 17.8801 10.3099 17.8801 10.3099C18.1551 10.9499 18.0201 10.9999 18.0201 10.9999C18.0201 10.9999 17.8801 11.1399 17.4701 10.9549C17.3301 10.9099 17.1951 10.8649 17.0101 10.8649H13.7501C13.5651 10.8649 13.3351 10.9549 13.3351 10.9549C12.6951 11.2299 12.6451 11.0949 12.6451 11.0949C12.6451 11.0949 12.5051 10.9099 12.7351 10.4549C12.7801 10.3649 12.8251 10.2249 12.8251 10.1349V8.15989C12.8251 7.97489 12.7351 7.74489 12.7351 7.74489C12.4601 7.10489 12.5951 7.05489 12.5951 7.05489C12.5951 7.05489 12.7801 6.91489 13.2851 7.14489C13.3301 7.18989 13.3751 7.18989 13.4251 7.18989H17.0501C17.0501 7.18989 17.2351 7.18989 17.3701 7.14489C17.5051 7.09989 17.7851 7.00489 17.9201 7.05489C18.0551 7.10489 18.0601 7.23989 18.0601 7.23989C18.0601 7.23989 17.8301 7.87989 17.8301 8.06489L17.8351 8.05989Z" fill="#DF0000"/>
<path d="M11.1149 8.05989C11.1149 8.14989 11.0699 8.28989 11.0699 8.37989V9.89489C11.0699 10.0799 11.1599 10.3099 11.1599 10.3099C11.4349 10.9499 11.2999 10.9999 11.2999 10.9999C11.2999 10.9999 11.1599 11.1399 10.7499 10.9549C10.6099 10.9099 10.4749 10.8649 10.2899 10.8649H7.02993C6.84493 10.8649 6.61493 10.9549 6.61493 10.9549C5.97493 11.2299 5.92493 11.0949 5.92493 11.0949C5.92493 11.0949 5.78493 10.9099 6.01493 10.4549C6.05993 10.3649 6.10493 10.2249 6.10493 10.1349V8.15989C6.10493 7.97489 6.01493 7.74489 6.01493 7.74489C5.73993 7.10489 5.87493 7.05489 5.87493 7.05489C5.87493 7.05489 6.05993 6.91489 6.56493 7.14489C6.60993 7.18989 6.65493 7.18989 6.70493 7.18989H10.3299C10.3299 7.18989 10.5149 7.18989 10.6499 7.14489C10.7899 7.09989 11.0649 7.00489 11.1999 7.05489C11.3399 7.09989 11.3399 7.23989 11.3399 7.23989C11.3399 7.23989 11.1549 7.87989 11.1099 8.06489L11.1149 8.05989Z" fill="#DF0000"/>
<path d="M23.045 13.2699L21.445 9.56991V6.09491C21.445 4.93991 20.54 4.03491 19.39 4.03491H4.60998C3.45498 4.03491 2.55498 4.93991 2.55498 6.09491V9.56991L0.95998 13.2649C0.89498 13.3949 0.85498 13.5449 0.85498 13.7099V16.0499C0.85498 17.2049 1.75998 18.1099 2.91998 18.1099H2.96998V19.4749C2.96998 19.7499 3.19498 19.9749 3.46998 19.9749C3.74498 19.9749 3.96998 19.7499 3.96998 19.4749V18.1099H20.04V19.4749C20.04 19.7499 20.265 19.9749 20.54 19.9749C20.815 19.9749 21.04 19.7499 21.04 19.4749V18.1099H21.125C21.68 18.1099 22.22 17.8749 22.605 17.4699C22.98 17.0749 23.17 16.5599 23.145 16.0499V13.7099C23.145 13.5499 23.11 13.3999 23.045 13.2699ZM4.60998 5.02991H19.39C19.98 5.02991 20.445 5.49491 20.445 6.08991V9.16991H19.28C19.005 9.16991 18.78 9.39491 18.78 9.66991C18.78 9.94491 19.005 10.1699 19.28 10.1699H20.615L21.73 12.7499H2.26998L3.38498 10.1699H4.71998C4.99498 10.1699 5.21998 9.94491 5.21998 9.66991C5.21998 9.39491 4.99498 9.16991 4.71998 9.16991H3.55498V6.08991C3.55498 5.49491 4.01998 5.02991 4.60998 5.02991ZM21.88 16.7799C21.685 16.9899 21.41 17.1049 21.125 17.1049H2.91498C2.31998 17.1049 1.84998 16.6399 1.84998 16.0449V13.7449H22.14V16.0699C22.155 16.3299 22.06 16.5799 21.875 16.7749L21.88 16.7799Z" fill="#323232"/>
</g>
<defs>
<clipPath id="clip0_989_43834">
<rect width="24" height="24" fill="white"/>
</clipPath>
</defs>
</svg>
