<svg width="48" height="48" viewBox="0 0 48 48" fill="none" xmlns="http://www.w3.org/2000/svg">
<path fill-rule="evenodd" clip-rule="evenodd" d="M16.2235 10.666H31.7789C34.8478 10.666 37.3344 13.1538 37.3344 16.2215V31.7769C37.3344 34.8447 34.8478 37.3325 31.7789 37.3325H16.2235C13.1557 37.3325 10.668 34.8447 10.668 31.7769V16.2215C10.668 13.1538 13.1557 10.666 16.2235 10.666ZM16.2235 31.7769H19.5568V19.5548H16.2235V31.7769ZM17.8901 18.146C16.8168 18.146 15.9457 17.2682 15.9457 16.186C15.9457 15.1038 16.8168 14.226 17.8901 14.226C18.9635 14.226 19.8346 15.1038 19.8346 16.186C19.8346 17.2682 18.9646 18.146 17.8901 18.146ZM29.5567 31.7769H32.89V24.267C32.89 18.4304 26.6634 18.6426 25.1123 21.5159V19.5548H21.779V31.7769H25.1123V25.5503C25.1123 22.0915 29.5567 21.8081 29.5567 25.5503V31.7769Z" fill="#323232"/>
</svg>
