<svg width="48" height="48" viewBox="0 0 48 48" fill="none" xmlns="http://www.w3.org/2000/svg">
<path d="M23.9971 10.7207C27.6167 10.7207 28.0706 10.7359 29.4922 10.8008C30.9108 10.8655 31.8797 11.0905 32.7275 11.4199C33.604 11.7605 34.3479 12.217 35.0889 12.958C35.8297 13.6989 36.2854 14.4421 36.626 15.3184C36.9555 16.1662 37.1804 17.1351 37.2451 18.5537C37.31 19.9754 37.3262 20.4299 37.3262 24.0498C37.3262 27.6694 37.31 28.1234 37.2451 29.5449C37.1804 30.9635 36.9555 31.9325 36.626 32.7803C36.2853 33.6568 35.8299 34.4006 35.0889 35.1416C34.3479 35.8827 33.604 36.338 32.7275 36.6787C31.8797 37.0081 30.9108 37.2341 29.4922 37.2988C28.0706 37.3636 27.6167 37.3789 23.9971 37.3789C20.3772 37.3789 19.9226 37.3636 18.501 37.2988C17.0824 37.2341 16.1134 37.0082 15.2656 36.6787C14.3894 36.3381 13.6461 35.8824 12.9053 35.1416C12.1642 34.4006 11.7078 33.6567 11.3672 32.7803C11.0377 31.9325 10.8128 30.9634 10.748 29.5449C10.6832 28.1234 10.668 27.6694 10.668 24.0498C10.668 20.4298 10.6832 19.9754 10.748 18.5537C10.8128 17.1351 11.0377 16.1662 11.3672 15.3184C11.7078 14.4419 12.1642 13.6991 12.9053 12.958C13.6463 12.217 14.3892 11.7605 15.2656 11.4199C16.1134 11.0904 17.0824 10.8655 18.501 10.8008C19.9226 10.7359 20.3772 10.7207 23.9971 10.7207ZM23.9971 13.1221C20.4381 13.1221 20.0159 13.1361 18.6104 13.2002C17.311 13.2595 16.6054 13.4767 16.1357 13.6592C15.5137 13.901 15.0699 14.1898 14.6035 14.6562C14.1371 15.1226 13.8473 15.5663 13.6055 16.1885C13.423 16.6581 13.2068 17.3639 13.1475 18.6631C13.0833 20.0686 13.0693 20.4908 13.0693 24.0498C13.0693 27.6085 13.0833 28.0301 13.1475 29.4355C13.2068 30.7346 13.423 31.4405 13.6055 31.9102C13.8473 32.5323 14.1371 32.977 14.6035 33.4434C15.0698 33.9096 15.5138 34.1987 16.1357 34.4404C16.6054 34.6229 17.3112 34.8401 18.6104 34.8994C20.0156 34.9635 20.4378 34.9766 23.9971 34.9766C27.556 34.9766 27.9776 34.9635 29.3828 34.8994C30.682 34.8402 31.3877 34.6229 31.8574 34.4404C32.4796 34.1986 32.9242 33.9098 33.3906 33.4434C33.857 32.977 34.1458 32.5323 34.3877 31.9102C34.5701 31.4405 34.7874 30.7348 34.8467 29.4355C34.9108 28.0302 34.9238 27.6085 34.9238 24.0498C34.9238 20.4908 34.9108 20.0686 34.8467 18.6631C34.7874 17.3638 34.5702 16.6581 34.3877 16.1885C34.1459 15.5665 33.8568 15.1226 33.3906 14.6562C32.9242 14.1899 32.4796 13.901 31.8574 13.6592C31.3878 13.4767 30.6822 13.2595 29.3828 13.2002C27.9774 13.1361 27.5558 13.1221 23.9971 13.1221ZM23.9971 17.2051C27.7771 17.2053 30.8408 20.2697 30.8408 24.0498C30.8406 27.8298 27.777 30.8943 23.9971 30.8945C20.217 30.8945 17.1525 27.8299 17.1523 24.0498C17.1523 20.2696 20.2169 17.2051 23.9971 17.2051ZM23.9971 19.6064C21.5433 19.6064 19.5537 21.596 19.5537 24.0498C19.5539 26.5034 21.5434 28.4922 23.9971 28.4922C26.4506 28.492 28.4393 26.5033 28.4395 24.0498C28.4395 21.5961 26.4507 19.6066 23.9971 19.6064ZM31.1113 15.335C31.9947 15.335 32.7109 16.0512 32.7109 16.9346C32.7109 17.8179 31.9947 18.5342 31.1113 18.5342C30.2282 18.5339 29.5128 17.8177 29.5127 16.9346C29.5127 16.0513 30.2282 15.3352 31.1113 15.335Z" fill="#323232"/>
</svg>
