<svg width="24" height="24" viewBox="0 0 24 24" fill="none" xmlns="http://www.w3.org/2000/svg">
<path d="M17.7149 18.895H1.50988L1.37988 21.36H17.8449L17.7149 18.895Z" fill="#8DE2E0"/>
<path d="M18.6848 6.39502C18.8198 6.39502 18.9498 6.45002 19.0448 6.54502L22.8498 10.34C23.0498 10.54 23.0498 10.865 22.8498 11.06L20.8098 13.1C20.6098 13.3 20.2898 13.3 20.0898 13.1L16.2848 9.30502C16.1898 9.21002 16.1348 9.08002 16.1348 8.94502V6.90502C16.1348 6.62502 16.3648 6.39502 16.6448 6.39502H18.6848Z" fill="#DF0000"/>
<path d="M14.0345 12.8699H5.18945C4.91445 12.8699 4.68945 13.0949 4.68945 13.3699C4.68945 13.6449 4.91445 13.8699 5.18945 13.8699H14.0295C14.3045 13.8699 14.5295 13.6449 14.5295 13.3699C14.5295 13.0949 14.3045 12.8699 14.0295 12.8699H14.0345Z" fill="#323232"/>
<path d="M14.0345 16.3599H5.18945C4.91445 16.3599 4.68945 16.5849 4.68945 16.8599C4.68945 17.1349 4.91445 17.3599 5.18945 17.3599H14.0295C14.3045 17.3599 14.5295 17.1349 14.5295 16.8599C14.5295 16.5849 14.3045 16.3599 14.0295 16.3599H14.0345Z" fill="#323232"/>
<path d="M17.8695 12.4799C17.8545 12.2049 17.6245 11.9899 17.3445 12.0099C17.0695 12.0249 16.8595 12.2599 16.8745 12.5349L17.3195 20.8649H1.90452L2.59952 7.8949H5.62452V10.2449C5.62452 10.5199 5.84951 10.7449 6.12452 10.7449C6.39951 10.7449 6.62452 10.5199 6.62452 10.2449V7.8949H12.5945V10.2449C12.5945 10.5199 12.8195 10.7449 13.0945 10.7449C13.3695 10.7449 13.5945 10.5199 13.5945 10.2449V7.8949H14.6345C14.9095 7.8949 15.1345 7.6699 15.1345 7.3949C15.1345 7.1199 14.9095 6.8949 14.6345 6.8949H13.5945V5.3749C13.5945 4.3099 13.1795 3.3149 12.4245 2.5649C11.6695 1.8149 10.6695 1.3999 9.60451 1.3999C7.40451 1.3999 5.61951 3.1849 5.61951 5.3749V6.8949H2.11952C1.85452 6.8949 1.63452 7.1049 1.61952 7.3699L0.869516 21.3399C0.864516 21.4749 0.909516 21.6099 1.00452 21.7099C1.09952 21.8099 1.22952 21.8649 1.36952 21.8649H17.8345C17.9695 21.8649 18.1045 21.8099 18.1995 21.7099C18.2945 21.6099 18.3445 21.4749 18.3345 21.3399L17.8595 12.4849L17.8695 12.4799ZM6.62452 5.3699C6.62452 3.7299 7.96451 2.3949 9.60951 2.3949C10.4095 2.3949 11.1595 2.7049 11.7195 3.2699C12.2845 3.8299 12.5945 4.5799 12.5945 5.3749V6.8949H6.62452V5.3749V5.3699Z" fill="#323232"/>
</svg>
