<svg width="30" height="30" viewBox="0 0 30 30" fill="none" xmlns="http://www.w3.org/2000/svg">
<path fill-rule="evenodd" clip-rule="evenodd" d="M6.68874 7.04922C5.56374 6.24922 5.28874 4.69922 6.07624 3.56172C6.86374 2.43672 8.42624 2.16172 9.56374 2.94922C10.6887 3.74922 10.9637 5.29922 10.1762 6.43672C9.37624 7.56172 7.82624 7.83672 6.68874 7.04922V7.04922ZM20.0012 24.9992C20.0012 24.3117 19.4387 23.7492 18.7512 23.7492H11.1637C9.31374 23.7492 7.73874 22.3992 7.46374 20.5742L5.20124 9.72422C5.08874 9.16172 4.58874 8.74922 4.00124 8.74922C3.22624 8.74922 2.65124 9.46172 2.80124 10.2242L4.98874 20.9492C5.46374 23.9992 8.08874 26.2492 11.1762 26.2492H18.7512C19.4387 26.2492 20.0012 25.6867 20.0012 24.9992ZM19.4262 18.7492H14.1887L12.9012 13.6242C14.5012 14.5242 16.1887 15.2242 18.0262 15.2492C18.7512 15.2617 19.3387 14.6367 19.3387 13.9117C19.3387 13.1742 18.7262 12.6117 17.9887 12.5867C16.3512 12.5367 14.7012 11.8867 13.4762 10.9242L11.4262 9.33672C11.1387 9.11172 10.8137 8.96172 10.4762 8.86172C10.0762 8.74922 9.65124 8.71172 9.23874 8.78672H9.21374C7.67624 9.06172 6.65124 10.5242 6.91374 12.0492L8.60124 19.4492C8.95124 21.2242 10.4887 22.4992 12.2887 22.4992H20.8512L24.7137 25.5242C25.2387 25.9367 25.9887 25.8867 26.4512 25.4242C27.0137 24.8617 26.9512 23.9492 26.3262 23.4617L20.9637 19.2742C20.5262 18.9367 19.9887 18.7492 19.4262 18.7492V18.7492Z" fill="#323232"/>
</svg>
