<svg width="32" height="32" viewBox="0 0 32 32" fill="none" xmlns="http://www.w3.org/2000/svg">
<path d="M29.6262 16.2203L24.2596 14.4336C23.9062 14.3136 23.5329 14.5069 23.4129 14.8536C23.2996 15.2003 23.4862 15.5803 23.8329 15.7003L28.7462 17.3403V28.0603L22.0262 26.1936V18.6936C22.0262 18.3269 21.7262 18.0269 21.3596 18.0269C20.9929 18.0269 20.6929 18.3269 20.6929 18.6936V26.1803L11.2929 28.5669V17.3803L12.2862 17.1336C13.8396 19.3269 15.3996 20.8403 15.5329 20.9669C15.6596 21.0936 15.8262 21.1536 15.9929 21.1536C16.1596 21.1536 16.3262 21.0936 16.4529 20.9669C16.7196 20.7136 22.9196 14.7069 22.9196 8.86026C22.9196 5.04026 19.8129 1.93359 15.9929 1.93359C12.1729 1.93359 9.06625 5.04026 9.06625 8.86026C9.06625 11.3536 10.1929 13.8669 11.5062 15.9603L10.6529 16.1736L2.78625 13.5536C2.57958 13.4869 2.35958 13.5203 2.18625 13.6469C2.01292 13.7736 1.90625 13.9736 1.90625 14.1869V26.7069C1.90625 26.9936 2.08625 27.2469 2.35958 27.3403L10.3929 30.0603C10.4662 30.0869 10.5396 30.1003 10.6196 30.1003C10.6796 30.1003 10.7396 30.0936 10.7996 30.0736L21.3462 27.3936L29.2262 29.5803C29.4262 29.6336 29.6396 29.5936 29.8062 29.4669C29.9729 29.3403 30.0729 29.1469 30.0729 28.9336V16.8603C30.0729 16.5736 29.8862 16.3203 29.6196 16.2269L29.6262 16.2203ZM15.9996 3.25359C19.0862 3.25359 21.5929 5.76026 21.5929 8.84693C21.5929 13.2536 17.4129 18.0336 15.9996 19.5203C15.3862 18.8736 14.2529 17.6069 13.1662 16.0269C13.1462 15.9936 13.1262 15.9603 13.0996 15.9269C11.7062 13.8736 10.4062 11.3003 10.4062 8.84693C10.4062 5.76026 12.9129 3.25359 15.9996 3.25359ZM9.96625 28.4869L3.24625 26.2136V15.0936L9.96625 17.3336V28.4936V28.4869Z" fill="#323232"/>
<path d="M16.0017 11.474C17.4523 11.474 18.6283 10.298 18.6283 8.84737C18.6283 7.3967 17.4523 6.2207 16.0017 6.2207C14.551 6.2207 13.375 7.3967 13.375 8.84737C13.375 10.298 14.551 11.474 16.0017 11.474Z" fill="#DF0000"/>
</svg>
