<svg width="29" height="26" viewBox="0 0 29 26" fill="none" xmlns="http://www.w3.org/2000/svg">
<path d="M1.25781 25.0563V23.1699H21.6574V25.0563H1.25781Z" fill="#8DE2E0"/>
<path d="M20.9906 24.5329L20.3979 14.3982C20.3776 14.0515 20.6422 13.754 20.9889 13.7337C21.3356 13.7135 21.6331 13.9781 21.6534 14.3248L22.2851 25.125C22.3062 25.4861 22.019 25.7905 21.6573 25.7905H0.628857C0.269296 25.7905 -0.0170604 25.4896 0.00079165 25.1305L0.876976 7.50579C0.893617 7.17106 1.16988 6.9082 1.50504 6.9082H17.5855C17.9328 6.9082 18.2144 7.18973 18.2144 7.53701C18.2144 7.88429 17.9328 8.16582 17.5855 8.16582H2.1034L1.28974 24.5329H20.9906Z" fill="#323232"/>
<path d="M22.8768 6.51953C23.0471 6.51953 23.2105 6.58708 23.331 6.70736L28.1243 11.4893C28.376 11.7404 28.3762 12.148 28.1248 12.3993L25.5533 14.9707C25.3024 15.2217 24.8955 15.2219 24.6443 14.9713L19.851 10.1893C19.7301 10.0687 19.6621 9.90485 19.6621 9.73403V7.16263C19.6621 6.80746 19.95 6.51953 20.3052 6.51953H22.8768Z" fill="#E40000"/>
<path d="M16.9873 18.8604C17.3344 18.8606 17.6152 19.1421 17.6152 19.4893C17.6151 19.8363 17.3343 20.1179 16.9873 20.1182H5.84375C5.49655 20.1181 5.21498 19.8364 5.21484 19.4893C5.21484 19.142 5.49647 18.8604 5.84375 18.8604H16.9873ZM16.9863 14.4609C17.3336 14.4609 17.6152 14.7426 17.6152 15.0898C17.6152 15.4371 17.3336 15.7188 16.9863 15.7188H5.84375C5.49649 15.7188 5.21491 15.4371 5.21484 15.0898C5.21484 14.7426 5.49645 14.4609 5.84375 14.4609H16.9863Z" fill="#323232"/>
<path d="M7.56042 11.1425C7.56042 11.4898 7.27887 11.7713 6.93158 11.7713C6.58428 11.7713 6.30273 11.4898 6.30273 11.1425V5.0095C6.30273 2.24243 8.55165 0 11.3249 0C12.6565 0 13.9337 0.527494 14.8755 1.46662C15.8177 2.40609 16.3471 3.68052 16.3471 5.0095V11.1425C16.3471 11.4898 16.0656 11.7713 15.7183 11.7713C15.371 11.7713 15.0895 11.4898 15.0895 11.1425V5.0095C15.0895 4.01481 14.6931 3.06076 13.9875 2.35715C13.2815 1.65319 12.3237 1.25762 11.3249 1.25762C9.24545 1.25762 7.56042 2.93779 7.56042 5.0095V11.1425Z" fill="#323232"/>
</svg>
