<svg width="34" height="34" viewBox="0 0 34 34" fill="none" xmlns="http://www.w3.org/2000/svg">
<path fill-rule="evenodd" clip-rule="evenodd" d="M8.5013 14.166C6.94297 14.166 5.66797 15.441 5.66797 16.9993C5.66797 18.5577 6.94297 19.8327 8.5013 19.8327C10.0596 19.8327 11.3346 18.5577 11.3346 16.9993C11.3346 15.441 10.0596 14.166 8.5013 14.166ZM25.5013 14.166C23.943 14.166 22.668 15.441 22.668 16.9993C22.668 18.5577 23.943 19.8327 25.5013 19.8327C27.0596 19.8327 28.3346 18.5577 28.3346 16.9993C28.3346 15.441 27.0596 14.166 25.5013 14.166ZM17.0013 14.166C15.443 14.166 14.168 15.441 14.168 16.9993C14.168 18.5577 15.443 19.8327 17.0013 19.8327C18.5596 19.8327 19.8346 18.5577 19.8346 16.9993C19.8346 15.441 18.5596 14.166 17.0013 14.166Z" fill="#323232"/>
</svg>
