<svg width="34" height="34" viewBox="0 0 34 34" fill="none" xmlns="http://www.w3.org/2000/svg">
<path fill-rule="evenodd" clip-rule="evenodd" d="M17.0013 4.95768L6.3763 9.20768L5.66797 7.08268L17.0013 2.47852L28.3346 7.08268L27.6263 9.20768L17.0013 4.95768Z" fill="#8DE2E0"/>
<path fill-rule="evenodd" clip-rule="evenodd" d="M29.0404 6.37435C29.0691 6.37435 17.3143 1.53077 16.9987 1.41602C16.7404 1.50213 4.95703 6.37435 4.95703 6.37435V14.8743C4.95703 21.0149 6.15228 29.5985 16.9987 32.5827C27.8165 29.5985 29.0404 20.8715 29.0404 14.8743V6.37435ZM27.6237 14.8743C27.6237 23.3187 24.9518 28.7729 16.998 31.1099C9.00079 28.7701 6.3737 23.4214 6.3737 14.8743V7.32167C6.72983 7.17448 6.99655 7.06426 7.37295 6.90873C8.77935 6.32763 10.1866 5.74652 11.501 5.20418L11.5203 5.1962C14.0401 4.15655 16.1179 3.30177 16.9967 2.94241C17.9304 3.32341 20.1064 4.21723 22.6091 5.24811C24.1186 5.86987 25.5877 6.4759 26.6742 6.92498C27.0414 7.07675 27.3602 7.20867 27.6237 7.31788V14.8743Z" fill="#323232"/>
<path fill-rule="evenodd" clip-rule="evenodd" d="M14.4019 23.4931H15.7005L18.947 18.2986H22.5182C23.0572 18.2986 23.4922 17.8636 23.4922 17.3247C23.4922 16.7857 23.0572 16.3507 22.5182 16.3507H18.947L15.7005 11.1562H14.4019L16.0252 16.3507H12.454L11.48 15.0521H10.5061L11.1554 17.3247L10.5061 19.5972H11.48L12.454 18.2986H16.0252L14.4019 23.4931Z" fill="#E40000"/>
</svg>
