<svg width="51" height="48" viewBox="0 0 51 48" fill="none" xmlns="http://www.w3.org/2000/svg">
<path d="M37.031 20.11C35.702 20.11 34.428 20.334 33.233 20.732C33.102 21.542 32.936 22.339 32.698 23.106C34.01 22.474 35.476 22.11 37.031 22.11C42.568 22.11 47.055 26.598 47.055 32.134C47.055 37.672 42.568 42.159 37.031 42.159C31.495 42.159 27.007 37.672 27.007 32.134C27.007 31.891 27.026 31.653 27.043 31.414C26.412 31.923 25.739 32.38 25.04 32.798C25.386 39.129 30.614 44.159 37.031 44.159C43.672 44.159 49.055 38.776 49.055 32.134C49.055 25.494 43.672 20.11 37.031 20.11" fill="#323232"/>
<path d="M40.0194 30.1262H38.6054V29.8882C38.6054 29.0902 38.0874 28.5162 37.2194 28.5162C36.3374 28.5162 35.8474 29.0202 35.8474 29.7062C35.8474 30.1682 36.1134 30.6302 36.6734 30.8542L38.0034 31.4002C39.0394 31.8202 40.2014 32.4082 40.2014 34.0462C40.2014 35.5442 39.2354 36.5802 37.7514 36.7622V38.1622H36.6594V36.7342C35.2174 36.5382 34.2794 35.5862 34.2794 34.1582V33.8922H35.6934V34.2142C35.6934 35.0402 36.2674 35.5862 37.2334 35.5862C38.2274 35.5862 38.7874 34.9982 38.7874 34.2002C38.7874 33.4442 38.3254 33.0662 37.6674 32.7862L36.3654 32.2542C35.2594 31.8062 34.4474 31.0782 34.4474 29.8042C34.4474 28.5582 35.3014 27.5782 36.6594 27.3542V25.9402H37.7514V27.3542C39.1094 27.5502 40.0194 28.5162 40.0194 29.9442V30.1262Z" fill="#323232"/>
<path fill-rule="evenodd" clip-rule="evenodd" d="M0.909241 17.9642C0.909241 26.4128 7.75815 33.2617 16.2067 33.2617C24.6553 33.2617 31.5042 26.4128 31.5042 17.9642C31.5042 9.5157 24.6553 2.66679 16.2067 2.66679C7.75815 2.66679 0.909241 9.5157 0.909241 17.9642ZM29.5042 17.9642C29.5042 25.3082 23.5507 31.2617 16.2067 31.2617C8.86272 31.2617 2.90924 25.3082 2.90924 17.9642C2.90924 10.6203 8.86272 4.66679 16.2067 4.66679C23.5507 4.66679 29.5042 10.6203 29.5042 17.9642Z" fill="#323232"/>
<path d="M24.0483 25.9776C24.0624 25.9923 24.0765 25.9923 24.0908 25.9923C24.1192 25.9923 24.1334 25.9923 24.1618 25.9627C24.19 25.9331 24.19 25.8741 24.1618 25.8445C22.4749 23.9958 20.4055 22.5022 18.0951 21.5411C17.3863 21.2453 17.3863 21.2453 17.3863 21.2453C17.0177 21.0824 16.7768 20.7129 16.7768 20.2839C16.8193 18.7016 20.3913 19.027 20.7599 18.2727C20.8166 18.1396 20.8166 18.1396 20.8166 18.1396C20.0795 17.4741 19.2147 16.9861 18.251 16.7052C18.2369 16.7495 18.2084 16.9269 18.4068 17.2671C18.6196 17.622 18.18 18.1988 17.528 17.5777C17.4713 17.5333 17.4713 17.5333 17.4713 17.5333C12.7371 13.0079 10.5543 15.9952 7.33674 10.7306C7.30837 10.6861 7.2659 10.6714 7.22327 10.701C7.1808 10.7306 7.16654 10.7749 7.1808 10.8192C9.71804 17.1931 14.9058 15.8474 15.5153 21.7924C15.5437 22.0143 15.6997 22.1917 15.9122 22.2213C18.7895 22.6945 21.5962 23.9368 24.0342 25.9776H24.0483" fill="#E40000"/>
</svg>
