<svg width="24" height="24" viewBox="0 0 24 24" fill="none" xmlns="http://www.w3.org/2000/svg">
<g clip-path="url(#clip0_989_44582)">
<path d="M12.0005 23.0599C5.90055 23.0599 0.935547 18.0949 0.935547 11.9999C0.935547 5.90494 5.90055 0.939941 12.0005 0.939941C18.1005 0.939941 23.0605 5.90494 23.0605 11.9999C23.0605 18.0949 18.0955 23.0599 12.0005 23.0599ZM12.0005 1.93994C6.45055 1.93994 1.93555 6.44994 1.93555 11.9999C1.93555 17.5499 6.45055 22.0599 12.0005 22.0599C17.5505 22.0599 22.0605 17.5449 22.0605 11.9999C22.0605 6.45494 17.5505 1.93994 12.0005 1.93994Z" fill="#323232"/>
<path d="M11.8792 3.33984C11.7742 3.33984 11.6892 3.41484 11.6742 3.51484C11.6592 3.61484 11.7192 3.71484 11.8192 3.74484C11.8542 3.75484 15.3842 4.89984 17.4892 7.41984C19.6492 10.0048 20.1842 13.0398 20.1892 13.0748C20.2042 13.1748 20.2942 13.2498 20.3942 13.2498C20.4942 13.2498 20.5792 13.1798 20.5992 13.0798C20.6692 12.7098 20.7042 12.3048 20.7042 11.8648C20.7042 7.16484 16.7492 3.33984 11.8842 3.33984H11.8792Z" fill="#8DE2E0"/>
<path fill-rule="evenodd" clip-rule="evenodd" d="M18.4091 18.0051C18.4091 18.0051 18.4291 18.0151 18.4441 18.0151C18.4641 18.0151 18.4791 18.0151 18.4991 17.9901C18.5191 17.9651 18.5191 17.9201 18.4991 17.9001C17.2091 16.4851 15.6191 15.3401 13.8491 14.6051L13.3041 14.3801C13.0241 14.2551 12.8391 13.9701 12.8391 13.6451C12.8741 12.4351 15.6091 12.6801 15.8891 12.1051L15.9341 12.0051C15.3691 11.4951 14.7041 11.1201 13.9691 10.9051C13.9591 10.9401 13.9341 11.0751 14.0891 11.3351C14.2541 11.6051 13.9141 12.0501 13.4141 11.5751L13.3691 11.5401C9.74414 8.07512 8.06914 10.3601 5.60414 6.33012C5.58414 6.29512 5.54914 6.28512 5.51914 6.30512C5.48414 6.33012 5.47414 6.36012 5.48414 6.39512C7.42914 11.2801 11.4041 10.2451 11.8691 14.8001C11.8891 14.9701 12.0091 15.1051 12.1741 15.1301C14.3791 15.4951 16.5291 16.4451 18.3991 18.0101H18.4091" fill="#DF0000"/>
</g>
<defs>
<clipPath id="clip0_989_44582">
<rect width="24" height="24" fill="white"/>
</clipPath>
</defs>
</svg>
