<svg width="43" height="43" viewBox="0 0 43 43" fill="none" xmlns="http://www.w3.org/2000/svg">
<circle cx="21.5" cy="21.5" r="21.5" fill="#E40000"/>
<path fill-rule="evenodd" clip-rule="evenodd" d="M34.3025 32.2223C34.3249 32.2389 34.3528 32.25 34.3807 32.25C34.4086 32.25 34.442 32.2389 34.4699 32.2168C34.5202 32.1669 34.5257 32.0894 34.4755 32.034C31.9813 29.4308 28.9346 27.3538 25.5141 25.9857L24.4706 25.5703C23.9349 25.3543 23.5611 24.8281 23.5778 24.2244C23.6336 22.0089 28.9179 22.4576 29.4535 21.3941L29.5484 21.2113C28.4603 20.2919 27.1713 19.594 25.7484 19.2063C25.7373 19.2617 25.7038 19.5165 25.9884 19.9873C26.3008 20.4968 25.6424 21.3055 24.6826 20.4304L24.6045 20.3584C17.6128 13.9999 14.3876 18.2038 9.64459 10.8152V10.8096C9.60554 10.7487 9.52742 10.7321 9.46604 10.7709C9.41024 10.8041 9.3935 10.8706 9.41582 10.9259C13.16 19.8987 20.8157 17.9933 21.7253 26.3568C21.7587 26.6614 21.9931 26.9051 22.3 26.955C26.5575 27.6196 30.6979 29.3588 34.3025 32.2223Z" fill="white"/>
</svg>
