<svg width="34" height="34" viewBox="0 0 34 34" fill="none" xmlns="http://www.w3.org/2000/svg">
<path d="M17.7109 4.95898H19.8359V9.21607L17.7109 7.08398V4.95898Z" fill="#8DE2E0"/>
<path d="M13.3206 13.459H11.4789C11.0095 13.459 10.6289 13.8395 10.6289 14.309V18.984C10.6289 19.4534 11.0095 19.834 11.4789 19.834H13.3206C13.79 19.834 14.1706 19.4534 14.1706 18.984V14.309C14.1706 13.8395 13.79 13.459 13.3206 13.459Z" fill="#E40000"/>
<path d="M11.9442 2.28969C12.2063 2.0701 12.5894 2.0701 12.8515 2.28969L16.2939 5.13637V4.2516C16.2939 3.86203 16.6123 3.54264 17.0019 3.54262H20.5439C20.9333 3.54277 21.2519 3.86211 21.2519 4.2516V9.24477L23.122 10.7897C23.4192 11.0376 23.4616 11.4832 23.2138 11.7877C22.9659 12.0852 22.5193 12.1284 22.2148 11.8805L21.2519 11.0797V17.0016H19.8349V9.91078L12.3974 3.75551L5.64737 9.34438C5.65445 9.38676 5.66882 9.42211 5.66886 9.46449V21.9596H16.2939V23.3766H4.95987C4.57046 23.3764 4.25187 23.0571 4.25187 22.6676V10.4918L2.57999 11.8805C2.27543 12.1281 1.82977 12.0921 1.58194 11.7877C1.33406 11.4832 1.36926 11.0376 1.67374 10.7897L11.9442 2.28969ZM17.7099 4.95961V6.31215L19.8349 8.06898V4.95961H17.7099Z" fill="#323232"/>
<path d="M24.793 16.291C29.4874 16.291 33.293 20.0966 33.293 24.791C33.293 29.4854 29.4874 33.291 24.793 33.291C20.0985 33.291 16.293 29.4854 16.293 24.791C16.293 20.0966 20.0985 16.291 24.793 16.291ZM24.793 17.708C20.881 17.708 17.71 20.879 17.71 24.791C17.71 28.703 20.881 31.874 24.793 31.874C28.705 31.874 31.876 28.703 31.876 24.791C31.876 20.879 28.705 17.708 24.793 17.708Z" fill="#323232"/>
<path fill-rule="evenodd" clip-rule="evenodd" d="M26.8709 23.4522H25.8875V23.2867C25.8875 22.7317 25.5272 22.3325 24.9236 22.3325C24.3102 22.3325 23.9694 22.6831 23.9694 23.1601C23.9694 23.4815 24.1544 23.8028 24.5439 23.9585L25.4688 24.3383C26.1893 24.6304 26.9975 25.0393 26.9975 26.1785C26.9975 27.2203 26.3256 27.9408 25.2936 28.0674V29.041H24.5341V28.0479C23.5313 27.9116 22.8789 27.2495 22.8789 26.2564V26.0714H23.8623V26.2953C23.8623 26.8698 24.2615 27.2495 24.9333 27.2495C25.6246 27.2495 26.0141 26.8406 26.0141 26.2856C26.0141 25.7598 25.6928 25.4969 25.2351 25.3022L24.3297 24.9322C23.5605 24.6206 22.9957 24.1143 22.9957 23.2283C22.9957 22.3617 23.5897 21.6802 24.5341 21.5244V20.541H25.2936V21.5244C26.238 21.6607 26.8709 22.3325 26.8709 23.3257V23.4522Z" fill="#323232"/>
</svg>
