<svg width="24" height="24" viewBox="0 0 24 24" fill="none" xmlns="http://www.w3.org/2000/svg">
<g clip-path="url(#clip0_989_45286)">
<path d="M14.0596 7.44009C14.6796 8.31509 15.3096 9.76009 15.3096 9.76009C16.0846 9.08009 17.9096 8.40009 17.9096 8.40009L16.7246 5.46509C16.7246 5.46509 15.6096 6.01009 14.0596 7.44509" fill="#8DE2E0"/>
<path d="M9.93984 7.44009C9.31984 8.31509 8.68984 9.76009 8.68984 9.76009C7.91484 9.08009 6.08984 8.40009 6.08984 8.40009L7.27484 5.46509C7.27484 5.46509 8.38984 6.01009 9.93984 7.44509" fill="#8DE2E0"/>
<path d="M23.0152 7.43002C23.0152 7.29002 22.9502 7.16002 22.8502 7.07002C22.7452 6.98002 22.6052 6.93002 22.4702 6.94502C22.3452 6.95502 20.3752 7.15002 18.2452 7.83002C17.7352 6.34502 17.1902 5.28002 17.1652 5.23502C17.1002 5.11002 16.9902 5.02002 16.8552 4.98002C16.7202 4.94002 16.5802 4.96002 16.4602 5.03502C16.4102 5.06502 15.3752 5.69502 14.1452 6.71002C13.2552 5.42502 12.4352 4.53502 12.3602 4.45502C12.1702 4.25002 11.8202 4.25002 11.6302 4.45502C11.5552 4.53502 10.7352 5.42502 9.84523 6.71002C8.61523 5.69502 7.58023 5.06502 7.53023 5.03502C7.41023 4.96502 7.27023 4.94502 7.13523 4.98002C7.00023 5.02002 6.89023 5.11002 6.82523 5.23502C6.80023 5.28502 6.26023 6.34502 5.74523 7.83002C3.62023 7.15002 1.64523 6.95502 1.52023 6.94502C1.38523 6.93002 1.24523 6.97502 1.14023 7.07002C1.03523 7.16002 0.975231 7.29502 0.975231 7.43002C0.970231 7.68002 0.875231 13.525 3.35023 16.3C5.37023 18.56 7.40023 19.365 9.00523 19.365C9.47523 19.365 9.90523 19.295 10.2902 19.17C10.8802 19.535 11.4802 19.705 11.9902 19.705C12.5002 19.705 13.1002 19.535 13.6902 19.17C14.0752 19.29 14.5052 19.365 14.9752 19.365C16.5802 19.365 18.6102 18.56 20.6302 16.3C23.1102 13.525 23.0102 7.67502 23.0052 7.43002H23.0152ZM16.5152 6.19002C16.7152 6.63002 17.0152 7.33002 17.3002 8.16002C16.6852 8.40002 16.0752 8.68502 15.5152 9.02502C15.2652 8.51002 14.9852 8.01502 14.6952 7.55002C15.4202 6.94502 16.0902 6.47502 16.5102 6.19002H16.5152ZM7.48523 6.19002C7.91023 6.47502 8.58023 6.95002 9.30023 7.55002C9.01023 8.01502 8.73023 8.51002 8.48023 9.02502C7.92023 8.68502 7.31023 8.40002 6.69523 8.16002C6.98023 7.33002 7.28023 6.63002 7.48023 6.19002H7.48523ZM4.10523 15.635C2.30023 13.615 2.02523 9.50002 1.99023 8.00502C3.18523 8.17502 6.06023 8.69002 8.07523 9.95002C7.73023 10.84 7.50023 11.76 7.50023 12.65C7.50023 15.425 8.30523 17.25 9.32023 18.355C7.94523 18.475 6.05523 17.82 4.10523 15.635ZM12.0002 18.705C10.8602 18.705 8.50023 17.225 8.50023 12.65C8.50023 9.94002 11.0352 6.69002 12.0002 5.55002C12.9652 6.69002 15.5002 9.94502 15.5002 12.65C15.5002 17.225 13.1402 18.705 12.0002 18.705ZM19.8952 15.635C17.9452 17.82 16.0552 18.475 14.6802 18.355C15.6952 17.255 16.5002 15.425 16.5002 12.65C16.5002 11.76 16.2702 10.84 15.9252 9.95002C17.9402 8.69002 20.8202 8.17502 22.0102 8.00502C21.9702 9.49502 21.6952 13.615 19.8952 15.635Z" fill="#323232"/>
</g>
<defs>
<clipPath id="clip0_989_45286">
<rect width="24" height="24" fill="white"/>
</clipPath>
</defs>
</svg>
