<svg width="48" height="48" viewBox="0 0 48 48" fill="none" xmlns="http://www.w3.org/2000/svg">
<path d="M24.001 10.668C31.3648 10.668 37.3349 16.6371 37.335 24.001C37.335 31.3649 31.3649 37.335 24.001 37.335C16.6371 37.3349 10.668 31.3648 10.668 24.001C10.6681 16.6372 16.6372 10.6681 24.001 10.668ZM24.4277 27.2578C24.3735 28.6965 23.1897 29.8506 21.7383 29.8506C21.2876 29.8506 20.8631 29.7376 20.4893 29.541C19.6317 29.0895 19.0439 28.1903 19.0439 27.1562C19.0442 25.6709 20.2529 24.462 21.7383 24.4619C22.0157 24.4619 22.2812 24.5081 22.5332 24.5869V21.3145C22.2732 21.279 22.0083 21.2568 21.7383 21.2568C18.4857 21.2569 15.8391 23.9037 15.8389 27.1562C15.8389 29.1522 16.8364 30.9188 18.3574 31.9863C19.3159 32.6592 20.4808 33.0556 21.7383 33.0557C24.991 33.0557 27.6375 30.4096 27.6377 27.1562V20.6426C28.8945 21.5449 30.4355 22.0762 32.0977 22.0762V18.8711C31.2027 18.8711 30.3679 18.6046 29.6689 18.1484V18.1494C28.6649 17.4946 27.94 16.447 27.7139 15.2256C27.665 14.9614 27.6377 14.6897 27.6377 14.4121H24.4326L24.4277 27.2578Z" fill="#323232"/>
</svg>
