<svg width="48" height="48" viewBox="0 0 48 48" fill="none" xmlns="http://www.w3.org/2000/svg">
<path d="M24.001 10.668C31.3648 10.668 37.3349 16.6371 37.335 24.001C37.335 31.3649 31.3649 37.335 24.001 37.335C16.6371 37.3349 10.668 31.3648 10.668 24.001C10.6681 16.6372 16.6372 10.6681 24.001 10.668ZM22.1602 24.5137L22.1592 24.5127L16.001 31.6455H17.8857L22.9922 25.7275L27.0518 31.6455H31.9941L25.7393 22.5273L25.75 22.5361L31.3896 16.001H29.5049L24.9111 21.3203L21.2627 16.001H16.3213L22.1602 24.5137ZM29.291 30.2227H27.7979L19.0156 17.4229H20.5166L29.291 30.2227Z" fill="#323232"/>
</svg>
