<svg width="48" height="48" viewBox="0 0 48 48" fill="none" xmlns="http://www.w3.org/2000/svg">
<path d="M23.999 13.332C24.0727 13.332 33.1809 13.3347 35.459 13.9492C36.7211 14.2888 37.7145 15.2894 38.0518 16.5596C38.6622 18.8526 38.665 23.6262 38.665 23.665C38.665 23.665 38.6648 28.4688 38.0518 30.7715C37.7144 32.0415 36.7212 33.0421 35.459 33.3818C33.1809 33.9962 24.0727 33.998 23.999 33.998C23.999 33.998 14.8256 33.9987 12.5381 33.3818C11.276 33.0421 10.2826 32.0415 9.94531 30.7715C9.33248 28.4688 9.33203 23.665 9.33203 23.665C9.33204 23.6262 9.33505 18.8526 9.94531 16.5596C10.2826 15.2893 11.2761 14.2888 12.5381 13.9492C14.8256 13.3322 23.999 13.332 23.999 13.332ZM20.999 28.0264L28.665 23.665L20.999 19.3037V28.0264Z" fill="#323232"/>
</svg>
