<svg width="40" height="40" viewBox="0 0 40 40" fill="none" xmlns="http://www.w3.org/2000/svg">
<path d="M22.2565 28.7146H17.9951L14.863 22.0384C13.9051 22.5706 13.1777 23.4967 12.418 24.4636C11.8223 25.2217 11.2071 26.0052 10.4452 26.6436C9.56056 27.384 8.52835 28.0449 7.24045 28.4919C6.65791 28.6925 5.66541 28.9567 5.29272 28.9925C5.13601 29.0083 5.02818 29.002 5.00374 28.9453C4.98602 28.9003 5.02818 28.8661 5.19558 28.785L5.34527 28.7153C5.65105 28.5759 6.25437 28.2996 6.65791 28.0113C7.27131 27.5757 7.61986 27.1021 7.64827 26.7383C7.61741 26.6259 7.55051 26.4881 7.47109 26.3224C7.11948 25.5937 6.50822 24.3264 7.50714 22.3137C7.66727 21.9923 7.83184 21.6734 8.00079 21.3569C8.23234 20.9181 8.43579 20.5332 8.59892 20.1473C8.91234 19.4117 9.13289 18.3715 9.20987 17.602C9.21445 17.557 9.22331 17.5592 9.24745 17.5839C9.84527 18.2024 12.159 20.6371 11.8235 23.0604C12.5933 22.7582 13.928 21.8397 14.5432 21.3499C14.6905 21.233 14.8261 21.1149 14.9556 21.0021C15.3986 20.6162 15.7712 20.2915 16.3034 20.2829C16.6516 20.2766 16.8196 20.3703 16.9889 20.4651C17.119 20.5379 17.2501 20.6108 17.4636 20.6393C17.5849 20.6552 17.766 20.6301 17.8583 20.5851C17.8958 20.5671 17.887 20.5243 17.8299 20.5107C17.5513 20.4429 17.3609 20.3067 17.1709 20.1707C16.9052 19.9807 16.64 19.7906 16.1357 19.7906C15.5531 19.7906 15.0601 20.2024 14.662 20.5348C14.5295 20.6453 14.4076 20.747 14.2964 20.8221L12.1082 16.158C11.193 14.2064 11.4729 12.7889 13.4802 10L22.2565 28.7153V28.7146ZM29.1426 28.7172H26.4957C25.3797 28.7172 24.8174 28.4666 24.4092 27.9204C23.9724 27.3384 23.9724 26.4516 23.9724 25.6098V10.0067H27.3757V26.1104C27.3757 27.3853 27.5147 28.2971 29.1426 28.6605V28.7165V28.7172ZM33.353 28.7172H36V28.6608C34.3721 28.2974 34.2331 27.3856 34.2331 26.1107V10.0067H30.8301V25.6098C30.8301 26.4516 30.8301 27.3384 31.2666 27.9204C31.6747 28.4666 32.2371 28.7172 33.353 28.7172Z" fill="#1E1852"/>
</svg>
