<svg width="48" height="48" viewBox="0 0 48 48" fill="none" xmlns="http://www.w3.org/2000/svg">
<path d="M1.41113 28.9604H6.35787C7.47808 28.9604 8.63127 29.0291 9.65569 28.4892C11.2278 27.6608 12.1927 24.5466 9.85556 23.9949C10.2814 23.797 10.6817 23.6514 10.9648 23.2501C11.6261 22.3128 11.5214 20.3818 10.6049 19.6441C10.0781 19.2201 9.40486 19.133 8.75628 19.0707C7.40763 18.941 6.01474 19.0295 4.65899 19.0295H3.25991C3.11431 19.0295 2.74041 19.0325 2.74041 19.0325C2.74041 19.0325 2.64154 19.6006 2.61856 19.7743C2.53536 20.4031 2.42861 21.0314 2.35276 21.6612C2.05936 24.0966 1.72058 26.5271 1.41113 28.9604ZM13.0534 19.0295L12.7037 21.7605H16.0515L16.1431 21.7605L13.4532 23.1385L12.4697 23.7164L12.2462 25.2363L11.8043 28.9604H14.2527L15.1971 28.9627L15.2971 28.2653L15.5518 26.3784L16.1431 21.7605L16.5138 19.0227L15.302 19.0295L13.0534 19.0295ZM16.2014 28.9604L19.3025 28.9636L19.952 23.7995L20.6446 24.9912L22.0616 27.6229L22.782 28.9627L23.6496 28.9636H25.8981C26.3222 25.6428 26.6993 22.3507 27.1473 19.0327L24.0462 19.0295L23.3966 24.2433C22.6725 23.1522 22.0998 21.8866 21.5102 20.7178C21.2772 20.2558 20.7049 19.0339 20.7049 19.0339C20.7049 19.0339 20.1439 19.0295 19.9489 19.0295H18.2001C18.0177 19.0295 17.4805 19.0382 17.4805 19.0382C17.4805 19.0382 17.377 19.8382 17.3429 20.1219M37.2375 23.2501H32.8904C33.0898 23.726 33.3638 24.1912 33.6187 24.6404C33.7272 24.8318 34.0004 25.2228 34.0004 25.2228C34.0004 25.2228 33.6159 25.7724 33.4399 25.9146C32.5358 26.6448 31.1333 26.0306 30.6093 25.137C29.9434 24.0014 30.5074 22.4162 31.7411 21.9325C32.3814 21.6815 33.1167 21.7605 33.7898 21.7605H37.4374L37.7871 19.0295H33.44C32.527 19.0295 31.578 18.9529 30.6918 19.2142C27.1526 20.2581 26.0443 24.9596 28.5477 27.5693C29.8217 28.8975 31.4217 28.9604 33.1402 28.9604H35.6385C35.8352 28.9604 36.479 28.9561 36.479 28.9561C36.479 28.9561 36.6498 27.7802 36.7014 27.4211C36.9004 26.0372 36.9806 24.6244 37.2375 23.2501ZM37.4374 28.9604H43.6333H45.2322L45.8637 28.9564L45.9952 28.2156L46.2315 26.2791L40.935 26.2294L41.035 25.3356H45.4321L45.7818 22.6046H41.3847L41.4847 21.7605L46.8312 21.7108L47.131 19.0791L40.935 19.0295H39.3861L38.7131 19.0317L38.6225 19.7743L38.379 21.6612L37.4374 28.9604ZM5.30856 22.9025C5.35219 22.6231 5.57979 21.47 5.57979 21.47C5.57979 21.47 5.99151 21.4625 6.158 21.4625C6.66951 21.4625 7.41127 21.3644 7.8247 21.7339C8.33201 22.1875 7.92593 22.7977 7.40718 22.8807C7.14555 22.9226 6.87188 22.9025 6.6077 22.9025H5.30856ZM4.83209 26.6266C4.88351 26.2947 5.069 24.9612 5.069 24.9612C5.069 24.9612 5.76559 24.9504 5.97075 24.9504C6.53383 24.9504 7.16473 24.8782 7.6634 25.1953C8.44601 25.6694 7.81436 26.4711 7.20731 26.5867C6.9109 26.6431 6.60835 26.6266 6.3079 26.6266H4.83209Z" fill="url(#paint0_linear_175_1383)"/>
<defs>
<linearGradient id="paint0_linear_175_1383" x1="1.88225" y1="23.7999" x2="45.2822" y2="23.8358" gradientUnits="userSpaceOnUse">
<stop stop-color="#2173FA"/>
<stop offset="0.138789" stop-color="#3241DE"/>
<stop offset="0.356093" stop-color="#5117BF"/>
<stop offset="0.429494" stop-color="#6911AC"/>
<stop offset="0.546877" stop-color="#92078B"/>
<stop offset="0.628296" stop-color="#A90178"/>
<stop offset="0.721225" stop-color="#C00057"/>
<stop offset="0.804277" stop-color="#CF0541"/>
<stop offset="0.88898" stop-color="#DB363A"/>
<stop offset="1" stop-color="#EB7531"/>
</linearGradient>
</defs>
</svg>
