<svg width="40" height="40" viewBox="0 0 40 40" fill="none" xmlns="http://www.w3.org/2000/svg">
<rect x="13.5029" y="11.502" width="13.0062" height="1.50074" fill="#8DE2E0"/>
<path d="M18.0049 11.0029V5H22.0068V11.0029" fill="#E40000"/>
<path d="M13.002 18.2785V11.9594C13.002 11.706 13.1026 11.4629 13.2818 11.2838C13.461 11.1046 13.704 11.0039 13.9574 11.0039H26.0542C26.1796 11.0039 26.3038 11.0286 26.4197 11.0767C26.5355 11.1247 26.6408 11.1951 26.7295 11.2838C26.8181 11.3726 26.8884 11.4779 26.9363 11.5938C26.9842 11.7097 27.0088 11.8339 27.0087 11.9594V18.279" stroke="#202020" stroke-linecap="round" stroke-linejoin="round"/>
<path d="M9.00098 19.0059L20.0062 17.0059M20.0062 17.0059L31.0115 19.0059M20.0062 17.0059V32.0102M17.0048 14.0039H23.0077M10.5702 18.7212C11.1041 23.4613 12.2569 28.111 13.9994 32.5515M29.4347 18.7212C28.9008 23.4614 27.7477 28.1111 26.0051 32.5515" stroke="#202020" stroke-linecap="round" stroke-linejoin="round"/>
<path d="M8.00007 32.0098C7.99738 32.4037 8.07229 32.7942 8.22054 33.1592C8.36879 33.5241 8.58746 33.8563 8.86408 34.1367C9.1407 34.4171 9.46984 34.6404 9.83272 34.7936C10.1956 34.9468 10.5851 35.0271 10.979 35.0297C11.7745 35.0352 12.5396 34.7244 13.1059 34.1657C13.3863 33.8891 13.6095 33.56 13.7628 33.1971C13.916 32.8342 13.9962 32.4447 13.9989 32.0508C14.0016 32.4447 14.0819 32.8342 14.2351 33.1971C14.3883 33.56 14.6115 33.8891 14.892 34.1657C15.1724 34.4423 15.5045 34.661 15.8695 34.8093C16.2344 34.9575 16.625 35.0324 17.0189 35.0297C17.4128 35.0271 17.8023 34.9468 18.1652 34.7936C18.528 34.6404 18.8572 34.4171 19.1338 34.1367C19.4104 33.8563 19.6291 33.5241 19.7773 33.1592C19.9256 32.7942 20.0005 32.4037 19.9978 32.0098M20.0058 32.0098C20.0004 32.8053 20.3112 33.5704 20.8698 34.1367C21.4285 34.7031 22.1892 35.0243 22.9847 35.0297C23.7802 35.0352 24.5453 34.7244 25.1117 34.1657C25.678 33.6071 25.9992 32.8463 26.0047 32.0508C26.0101 32.8463 26.3313 33.6071 26.8977 34.1657C27.464 34.7244 28.2291 35.0352 29.0246 35.0297C29.8201 35.0243 30.5809 34.7031 31.1395 34.1367C31.6982 33.5704 32.009 32.8053 32.0035 32.0098" stroke="#202020" stroke-linecap="round" stroke-linejoin="round"/>
</svg>
