<svg width="40" height="40" viewBox="0 0 40 40" fill="none" xmlns="http://www.w3.org/2000/svg">
<path fill-rule="evenodd" clip-rule="evenodd" d="M24.3108 12.0957L29.4022 16.962C29.4022 16.962 29.968 17.422 30.4453 19.5268C30.657 20.4603 30.4453 22.7483 30.4453 22.7483L30.3942 33.4009C30.3942 33.4009 27.8269 35.1379 25.3926 35.1379C22.9582 35.1379 18.1764 33.4009 18.1764 33.4009C18.1764 33.4009 17.024 30.5923 16.0521 28.8355C15.0803 27.0786 15.1061 24.5237 15.1061 24.5237H19.4887V22.0381L14.5162 16.962C14.5162 16.962 14.0172 15.1154 15.1061 13.8711C16.195 12.6268 18.1766 13.2793 18.1766 13.2793L24.3108 19.0486V12.0957Z" fill="#F6F6F6"/>
<path d="M24.6701 12.3581C24.471 12.1668 24.1545 12.1732 23.9632 12.3724C23.7719 12.5716 23.7783 12.8881 23.9775 13.0794L24.6701 12.3581ZM28.8907 17.1048L29.2391 16.7461L29.2371 16.7441L28.8907 17.1048ZM29.9995 33.8888C29.9974 34.1649 30.2195 34.3905 30.4957 34.3926C30.7718 34.3947 30.9974 34.1726 30.9995 33.8965L29.9995 33.8888ZM15.4853 25.1863C15.492 24.9102 15.2737 24.681 14.9976 24.6743C14.7216 24.6676 14.4923 24.8859 14.4856 25.162L15.4853 25.1863ZM16.6963 30.5195L17.1211 30.2555L17.1138 30.2444L16.6963 30.5195ZM17.596 33.8928C17.596 34.1689 17.8199 34.3928 18.096 34.3928C18.3721 34.3928 18.596 34.1689 18.596 33.8928H17.596ZM24.3238 12.7188L23.9775 13.0794L28.5444 17.4654L28.8907 17.1048L29.2371 16.7441L24.6701 12.3581L24.3238 12.7188ZM28.8907 17.1048L28.5423 17.4634C29.6371 18.5269 30.0514 19.9124 30.0514 22.8015H30.5514H31.0514C31.0514 19.8427 30.6354 18.1025 29.2391 16.7461L28.8907 17.1048ZM30.5514 22.8015H30.0514C30.0514 24.9678 30.0384 27.7394 30.0255 29.97C30.019 31.0852 30.0125 32.0649 30.0076 32.7659C30.0052 33.1163 30.0032 33.3971 30.0018 33.5902C30.001 33.6868 30.0005 33.7614 30.0001 33.8119C29.9999 33.8372 29.9998 33.8564 29.9997 33.8693C29.9996 33.8758 29.9996 33.8806 29.9996 33.8839C29.9996 33.8855 29.9995 33.8867 29.9995 33.8876C29.9995 33.888 29.9995 33.8883 29.9995 33.8885C29.9995 33.8886 29.9995 33.8887 29.9995 33.8887C29.9995 33.8888 29.9995 33.8888 30.4995 33.8926C30.9995 33.8965 30.9995 33.8964 30.9995 33.8964C30.9995 33.8963 30.9995 33.8963 30.9995 33.8961C30.9995 33.8959 30.9995 33.8956 30.9995 33.8952C30.9995 33.8944 30.9995 33.8932 30.9995 33.8915C30.9996 33.8883 30.9996 33.8834 30.9996 33.8769C30.9997 33.864 30.9999 33.8447 31.0001 33.8195C31.0005 33.7689 31.001 33.6942 31.0017 33.5976C31.0031 33.4043 31.0052 33.1234 31.0076 32.7728C31.0125 32.0716 31.019 31.0915 31.0255 29.9758C31.0384 27.7448 31.0514 24.9709 31.0514 22.8015H30.5514ZM14.9855 25.1741L14.4856 25.162C14.431 27.4122 15.0772 28.9714 16.2788 30.7946L16.6963 30.5195L17.1138 30.2444C15.9849 28.5315 15.4371 27.1711 15.4853 25.1863L14.9855 25.1741ZM16.6963 30.5195L16.2716 30.7834C16.987 31.9344 17.3149 32.6496 17.4661 33.1036C17.6096 33.5347 17.596 33.7319 17.596 33.8928H18.096H18.596C18.596 33.6904 18.6083 33.3686 18.4149 32.7877C18.2291 32.2298 17.8571 31.44 17.1209 30.2555L16.6963 30.5195Z" fill="#202020"/>
<path fill-rule="evenodd" clip-rule="evenodd" d="M13 8.06061C13 7.47485 13.4748 7 14.0606 7H19.9394C20.5252 7 21 7.47485 21 8.06061V14.9266C21 15.7489 19.8585 15.9559 19.5697 15.186V15.186C19.5241 15.0642 19.4486 14.9576 19.3449 14.8791C18.7357 14.4181 16.4916 12.853 15.5 14C14.7242 14.8974 14.5396 15.7189 14.5019 16.1604C14.4831 16.3812 14.5814 16.587 14.7328 16.7488L18.9104 21.2134C18.9541 21.2601 18.9877 21.3153 19.0092 21.3755V21.3755C19.1179 21.6799 18.8923 22 18.5691 22H14.0606C13.4749 22 13 21.5252 13 20.9394V8.06061Z" fill="#E40000"/>
<path d="M19.1057 25.1739H11.0231C10.4581 25.1739 10 24.7225 10 24.1656V5.00828C10 4.45142 10.4581 4 11.0231 4H23.3004C23.8654 4 24.3235 4.45142 24.3235 5.00828V19.2576" stroke="#202020" stroke-width="1.04" stroke-linecap="round" stroke-linejoin="round"/>
<path d="M26.8146 21.9776L18.7105 14.0666C17.7069 13.1002 16.1007 13.1002 15.0972 14.0666C14.1134 15.0525 14.1134 16.6305 15.0972 17.6164L19.5364 21.9776C19.5364 21.9776 18.1943 26.0345 22.6335 29.5336" stroke="#202020" stroke-width="1.04" stroke-linecap="round" stroke-linejoin="round"/>
</svg>
