<svg width="40" height="40" viewBox="0 0 40 40" fill="none" xmlns="http://www.w3.org/2000/svg">
<path fill-rule="evenodd" clip-rule="evenodd" d="M16.293 21.75H15.4036C15.2451 21.75 15.1709 21.8512 15.139 21.9521L14.2182 25.0674L13.3397 21.9521C13.2974 21.8104 13.2019 21.75 13.0648 21.75H11.9636C11.8262 21.75 11.7416 21.8104 11.699 21.9521L10.8208 25.0674L9.92092 21.9521C9.88911 21.8409 9.81501 21.75 9.6563 21.75H8.66167C8.49193 21.75 8.39684 21.8612 8.46012 22.0433L9.93141 26.4126C9.97414 26.534 10.0691 26.625 10.207 26.625H11.3921C11.5298 26.625 11.6357 26.534 11.6675 26.4126L12.4824 23.4895L13.2974 26.4126C13.3292 26.534 13.4351 26.625 13.5833 26.625H14.7369C14.8851 26.625 14.9804 26.534 15.0226 26.4126L16.494 22.0433C16.5576 21.8612 16.4622 21.75 16.293 21.75Z" fill="#FD6400"/>
<path fill-rule="evenodd" clip-rule="evenodd" d="M18.9148 25.7752C18.127 25.7752 17.5305 25.1472 17.5305 24.3749C17.5305 23.6028 18.127 22.9853 18.9148 22.9853C19.7028 22.9853 20.2883 23.6028 20.2883 24.3749C20.2883 25.1472 19.7028 25.7752 18.9148 25.7752ZM21.4383 21.8942H20.5014C20.3948 21.8942 20.2883 21.9865 20.2883 22.1104V22.5013C20.0326 22.0688 19.4471 21.75 18.7234 21.75C17.3709 21.75 16.1465 22.7693 16.1465 24.3647C16.1465 25.9605 17.3709 27 18.7126 27C19.4366 27 20.0221 26.681 20.2883 26.2488V26.6503C20.2883 26.7634 20.3843 26.8561 20.5014 26.8561H21.4383C21.5554 26.8561 21.6511 26.7634 21.6511 26.6503V22.1104C21.6511 21.9865 21.5554 21.8942 21.4383 21.8942Z" fill="#FD6400"/>
<path fill-rule="evenodd" clip-rule="evenodd" d="M24.7419 21.75H24.6125C24.1413 21.75 23.7531 22.0298 23.5221 22.4593V21.9997C23.5221 21.8998 23.4295 21.81 23.3371 21.81H22.5703C22.4687 21.81 22.3857 21.8998 22.3857 22.0199V26.4254C22.3857 26.5352 22.4687 26.625 22.5703 26.625H23.3835C23.476 26.625 23.5776 26.5452 23.5776 26.4353V24.2675C23.5776 23.4384 23.9195 23.1086 24.5109 23.1086H24.7328C24.8066 23.1086 24.9545 23.0587 24.9545 22.8589V21.9997C24.9545 21.7998 24.8344 21.75 24.7419 21.75Z" fill="#FD6400"/>
<path fill-rule="evenodd" clip-rule="evenodd" d="M27.7225 25.7434C26.9345 25.7434 26.3382 25.0992 26.3382 24.3068C26.3382 23.5147 26.9345 22.8812 27.7225 22.8812C28.5104 22.8812 29.0958 23.5147 29.0958 24.3068C29.0958 25.0992 28.5104 25.7434 27.7225 25.7434ZM30.4325 19.9943C30.4248 19.9791 30.4155 19.9649 30.4049 19.9521C30.3996 19.9457 30.395 19.9391 30.3893 19.9336C30.3731 19.9179 30.3548 19.9056 30.3349 19.8964C30.3312 19.8945 30.328 19.8925 30.3242 19.891C30.3089 19.885 30.2928 19.8818 30.2761 19.8812C30.2657 19.8795 30.2565 19.875 30.2457 19.875H29.3088C29.2032 19.875 29.0985 19.9683 29.0965 20.0932V20.3554C29.0963 20.3565 29.0958 20.3571 29.0958 20.3581L29.0853 22.3638C28.8296 21.941 28.2335 21.6139 27.4989 21.6139C26.168 21.6139 24.9541 22.6701 24.9541 24.2964C24.9541 25.9335 26.168 27 27.5203 27C28.2443 27 28.7976 26.6727 29.0958 26.2293V26.6413C29.0958 26.7572 29.1919 26.8523 29.309 26.8523H30.2353C30.3632 26.8523 30.4587 26.7572 30.4587 26.6413V20.0961C30.4587 20.0705 30.4531 20.0445 30.4438 20.0197C30.4407 20.0107 30.4366 20.0027 30.4325 19.9943Z" fill="#FD6400"/>
<path fill-rule="evenodd" clip-rule="evenodd" d="M5.06741 23.8601C5.20111 23.2322 5.69422 22.8204 6.28993 22.8204C6.8554 22.8204 7.37917 23.1808 7.50268 23.8601H5.06741ZM6.27974 21.75C5.63803 21.75 5.07498 21.9614 4.63649 22.3141V22.6391C4.63649 22.6391 4.70286 23.6615 3.69124 24.0782C3.67885 24.1824 3.66992 24.2877 3.66992 24.3956C3.66992 25.8677 4.75926 27 6.31073 27C6.81433 27 7.23549 26.897 7.595 26.7324C7.9649 26.5575 8.28356 26.3002 8.49939 26.0118C8.56125 25.9296 8.56125 25.8163 8.44824 25.7443L7.71851 25.2914C7.60519 25.2295 7.52326 25.2605 7.45111 25.3427C7.30743 25.5073 7.17405 25.6208 6.99928 25.7133C6.81433 25.8061 6.5985 25.8677 6.33142 25.8677C5.66313 25.8677 5.10848 25.4046 5.03633 24.7043H8.57133C8.75628 24.7043 8.80754 24.6015 8.80754 24.4779V24.2312C8.80754 22.9132 7.81083 21.75 6.27974 21.75Z" fill="#FD6400"/>
<path fill-rule="evenodd" clip-rule="evenodd" d="M33.7177 23.8601L32.9052 23.7058C32.4527 23.6235 32.278 23.4691 32.278 23.2322C32.278 22.9955 32.566 22.7897 33.0185 22.7897C33.4504 22.7897 33.8723 22.9853 34.1909 23.2118C34.376 23.325 34.5306 23.325 34.654 23.1808L34.9831 22.7897C35.096 22.6559 35.1167 22.5013 34.9729 22.378C34.654 22.0998 33.9956 21.75 33.0494 21.75C31.7738 21.75 30.9512 22.4398 30.9512 23.3352C30.9512 24.1382 31.4858 24.6429 32.2881 24.8072L33.0801 24.9721C33.5944 25.0752 33.8723 25.1779 33.8723 25.4662C33.8723 25.7235 33.6152 25.9605 33.0801 25.9605C32.5558 25.9605 32.1441 25.7341 31.8149 25.4457C31.6917 25.3427 31.5476 25.2605 31.3524 25.4148L30.9715 25.7235C30.7662 25.8884 30.7455 26.1251 31.1263 26.4134C31.5167 26.7117 32.1547 27 33.0185 27C34.3247 27 35.2298 26.3002 35.2298 25.3427C35.2298 24.447 34.592 24.025 33.7177 23.8601Z" fill="#FD6400"/>
<path fill-rule="evenodd" clip-rule="evenodd" d="M2.6202 14.9457C2.02422 14.9457 1.53082 15.3574 1.39724 15.9853H3.83284C3.70938 15.3058 3.1854 14.9457 2.6202 14.9457ZM5.13761 16.3559V16.603C5.13761 16.7264 5.08638 16.8295 4.90135 16.8295H1.36656C1.43846 17.5293 1.99322 17.9926 2.66143 17.9926C2.92848 17.9926 3.14418 17.9308 3.32921 17.8382C3.5039 17.7456 3.63737 17.6324 3.78139 17.4676C3.85318 17.3852 3.93542 17.3544 4.04844 17.4161L4.7781 17.8691C4.89112 17.941 4.89112 18.0542 4.82955 18.1366C4.61364 18.4249 4.29514 18.6822 3.92519 18.8572C3.56547 19.0219 3.14418 19.125 2.64076 19.125C1.08907 19.125 0 17.9926 0 16.5206C0 15.0484 1.08907 13.875 2.60977 13.875C4.1409 13.875 5.13761 15.0383 5.13761 16.3559Z" fill="#FD6400"/>
<path fill-rule="evenodd" clip-rule="evenodd" d="M6.66481 18.75C6.51905 18.75 6.42533 18.659 6.38354 18.5376L4.78994 14.1885C4.72753 14.0266 4.82125 13.875 4.98786 13.875H5.99818C6.15442 13.875 6.21704 13.966 6.25861 14.0773L7.39386 17.4251L8.43539 14.0773C8.4667 13.966 8.53969 13.875 8.69582 13.875H9.68541C9.85212 13.875 9.94584 14.0266 9.89369 14.1885L8.29999 18.5376C8.26878 18.659 8.16469 18.75 8.02919 18.75H6.66481Z" fill="#FD6400"/>
<path fill-rule="evenodd" clip-rule="evenodd" d="M12.5284 14.9457C11.9322 14.9457 11.439 15.3574 11.3057 15.9853H13.7409C13.6176 15.3058 13.0936 14.9457 12.5284 14.9457ZM15.0458 16.3559V16.603C15.0458 16.7264 14.9946 16.8295 14.8096 16.8295H11.2746C11.3467 17.5293 11.9016 17.9926 12.5694 17.9926C12.8367 17.9926 13.0524 17.9308 13.2374 17.8382C13.4121 17.7456 13.5457 17.6324 13.6896 17.4676C13.7614 17.3852 13.8436 17.3544 13.9566 17.4161L14.6863 17.8691C14.7993 17.941 14.7993 18.0542 14.7378 18.1366C14.5218 18.4249 14.2033 18.6822 13.8334 18.8572C13.4737 19.0219 13.0524 19.125 12.549 19.125C10.9973 19.125 9.9082 17.9926 9.9082 16.5206C9.9082 15.0484 10.9973 13.875 12.5182 13.875C14.0491 13.875 15.0458 15.0383 15.0458 16.3559Z" fill="#FD6400"/>
<path fill-rule="evenodd" clip-rule="evenodd" d="M17.7694 13.875C17.8618 13.875 17.9819 13.925 17.9819 14.1248V14.9838C17.9819 15.1836 17.834 15.2336 17.7602 15.2336H17.5384C16.947 15.2336 16.6051 15.5632 16.6051 16.3924V18.5602C16.6051 18.6703 16.5035 18.75 16.4111 18.75H15.5978C15.4961 18.75 15.4131 18.6602 15.4131 18.5502V14.1448C15.4131 14.025 15.4961 13.9351 15.5978 13.9351H16.3648C16.4573 13.9351 16.5496 14.025 16.5496 14.1248V14.5844C16.7806 14.1547 17.1689 13.875 17.6401 13.875H17.7694Z" fill="#FD6400"/>
<path fill-rule="evenodd" clip-rule="evenodd" d="M18.4414 20.4731C18.3483 20.3783 18.3379 20.2203 18.4311 20.0937L18.7517 19.6407C18.8757 19.472 19.0518 19.4932 19.1756 19.5881C19.3515 19.725 19.5583 19.8306 19.8067 19.8306C20.1272 19.8306 20.365 19.6091 20.4788 19.293L20.5983 18.9543H20.1328C19.9983 18.9543 19.9156 18.8699 19.8744 18.7435L18.3643 14.2016C18.3228 14.033 18.3538 13.875 18.5816 13.875H19.6467C19.7708 13.875 19.843 13.9802 19.8744 14.0962L20.9603 17.7214L21.984 14.0962C22.0152 13.9802 22.0977 13.875 22.253 13.875H23.2767C23.463 13.875 23.525 14.0119 23.463 14.2016L21.7922 19.5037C21.5028 20.41 20.8823 21 19.8997 21C19.31 21 18.7827 20.8 18.4414 20.4731Z" fill="#FD6400"/>
<path fill-rule="evenodd" clip-rule="evenodd" d="M34.9551 20.4731C34.862 20.3783 34.8516 20.2203 34.9448 20.0937L35.2654 19.6407C35.3894 19.472 35.5652 19.4932 35.6893 19.5881C35.8652 19.725 36.072 19.8306 36.3201 19.8306C36.6407 19.8306 36.8787 19.6091 36.9925 19.293L37.1117 18.9543H36.6463C36.5118 18.9543 36.4293 18.8699 36.3878 18.7435L34.8779 14.2016C34.8364 14.033 34.8674 13.875 35.095 13.875H36.1602C36.2845 13.875 36.3567 13.9802 36.3878 14.0962L37.4739 17.7214L38.4977 14.0962C38.5287 13.9802 38.6114 13.875 38.7665 13.875H39.7905C39.9767 13.875 40.0387 14.0119 39.9767 14.2016L38.3058 19.5037C38.0162 20.41 37.3958 21 36.4134 21C35.8237 21 35.2963 20.8 34.9551 20.4731Z" fill="#FD6400"/>
<path fill-rule="evenodd" clip-rule="evenodd" d="M31.941 17.9C32.6765 17.9 33.223 17.2721 33.223 16.5C33.223 15.7279 32.6765 15.1104 31.941 15.1104C31.2056 15.1104 30.6491 15.7279 30.6491 16.5C30.6491 17.2721 31.2056 17.9 31.941 17.9ZM31.7622 13.875C32.4379 13.875 32.9845 14.1943 33.223 14.6266V14.2354C33.223 14.1119 33.3223 14.0193 33.4217 14.0193H34.2963C34.4056 14.0193 34.495 14.1119 34.495 14.2354V18.7751C34.495 18.8883 34.4056 18.9809 34.2963 18.9809H33.4217C33.3124 18.9809 33.223 18.8883 33.223 18.7751V18.3736C32.9744 18.8059 32.428 19.125 31.7522 19.125C30.5001 19.125 29.3574 18.0854 29.3574 16.4898C29.3574 14.8941 30.5001 13.875 31.7622 13.875Z" fill="#FD6400"/>
<path fill-rule="evenodd" clip-rule="evenodd" d="M3.96971 21.7501H2.85613C2.22813 21.7501 1.71887 22.2411 1.71375 22.8483V21.9624C1.71375 21.8409 1.61955 21.75 1.50477 21.75H1.04041H0.576057C0.461275 21.75 0.367188 21.8409 0.367188 21.9624V26.4229C0.367188 26.534 0.460955 26.625 0.57563 26.625H1.04041H1.5052C1.61987 26.625 1.71364 26.534 1.71375 26.4229L1.71407 23.6614C1.71407 23.6546 1.71449 23.6478 1.71556 23.6412C1.76154 23.3387 1.89733 23.0632 2.11324 22.8474C2.4114 22.5495 2.82765 22.3855 3.28549 22.3855C3.31707 22.3855 3.34321 22.409 3.34566 22.4396C3.3479 22.4702 3.3256 22.4973 3.29445 22.5017C3.28795 22.5026 2.66102 22.5978 2.30152 23.0859C2.18119 23.2495 2.10396 23.4384 2.06929 23.6512H2.89421C3.5253 23.6512 4.03691 23.1554 4.03691 22.5438V21.8152C4.03691 21.7793 4.00683 21.7501 3.96971 21.7501Z" fill="#FD6400"/>
<path fill-rule="evenodd" clip-rule="evenodd" d="M26.2547 17.8684C25.4667 17.8684 24.8704 17.2242 24.8704 16.4318C24.8704 15.6397 25.4667 15.0062 26.2547 15.0062C27.0425 15.0062 27.628 15.6397 27.628 16.4318C27.628 17.2242 27.0425 17.8684 26.2547 17.8684ZM28.9647 12.1193C28.9571 12.1041 28.9477 12.0899 28.9372 12.0771C28.9318 12.0707 28.9272 12.0641 28.9215 12.0586C28.9054 12.0429 28.887 12.0306 28.8672 12.0214C28.8635 12.0195 28.8602 12.0175 28.8564 12.016C28.8412 12.01 28.8251 12.0068 28.8083 12.0062C28.798 12.0045 28.7887 12 28.7779 12H27.841C27.7355 12 27.6308 12.0933 27.6287 12.2182V12.4804C27.6285 12.4815 27.628 12.4821 27.628 12.4831L27.6175 14.4888C27.3618 14.066 26.7657 13.7389 26.0311 13.7389C24.7002 13.7389 23.4863 14.7951 23.4863 16.4214C23.4863 18.0585 24.7002 19.125 26.0525 19.125C26.7766 19.125 27.3299 18.7977 27.628 18.3543V18.7663C27.628 18.8822 27.7241 18.9773 27.8412 18.9773H28.7675C28.8955 18.9773 28.9909 18.8822 28.9909 18.7663V12.2211C28.9909 12.1955 28.9854 12.1695 28.976 12.1447C28.973 12.1357 28.9688 12.1277 28.9647 12.1193Z" fill="#FD6400"/>
</svg>
