<svg width="40" height="40" viewBox="0 0 40 40" fill="none" xmlns="http://www.w3.org/2000/svg">
<path d="M11.9773 12.5277C12.7507 12.2397 13.6115 12.2156 14.417 12.4768L22.8413 15.6973C23.2321 15.8467 23.6701 15.651 23.8195 15.2601C23.9689 14.8692 23.7731 14.4313 23.3822 14.2819L14.9212 11.0484C13.3263 10.5302 11.6205 10.7833 10.2851 11.7187C9.90295 11.9864 9.85122 12.5325 10.1763 12.8671C10.644 13.3486 11.3418 14.032 12.2148 14.8681L12.3459 14.9936C12.9588 15.5796 13.6161 16.2011 14.2739 16.8185C14.5041 17.0346 14.7179 17.2347 14.91 17.414C15.0253 17.5216 15.1076 17.5983 15.1519 17.6395C15.4583 17.9245 15.9377 17.907 16.2227 17.6006C16.5076 17.2942 16.4902 16.8148 16.1838 16.5299C16.1405 16.4896 16.0586 16.4133 15.944 16.3064C15.753 16.128 15.5401 15.9288 15.3109 15.7137C14.6562 15.0992 14.0023 14.4808 13.3931 13.8984L13.2629 13.7738C12.7748 13.3063 12.3425 12.8875 11.9773 12.5277Z" fill="#323232"/>
<path d="M16.4455 22.9161L14.5578 31.0293C14.4403 31.5343 14.8533 32.0054 15.3693 31.9551C17.317 31.765 19.0822 30.745 20.2036 29.16C20.766 28.3026 21.7529 26.832 23.0533 24.9094L23.1013 24.8384C23.833 23.7567 24.6164 22.6024 25.3992 21.4511C25.6732 21.0482 25.9276 20.6744 26.1558 20.3393C26.2117 20.2573 26.2543 20.1948 26.2874 20.1461L38.1016 16.8211C38.4871 16.7126 38.7216 16.3229 38.6369 15.9315C38.5352 15.4614 38.2882 14.7823 37.8327 14.0681C36.5767 12.0987 34.4888 11.1696 31.5664 11.9921L10.6896 17.8677C10.2869 17.9811 10.0522 18.3995 10.1656 18.8023C10.279 19.2051 10.6974 19.4397 11.1002 19.3263L31.9769 13.4507C34.2217 12.8189 35.6419 13.4508 36.5551 14.8828C36.6996 15.1094 36.8219 15.3442 36.923 15.5787L25.6114 18.7623C25.4399 18.8105 25.2909 18.9176 25.1906 19.0648C25.1383 19.1414 25.1383 19.1414 24.9034 19.4863C24.675 19.8218 24.4204 20.1958 24.1462 20.5991C23.3627 21.7513 22.5787 22.9066 21.8462 23.9894L21.7981 24.0605C20.4936 25.9891 19.504 27.4639 18.9514 28.3072C18.3084 29.2153 17.3714 29.8881 16.3004 30.2266L18.2118 22.0113C18.3424 21.45 17.8233 20.9542 17.2686 21.1103L14.1208 21.9962C13.7181 22.1096 13.4834 22.528 13.5968 22.9308C13.7102 23.3335 14.1286 23.5682 14.5314 23.4548L16.4455 22.9161Z" fill="#323232"/>
<path d="M2.33018 17.6526C1.81464 17.7977 1.60829 18.4173 1.93392 18.8425L6.40944 24.6869C6.45365 24.7446 6.50594 24.7957 6.5647 24.8385C7.13737 25.2559 7.87753 25.3731 8.55115 25.1531L11.9794 24.1441C12.5699 23.9703 12.7176 23.2022 12.2338 22.8218L5.75498 17.7277L5.6365 17.6512C4.95239 17.2951 4.22605 17.119 3.7498 17.253L2.33018 17.6526Z" fill="#E40000"/>
</svg>
