<svg width="40" height="40" viewBox="0 0 40 40" fill="none" xmlns="http://www.w3.org/2000/svg">
<path d="M15.3467 14.4216V12.0228C15.3467 11.245 16.5133 11.245 16.5133 12.0228V14.4216C16.5133 15.1993 15.3467 15.1993 15.3467 14.4216Z" fill="#323232"/>
<path d="M19.4661 28.4224C19.7883 28.4224 20.0494 28.6836 20.0494 29.0057C20.0494 29.3279 19.7883 29.5891 19.4661 29.5891H8.33329C7.04465 29.5891 6 28.5444 6 27.2557V13.8216C6 12.533 7.04465 11.4883 8.33329 11.4883L30.5249 11.5143C31.8125 11.5158 32.8555 12.5601 32.8555 13.8477V14.4533C32.8555 14.7755 32.5943 15.0366 32.2722 15.0366C31.95 15.0366 31.6888 14.7755 31.6888 14.4533V13.8477C31.6888 13.2039 31.1673 12.6817 30.5236 12.681L8.33466 12.6549C7.68897 12.6549 7.16665 13.1773 7.16665 13.8216V27.2557C7.16665 27.9001 7.68897 28.4224 8.33329 28.4224H19.4661Z" fill="#323232"/>
<path d="M10.6621 11.7061C10.9842 11.7061 11.2461 11.9669 11.2461 12.2891V30.7324C11.2461 31.0546 10.9843 31.3164 10.6621 31.3164C10.3401 31.3162 10.0791 31.0545 10.0791 30.7324V12.2891C10.0791 11.9671 10.3402 11.7063 10.6621 11.7061ZM21.6104 8C22.6546 8 23.5057 8.8364 23.5059 9.87305V12.0234C23.5057 12.3455 23.2439 12.6064 22.9219 12.6064C22.6 12.6063 22.339 12.3454 22.3389 12.0234V9.87305C22.3387 9.48508 22.0145 9.16699 21.6104 9.16699H17.2393C16.8353 9.16718 16.5118 9.48519 16.5117 9.87305V12.0234C16.5116 12.3453 16.2506 12.6062 15.9287 12.6064C15.6066 12.6064 15.3449 12.3455 15.3447 12.0234V9.87305C15.3448 8.83652 16.1952 8.00019 17.2393 8H21.6104Z" fill="#323232"/>
<path d="M17.6688 24.2889H14.1392C13.831 24.2889 13.5811 24.039 13.5811 23.7307V18.4363C13.5811 18.2882 13.6399 18.1463 13.7445 18.0416L15.5093 16.2768C15.7273 16.0588 16.0807 16.0588 16.2987 16.2768L18.0635 18.0416C18.1682 18.1463 18.227 18.2882 18.227 18.4363V23.7307C18.227 24.039 17.9771 24.2889 17.6688 24.2889Z" fill="#E40000"/>
<path d="M22.917 29.583C22.9173 28.8057 24.0837 28.8057 24.084 29.583V30.75C24.084 31.5278 22.917 31.5278 22.917 30.75V29.583ZM30.5 29.583C30.5003 28.8057 31.6667 28.8057 31.667 29.583V30.75C31.667 31.5278 30.5 31.5278 30.5 30.75V29.583Z" fill="#323232"/>
<path d="M22.333 26.666L32.8328 26.6702V28.9996H22.333V26.666Z" fill="#8DE2E0"/>
<path d="M31.6709 16.7656C32.9578 16.768 34 17.8117 34 19.0986V27.832C33.9997 29.1204 32.9553 30.1649 31.667 30.165H23.5C22.2116 30.1649 21.1673 29.1204 21.167 27.832V19.083C21.1672 17.7946 22.2115 16.7501 23.5 16.75H23.5049L31.6709 16.7656ZM23.5029 17.917C22.8564 17.917 22.334 18.4397 22.334 19.084V27.832C22.334 28.4764 22.8567 28.999 23.501 28.999H31.667C32.3113 28.999 32.834 28.4764 32.834 27.832V19.0986C32.8337 18.4554 32.3123 17.9338 31.6689 17.9326L23.5029 17.917Z" fill="#323232"/>
<path d="M26.4176 17.3327C26.4176 17.6548 26.1565 17.916 25.8343 17.916C25.5121 17.916 25.251 17.6548 25.251 17.3327V15.6586C25.251 14.8764 25.7747 14.416 26.4905 14.416H28.678C29.3939 14.416 29.9176 14.8764 29.9176 15.6586V17.3327C29.9176 17.6548 29.6564 17.916 29.3342 17.916C29.0121 17.916 28.7509 17.6548 28.7509 17.3327V15.6586C28.7509 15.5566 28.7806 15.5827 28.678 15.5827H26.4905C26.3879 15.5827 26.4176 15.5566 26.4176 15.6586V17.3327Z" fill="#323232"/>
</svg>
