<svg width="40" height="40" viewBox="0 0 40 40" fill="none" xmlns="http://www.w3.org/2000/svg">
<path d="M10.3486 30.4102C10.3489 29.5819 11.5915 29.5819 11.5918 30.4102V32.2227C11.5918 33.0512 10.3486 33.0512 10.3486 32.2227V30.4102ZM28.9932 30.4102C28.9934 29.5819 30.2351 29.5819 30.2354 30.4102V32.2227C30.2354 33.0512 28.9932 33.0512 28.9932 32.2227V30.4102ZM15.957 12.2861C15.9574 11.458 17.1989 11.458 17.1992 12.2861V14.8418C17.1992 15.6704 15.957 15.6704 15.957 14.8418V12.2861Z" fill="#323232"/>
<path d="M18.4319 25.3532H14.6718C14.3434 25.3532 14.0771 25.087 14.0771 24.7586V19.1183C14.0771 18.9606 14.1398 18.8093 14.2513 18.6978L16.1314 16.8177C16.3636 16.5855 16.7401 16.5855 16.9723 16.8177L18.8524 18.6978C18.9639 18.8093 19.0266 18.9606 19.0266 19.1183V24.7586C19.0266 25.087 18.7603 25.3532 18.4319 25.3532Z" fill="#E40000"/>
<path d="M32.127 11.7441C33.4986 11.7458 34.6094 12.8588 34.6094 14.2305V28.5137C34.6094 29.8865 33.4968 31 32.124 31H8.48535C7.1127 30.9998 6 29.8864 6 28.5137V14.2021C6.00021 12.8296 7.11283 11.717 8.48535 11.7168L32.127 11.7441ZM8.4873 12.958C7.79948 12.958 7.24323 13.5148 7.24316 14.2012V28.5127C7.24316 29.1991 7.79903 29.7558 8.48535 29.7559H32.124C32.8103 29.7557 33.3662 29.199 33.3662 28.5127V14.2295C33.3662 13.5436 32.8108 12.9871 32.125 12.9863L8.4873 12.958Z" fill="#323232"/>
<path d="M10.9668 11.9648C11.3098 11.965 11.5877 12.2298 11.5879 12.5566V30.0156C11.5879 30.3426 11.3099 30.6073 10.9668 30.6074C10.6236 30.6074 10.3447 30.3427 10.3447 30.0156V12.5566C10.3449 12.2298 10.6237 11.9648 10.9668 11.9648ZM29.627 11.9648C29.9699 11.965 30.2479 12.2299 30.248 12.5566V30.0156C30.248 30.3425 29.97 30.6073 29.627 30.6074C29.2837 30.6074 29.0049 30.3427 29.0049 30.0156V12.5566C29.0051 12.2298 29.2839 11.9648 29.627 11.9648ZM22.6318 8C23.7443 8.00004 24.6504 8.89166 24.6504 9.99609V12.2861C24.6503 12.6292 24.3715 12.9072 24.0283 12.9072C23.6854 12.907 23.4073 12.6291 23.4072 12.2861V9.99609C23.4072 9.5827 23.0624 9.24321 22.6318 9.24316H17.9746C17.5442 9.24337 17.1992 9.5828 17.1992 9.99609V12.2861C17.1991 12.6292 16.9212 12.9071 16.5781 12.9072C16.235 12.9072 15.9571 12.6292 15.957 12.2861V9.99609C15.957 8.89176 16.8623 8.00021 17.9746 8H22.6318Z" fill="#323232"/>
</svg>
