<svg width="40" height="40" viewBox="0 0 40 40" fill="none" xmlns="http://www.w3.org/2000/svg">
<path d="M9.17377 17.0138L8.30305 15.2221C7.85883 13.8352 8.201 12.9336 9.32956 12.5172C10.4581 12.1009 16.0325 10.1069 26.0527 6.53534C27.0882 6.05232 27.9958 6.59644 28.7753 8.16772C28.9585 8.53686 29.3991 9.56781 29.3991 9.56781C30.0644 9.29412 23.3227 11.7761 9.17377 17.0138Z" fill="#8DE2E0"/>
<path d="M8.94789 17.6233C8.64256 17.7339 8.30519 17.5756 8.19436 17.2696C8.08353 16.9637 8.2412 16.626 8.54653 16.5154L29.0616 9.08213C29.367 8.9715 29.7683 10.0794 29.463 10.19L8.94789 17.6233Z" fill="#2A2B29"/>
<path d="M25.9156 14.2647L28.1227 13.4517C28.4286 13.339 28.5852 12.9997 28.4726 12.6938C28.3599 12.388 28.0206 12.2313 27.7148 12.344L25.5077 13.157C25.2018 13.2697 25.0452 13.609 25.1579 13.9149C25.2705 14.2207 25.6098 14.3774 25.9156 14.2647Z" fill="#2A2B29"/>
<path d="M5 19.3525C5.00024 18.0217 6.07941 16.9434 7.41016 16.9434H27.7949C29.1256 16.9435 30.2039 18.0218 30.2041 19.3525V31.7217C30.2041 33.0526 29.1257 34.1317 27.7949 34.1318H7.41016C6.07927 34.1318 5.00001 33.0527 5 31.7217L5 19.3525ZM6.22852 31.7197C6.22852 32.3716 6.75731 32.9004 7.40918 32.9004H27.7939C28.4458 32.9003 28.9746 32.3716 28.9746 31.7197V19.3516C28.9746 18.6997 28.4458 18.171 27.7939 18.1709H7.40918C6.75731 18.1709 6.22852 18.6996 6.22852 19.3516L6.22852 31.7197Z" fill="#2A2B29"/>
<path d="M9.16943 30.4444H13.2855C13.6251 30.4444 13.9003 30.1692 13.9003 29.8296C13.9003 29.4901 13.6251 29.2148 13.2855 29.2148H9.16943C8.82992 29.2148 8.55469 29.4901 8.55469 29.8296C8.55469 30.1692 8.82992 30.4444 9.16943 30.4444Z" fill="#2A2B29"/>
<path d="M9.16845 21.8409H13.2846C13.6241 21.8409 13.8993 21.5657 13.8993 21.2261C13.8993 20.8866 13.6241 20.6113 13.2846 20.6113H9.16845C8.82894 20.6113 8.55371 20.8866 8.55371 21.2261C8.55371 21.5657 8.82894 21.8409 9.16845 21.8409Z" fill="#2A2B29"/>
<path d="M9.32861 26.1397H10.4556C10.7952 26.1397 11.0704 25.8645 11.0704 25.525C11.0704 25.1854 10.7952 24.9102 10.4556 24.9102H9.32861C8.9891 24.9102 8.71387 25.1854 8.71387 25.525C8.71387 25.8645 8.9891 26.1397 9.32861 26.1397Z" fill="#2A2B29"/>
<path d="M13.2866 26.1397H14.4006C14.7401 26.1397 15.0154 25.8645 15.0154 25.525C15.0154 25.1854 14.7401 24.9102 14.4006 24.9102H13.2866C12.9471 24.9102 12.6719 25.1854 12.6719 25.525C12.6719 25.8645 12.9471 26.1397 13.2866 26.1397Z" fill="#2A2B29"/>
<path d="M17.2192 26.1397H18.3463C18.6858 26.1397 18.961 25.8645 18.961 25.525C18.961 25.1854 18.6858 24.9102 18.3463 24.9102H17.2192C16.8797 24.9102 16.6045 25.1854 16.6045 25.525C16.6045 25.8645 16.8797 26.1397 17.2192 26.1397Z" fill="#2A2B29"/>
<path d="M21.1636 26.1397H22.2906C22.6301 26.1397 22.9053 25.8645 22.9053 25.525C22.9053 25.1854 22.6301 24.9102 22.2906 24.9102H21.1636C20.8241 24.9102 20.5488 25.1854 20.5488 25.525C20.5488 25.8645 20.8241 26.1397 21.1636 26.1397Z" fill="#2A2B29"/>
<ellipse cx="22.6967" cy="29.3691" rx="1.76405" ry="1.76754" fill="#E40000"/>
<ellipse cx="25.6371" cy="29.3691" rx="1.76405" ry="1.76754" fill="#E40000"/>
<path d="M24.4611 28.1895C24.8239 28.4889 25.0491 28.9062 25.0491 29.3678C25.0491 29.8294 24.8239 30.2467 24.4611 30.5462C24.0982 30.2467 23.873 29.8294 23.873 29.3678C23.873 28.9062 24.0982 28.4889 24.4611 28.1895Z" fill="#E40000"/>
<path d="M9.3393 16.9291L8.61367 15.035C8.38582 14.4403 8.68223 13.7732 9.27499 13.5452L26.2927 6.99979C26.8849 6.77202 27.5495 7.06847 27.7771 7.66264L31.9916 18.6636C32.2195 19.2583 31.923 19.9254 31.3303 20.1534L29.328 20.9235L29.7694 22.0711L31.7716 21.301C32.9979 20.8293 33.6101 19.4516 33.1397 18.2237L28.9252 7.22272C28.4545 5.9942 27.0783 5.38025 25.8514 5.85215L8.83366 12.3976C7.60733 12.8693 6.99513 14.247 7.46557 15.4749L8.19119 17.369L9.3393 16.9291Z" fill="#2A2B29"/>
</svg>
