<svg width="40" height="40" viewBox="0 0 40 40" fill="none" xmlns="http://www.w3.org/2000/svg">
<path d="M30.1239 22.1514C30.3161 21.8545 30.7127 21.7699 31.0097 21.9619C31.3067 22.154 31.3923 22.5506 31.2001 22.8477C29.0349 26.1941 25.4704 29.586 20.5458 33.0615C20.3243 33.2178 20.028 33.2178 19.8065 33.0615C14.8844 29.5877 11.3207 26.1973 9.15517 22.8525C8.9632 22.5556 9.0487 22.1589 9.3456 21.9668C9.6425 21.7749 10.0391 21.8596 10.2313 22.1562C12.2421 25.2619 15.568 28.4584 20.1757 31.7529C24.7858 28.4566 28.1135 25.2586 30.1239 22.1514ZM26.6229 8C30.5861 8.06248 33.7485 11.3248 33.6874 15.2773C33.6874 16.735 33.4017 18.2007 32.8378 19.6729C32.7112 20.0032 32.341 20.1685 32.0106 20.042C31.6803 19.9155 31.515 19.5452 31.6415 19.2148C32.1508 17.8853 32.4061 16.5741 32.4061 15.2676C32.4564 12.0124 29.8586 9.3326 26.6161 9.28125C24.0294 9.29377 21.7133 10.8862 20.7763 13.2969C20.5646 13.8416 19.7936 13.8416 19.5819 13.2969C18.645 10.8861 16.3284 9.29385 13.7548 9.28125C10.4991 9.33268 7.9007 12.0123 7.95107 15.2773C7.95107 16.5969 8.2157 17.9315 8.74306 19.2852C8.87149 19.6148 8.70848 19.9868 8.3788 20.1152C8.04935 20.2433 7.67822 20.0802 7.5497 19.751C6.96593 18.2527 6.67072 16.7605 6.67079 15.2871C6.60963 11.3247 9.77162 8.06257 13.7479 8C16.4056 8.01287 18.8258 9.41181 20.1786 11.626C21.5316 9.41167 23.9539 8.01281 26.6229 8Z" fill="#323232"/>
<path d="M18.1128 18.134L16.4409 20.5012H5.64062C5.28682 20.5012 5 20.2144 5 19.8607C5 19.5069 5.28682 19.2202 5.64062 19.2202H15.7772L18.373 15.5449L21.3893 22.397L23.377 19.2202H34.6594C35.0132 19.2202 35.3 19.5069 35.3 19.8607C35.3 20.2144 35.0132 20.5012 34.6594 20.5012H24.0868L21.1917 25.1282L18.1128 18.134Z" fill="#E40000"/>
</svg>
