<svg width="40" height="40" viewBox="0 0 40 40" fill="none" xmlns="http://www.w3.org/2000/svg">
<path d="M20.1935 32.6396C20.1871 32.6396 20.1804 32.6388 20.174 32.6387H20.2131C20.2066 32.6388 20.2001 32.6396 20.1935 32.6396ZM19.4309 31.8779C19.4309 32.2924 19.762 32.6284 20.174 32.6387H16.1769C15.7562 32.6387 15.4145 32.2977 15.4143 31.877C15.4143 31.4561 15.756 31.1143 16.1769 31.1143H19.4309V31.8779ZM24.215 31.1143C24.6359 31.1143 24.9768 31.4561 24.9768 31.877C24.9765 32.2977 24.6358 32.6387 24.215 32.6387H20.2131C20.6248 32.6282 20.9553 32.2922 20.9553 31.8779V31.1143H24.215ZM20.1935 21.9121C20.6143 21.9122 20.9553 22.254 20.9553 22.6748V31.1143H19.4309V22.6748C19.4309 22.2539 19.7726 21.9121 20.1935 21.9121ZM25.8225 7C26.2024 7.00016 26.5246 7.28003 26.5773 7.65625C26.5838 7.70237 26.595 7.78829 26.6115 7.91016C26.6391 8.11301 26.6703 8.34315 26.7033 8.5957C26.7976 9.31712 26.8916 10.076 26.9797 10.8369C27.036 11.3236 27.0882 11.796 27.135 12.249C27.206 12.9385 27.2638 13.5717 27.3059 14.1357C27.3371 14.5553 27.0222 14.9206 26.6027 14.9521C26.183 14.9835 25.8167 14.6687 25.7853 14.249C25.7444 13.7008 25.688 13.0822 25.6184 12.4062C25.5723 11.9597 25.5207 11.4925 25.465 11.0117C25.3779 10.259 25.285 9.50726 25.1916 8.79297C25.1795 8.70028 25.1679 8.61067 25.1564 8.52441H15.2346C15.2231 8.61071 15.2106 8.70024 15.1984 8.79297C15.105 9.50728 15.0121 10.259 14.925 11.0117C14.8693 11.4925 14.8177 11.9597 14.7717 12.4062C14.702 13.0822 14.6456 13.7008 14.6047 14.249C14.5734 14.6687 14.2079 14.9834 13.7883 14.9521C13.3686 14.9208 13.0539 14.5554 13.0852 14.1357C13.1272 13.5717 13.185 12.9385 13.256 12.249C13.3028 11.796 13.354 11.3236 13.4103 10.8369C13.4984 10.076 13.5934 9.31713 13.6877 8.5957C13.7207 8.34316 13.751 8.113 13.7785 7.91016C13.7951 7.78826 13.8072 7.70237 13.8137 7.65625C13.8664 7.27997 14.1885 7 14.5685 7H25.8225Z" fill="#323232"/>
<path d="M13.0821 14.1411C13.1101 13.7211 13.4732 13.4034 13.8932 13.4314C14.3132 13.4594 14.631 13.8225 14.603 14.2425C14.5375 15.2247 14.5243 15.4625 14.5243 15.7994C14.5243 18.5025 16.9992 21.4675 20.2733 21.4675C23.5213 21.4675 25.8616 18.5565 25.8616 15.7994C25.8616 15.4625 25.8484 15.2247 25.7829 14.2425C25.7549 13.8225 26.0726 13.4594 26.4926 13.4314C26.9126 13.4034 27.2758 13.7211 27.3038 14.1411C27.3722 15.1684 27.3858 15.4128 27.3858 15.7994C27.3858 19.334 24.4454 22.9917 20.2733 22.9917C16.0902 22.9917 13 19.2894 13 15.7994C13 15.4128 13.0136 15.1684 13.0821 14.1411Z" fill="#323232"/>
<path d="M15.9598 14.4219C15.933 14.8237 15.9062 15.4961 15.9062 15.7907C15.9062 17.398 17.3797 20.0767 20.2462 20.0767C23.1127 20.0767 24.479 17.398 24.479 15.7907C24.479 15.4961 24.4522 14.8237 24.4254 14.4219H15.9598Z" fill="#E40000"/>
</svg>
