<svg width="40" height="40" viewBox="0 0 40 40" fill="none" xmlns="http://www.w3.org/2000/svg">
<path d="M25.8164 8.90332H29.4255V14.7658L25.6133 11.8346L25.8164 8.90332Z" fill="#8DE2E0"/>
<path d="M20.3198 8.44834L8.0318 18.2788C7.75792 18.4979 7.35829 18.4535 7.13918 18.1797C6.92008 17.9058 6.96449 17.5061 7.23836 17.287L19.9231 7.13916C20.155 6.95361 20.4846 6.95361 20.7165 7.13916L33.4013 17.287C33.6752 17.5061 33.7196 17.9058 33.5005 18.1797C33.2814 18.4535 32.8817 18.4979 32.6078 18.2788L20.3198 8.44834Z" fill="#323232"/>
<rect x="17.5781" y="21.5986" width="5.71553" height="7.62925" rx="1.5" fill="#E40000"/>
<path d="M26.4511 12.0516C26.4511 12.4023 26.1668 12.6866 25.8161 12.6866C25.4653 12.6866 25.181 12.4023 25.181 12.0516V8.90362C25.181 8.55288 25.4653 8.26855 25.8161 8.26855H29.6215C29.9722 8.26855 30.2566 8.55288 30.2566 8.90362V31.7676C30.2566 32.1183 29.9722 32.4027 29.6215 32.4027H11.2093C10.8585 32.4027 10.5742 32.1183 10.5742 31.7676V15.0769C10.5742 14.7262 10.8585 14.4418 11.2093 14.4418C11.56 14.4418 11.8443 14.7262 11.8443 15.0769V31.1325H28.9864V9.53868H26.4511V12.0516Z" fill="#323232"/>
</svg>
