<svg width="40" height="40" viewBox="0 0 40 40" fill="none" xmlns="http://www.w3.org/2000/svg">
<path d="M9.25781 32.0563V30.1699H29.6574V32.0563H9.25781Z" fill="#8DE2E0"/>
<path d="M28.9906 31.5319L28.3979 21.3972C28.3776 21.0505 28.6422 20.753 28.9889 20.7328C29.3356 20.7125 29.6331 20.9771 29.6534 21.3238L30.2851 32.124C30.3062 32.4851 30.019 32.7895 29.6573 32.7895H8.62886C8.2693 32.7895 7.98294 32.4886 8.00079 32.1295L8.87698 14.5048C8.89362 14.1701 9.16988 13.9072 9.50504 13.9072H25.5855C25.9328 13.9072 26.2144 14.1888 26.2144 14.536C26.2144 14.8833 25.9328 15.1648 25.5855 15.1648H10.1034L9.28974 31.5319H28.9906Z" fill="#323232"/>
<path d="M30.8768 13.5205C31.0471 13.5205 31.2105 13.5881 31.331 13.7083L36.1243 18.4903C36.376 18.7414 36.3762 19.149 36.1248 19.4003L33.5533 21.9717C33.3024 22.2227 32.8955 22.2229 32.6443 21.9722L27.851 17.1903C27.7301 17.0696 27.6621 16.9058 27.6621 16.735V14.1636C27.6621 13.8084 27.95 13.5205 28.3052 13.5205H30.8768Z" fill="#E40000"/>
<path d="M24.9863 25.8594C25.3334 25.8596 25.6143 26.1412 25.6143 26.4883C25.6141 26.8353 25.3333 27.1169 24.9863 27.1172H13.8428C13.4956 27.1172 13.214 26.8354 13.2139 26.4883C13.2139 26.141 13.4955 25.8594 13.8428 25.8594H24.9863ZM24.9854 21.46C25.3327 21.46 25.6143 21.7416 25.6143 22.0889C25.6142 22.4361 25.3326 22.7178 24.9854 22.7178H13.8428C13.4955 22.7178 13.2139 22.4361 13.2139 22.0889C13.2139 21.7416 13.4955 21.46 13.8428 21.46H24.9854Z" fill="#323232"/>
<path d="M15.5594 18.1425C15.5594 18.4898 15.2779 18.7713 14.9306 18.7713C14.5833 18.7713 14.3018 18.4898 14.3018 18.1425V12.0095C14.3018 9.24243 16.5507 7 19.324 7C20.6556 7 21.9327 7.52749 22.8746 8.46662C23.8167 9.40609 24.3462 10.6805 24.3462 12.0095V18.1425C24.3462 18.4898 24.0646 18.7713 23.7173 18.7713C23.37 18.7713 23.0885 18.4898 23.0885 18.1425V12.0095C23.0885 11.0148 22.6922 10.0608 21.9865 9.35715C21.2805 8.65319 20.3227 8.25762 19.324 8.25762C17.2445 8.25762 15.5594 9.93779 15.5594 12.0095V18.1425Z" fill="#323232"/>
</svg>
