<svg width="28" height="28" viewBox="0 0 28 28" fill="none" xmlns="http://www.w3.org/2000/svg">
<path fill-rule="evenodd" clip-rule="evenodd" d="M8.65443 22.5302H25.6654L12.0283 8.74512C10.2138 6.91852 7.74718 5.83398 5.18136 5.83398H2.33203L2.54467 6.39052L3.49445 8.88782L8.65443 22.5302Z" fill="url(#paint0_linear_2171_22692)"/>
<path fill-rule="evenodd" clip-rule="evenodd" d="M10.7753 17.3195C10.8036 17.5178 10.9594 17.6878 11.1577 17.7161C13.9762 18.1551 16.7096 19.3164 19.089 21.2283C19.1032 21.2425 19.1174 21.2425 19.1457 21.2425C19.1599 21.2425 19.1882 21.2284 19.2024 21.2142C19.2307 21.1859 19.2307 21.1292 19.2024 21.1009C17.5594 19.3731 15.5341 17.9852 13.2822 17.0788L12.5882 16.7955C12.2341 16.6539 11.9933 16.2998 11.9933 15.9033C12.0358 14.4304 15.5199 14.7278 15.874 14.0197L15.9307 13.8922C15.2084 13.2833 14.3586 12.8159 13.4238 12.561C13.4096 12.6035 13.3955 12.7734 13.5796 13.085C13.792 13.4249 13.353 13.963 12.7156 13.3824L12.659 13.3399C7.95684 9.00621 4.41641 11.2503 2.54688 6.39258L3.49542 8.86944C5.35079 12.0418 10.2371 12.3769 10.7753 17.3195Z" fill="white"/>
<path fill-rule="evenodd" clip-rule="evenodd" d="M13.5774 13.0781C13.6472 13.1898 13.6469 13.3349 13.5898 13.4463C13.531 13.561 13.412 13.6404 13.2539 13.6404V14.7989C13.7638 14.6572 14.3445 14.5581 14.826 14.459V13.8075C14.826 13.8075 14.0448 13.8571 13.5774 13.0781Z" fill="url(#paint1_linear_2171_22692)"/>
<path fill-rule="evenodd" clip-rule="evenodd" d="M11.7227 17.8153C14.3287 18.311 16.8639 19.444 19.0733 21.2143C14.1304 17.008 11.8926 17.7586 11.7227 17.8153Z" fill="url(#paint2_linear_2171_22692)"/>
<path fill-rule="evenodd" clip-rule="evenodd" d="M2.54688 6.40039L3.49581 8.87881C5.35118 12.0512 10.2375 12.3911 10.7757 17.3338C10.2233 11.0173 7.46149 11.952 4.48723 9.09124C3.72242 8.53891 3.07091 7.74582 2.54688 6.40039Z" fill="url(#paint3_linear_2171_22692)"/>
<defs>
<linearGradient id="paint0_linear_2171_22692" x1="17.1155" y1="18.4245" x2="9.55479" y2="7.30876" gradientUnits="userSpaceOnUse">
<stop stop-color="#BE0000"/>
<stop offset="0.3898" stop-color="#DE0000"/>
<stop offset="0.768" stop-color="#F60000"/>
<stop offset="1" stop-color="#FF0000"/>
</linearGradient>
<linearGradient id="paint1_linear_2171_22692" x1="14.1171" y1="13.9385" x2="14.1171" y2="13.2161" gradientUnits="userSpaceOnUse">
<stop stop-color="white" stop-opacity="0"/>
<stop offset="0.512031" stop-color="#E0E0E0" stop-opacity="0.2617"/>
<stop offset="0.665486" stop-color="#C5C5C5" stop-opacity="0.5493"/>
<stop offset="0.824155" stop-color="#B5B5B5" stop-opacity="0.8047"/>
<stop offset="1" stop-color="#AFAFAF"/>
</linearGradient>
<linearGradient id="paint2_linear_2171_22692" x1="11.7255" y1="19.4774" x2="18.3418" y2="19.4774" gradientUnits="userSpaceOnUse">
<stop stop-color="white" stop-opacity="0"/>
<stop offset="0.0839079" stop-color="#F1F1F1" stop-opacity="0.093231"/>
<stop offset="0.248265" stop-color="#D4D4D4" stop-opacity="0.3246"/>
<stop offset="0.445315" stop-color="#C0C0C0" stop-opacity="0.5548"/>
<stop offset="0.7032" stop-color="#B3B3B3" stop-opacity="0.7814"/>
<stop offset="1" stop-color="#AFAFAF"/>
</linearGradient>
<linearGradient id="paint3_linear_2171_22692" x1="4.60046" y1="11.8535" x2="10.7637" y2="11.8535" gradientUnits="userSpaceOnUse">
<stop stop-color="white" stop-opacity="0"/>
<stop offset="0.285827" stop-color="#EDEDED" stop-opacity="0.282"/>
<stop offset="0.886" stop-color="#BDBDBD" stop-opacity="0.848"/>
<stop offset="1" stop-color="#AFAFAF"/>
</linearGradient>
</defs>
</svg>
