<svg width="48" height="48" viewBox="0 0 48 48" fill="none" xmlns="http://www.w3.org/2000/svg">
<path d="M34.1239 25.1514C34.3161 24.8545 34.7127 24.7699 35.0097 24.9619C35.3067 25.154 35.3923 25.5506 35.2001 25.8477C33.0349 29.1941 29.4704 32.586 24.5458 36.0615C24.3243 36.2178 24.028 36.2178 23.8065 36.0615C18.8844 32.5877 15.3207 29.1973 13.1552 25.8525C12.9632 25.5556 13.0487 25.1589 13.3456 24.9668C13.6425 24.7749 14.0391 24.8596 14.2313 25.1562C16.2421 28.2619 19.568 31.4584 24.1757 34.7529C28.7858 31.4566 32.1135 28.2586 34.1239 25.1514ZM30.6229 11C34.5861 11.0625 37.7485 14.3248 37.6874 18.2773C37.6874 19.735 37.4017 21.2007 36.8378 22.6729C36.7112 23.0032 36.341 23.1685 36.0106 23.042C35.6803 22.9155 35.515 22.5452 35.6415 22.2148C36.1508 20.8853 36.4061 19.5741 36.4061 18.2676C36.4564 15.0124 33.8586 12.3326 30.6161 12.2812C28.0294 12.2938 25.7133 13.8862 24.7763 16.2969C24.5646 16.8416 23.7936 16.8416 23.5819 16.2969C22.645 13.8861 20.3284 12.2938 17.7548 12.2812C14.4991 12.3327 11.9007 15.0123 11.9511 18.2773C11.9511 19.5969 12.2157 20.9315 12.7431 22.2852C12.8715 22.6148 12.7085 22.9868 12.3788 23.1152C12.0494 23.2433 11.6782 23.0802 11.5497 22.751C10.9659 21.2527 10.6707 19.7605 10.6708 18.2871C10.6096 14.3247 13.7716 11.0626 17.7479 11C20.4056 11.0129 22.8258 12.4118 24.1786 14.626C25.5316 12.4117 27.9539 11.0128 30.6229 11Z" fill="#323232"/>
<path d="M22.1128 21.134L20.4409 23.5012H9.64062C9.28682 23.5012 9 23.2144 9 22.8607C9 22.5069 9.28682 22.2202 9.64062 22.2202H19.7772L22.373 18.5449L25.3893 25.397L27.377 22.2202H38.6594C39.0132 22.2202 39.3 22.5069 39.3 22.8607C39.3 23.2144 39.0132 23.5012 38.6594 23.5012H28.0868L25.1917 28.1282L22.1128 21.134Z" fill="#E40000"/>
</svg>
