<svg width="52" height="48" viewBox="0 0 52 48" fill="none" xmlns="http://www.w3.org/2000/svg">
<path d="M7.22727 17.2727H8.38636L9.35795 18.5511L9.61364 18.892L11.0625 20.8182H9.90341L8.94886 19.5398L8.71023 19.2159L7.22727 17.2727ZM11.4205 15.6364C11.4205 16.5568 11.2543 17.3523 10.9219 18.0227C10.5895 18.6932 10.1335 19.2102 9.55398 19.5739C8.97443 19.9375 8.3125 20.1193 7.56818 20.1193C6.82386 20.1193 6.16193 19.9375 5.58239 19.5739C5.00284 19.2102 4.54688 18.6932 4.21449 18.0227C3.8821 17.3523 3.71591 16.5568 3.71591 15.6364C3.71591 14.7159 3.8821 13.9205 4.21449 13.25C4.54688 12.5795 5.00284 12.0625 5.58239 11.6989C6.16193 11.3352 6.82386 11.1534 7.56818 11.1534C8.3125 11.1534 8.97443 11.3352 9.55398 11.6989C10.1335 12.0625 10.5895 12.5795 10.9219 13.25C11.2543 13.9205 11.4205 14.7159 11.4205 15.6364ZM10.3977 15.6364C10.3977 14.8807 10.2713 14.2429 10.0185 13.723C9.76847 13.2031 9.42898 12.8097 9 12.5426C8.57386 12.2756 8.09659 12.142 7.56818 12.142C7.03977 12.142 6.56108 12.2756 6.1321 12.5426C5.70597 12.8097 5.36648 13.2031 5.11364 13.723C4.86364 14.2429 4.73864 14.8807 4.73864 15.6364C4.73864 16.392 4.86364 17.0298 5.11364 17.5497C5.36648 18.0696 5.70597 18.4631 6.1321 18.7301C6.56108 18.9972 7.03977 19.1307 7.56818 19.1307C8.09659 19.1307 8.57386 18.9972 9 18.7301C9.42898 18.4631 9.76847 18.0696 10.0185 17.5497C10.2713 17.0298 10.3977 16.392 10.3977 15.6364ZM14.9872 20.1534C14.5724 20.1534 14.196 20.0753 13.858 19.919C13.5199 19.7599 13.2514 19.5312 13.0526 19.233C12.8537 18.9318 12.7543 18.5682 12.7543 18.142C12.7543 17.767 12.8281 17.4631 12.9759 17.2301C13.1236 16.9943 13.321 16.8097 13.5682 16.6761C13.8153 16.5426 14.0881 16.4432 14.3864 16.3778C14.6875 16.3097 14.9901 16.2557 15.294 16.2159C15.6918 16.1648 16.0142 16.1264 16.2614 16.1009C16.5114 16.0724 16.6932 16.0256 16.8068 15.9602C16.9233 15.8949 16.9815 15.7812 16.9815 15.6193V15.5852C16.9815 15.1648 16.8665 14.8381 16.6364 14.6051C16.4091 14.3722 16.0639 14.2557 15.6009 14.2557C15.1207 14.2557 14.7443 14.3608 14.4716 14.571C14.1989 14.7812 14.0071 15.0057 13.8963 15.2443L12.9418 14.9034C13.1122 14.5057 13.3395 14.196 13.6236 13.9744C13.9105 13.75 14.223 13.5937 14.5611 13.5057C14.902 13.4148 15.2372 13.3693 15.5668 13.3693C15.777 13.3693 16.0185 13.3949 16.2912 13.446C16.5668 13.4943 16.8324 13.5952 17.0881 13.7486C17.3466 13.902 17.5611 14.1335 17.7315 14.4432C17.902 14.7528 17.9872 15.1676 17.9872 15.6875V20H16.9815V19.1136H16.9304C16.8622 19.2557 16.7486 19.4077 16.5895 19.5696C16.4304 19.7315 16.2188 19.8693 15.9545 19.983C15.6903 20.0966 15.3679 20.1534 14.9872 20.1534ZM15.1406 19.25C15.5384 19.25 15.8736 19.1719 16.1463 19.0156C16.4219 18.8594 16.6293 18.6577 16.7685 18.4105C16.9105 18.1634 16.9815 17.9034 16.9815 17.6307V16.7102C16.9389 16.7614 16.8452 16.8082 16.7003 16.8509C16.5582 16.8906 16.3935 16.9261 16.206 16.9574C16.0213 16.9858 15.8409 17.0114 15.6648 17.0341C15.4915 17.054 15.3509 17.071 15.2429 17.0852C14.9815 17.1193 14.7372 17.1747 14.5099 17.2514C14.2855 17.3253 14.1037 17.4375 13.9645 17.5881C13.8281 17.7358 13.7599 17.9375 13.7599 18.1932C13.7599 18.5426 13.8892 18.8068 14.1477 18.9858C14.4091 19.1619 14.7401 19.25 15.1406 19.25ZM20.8285 16.0625V20H19.8228V13.4545H20.7944V14.4773H20.8796C21.033 14.1449 21.266 13.8778 21.5785 13.6761C21.891 13.4716 22.2944 13.3693 22.7887 13.3693C23.2319 13.3693 23.6197 13.4602 23.9521 13.642C24.2844 13.821 24.543 14.0938 24.7276 14.4602C24.9123 14.8239 25.0046 15.2841 25.0046 15.8409V20H23.9989V15.9091C23.9989 15.3949 23.8654 14.9943 23.5984 14.7074C23.3313 14.4176 22.9648 14.2727 22.4989 14.2727C22.1779 14.2727 21.891 14.3423 21.6381 14.4815C21.3881 14.6207 21.1907 14.8239 21.0458 15.0909C20.9009 15.358 20.8285 15.6818 20.8285 16.0625ZM29.6889 13.4545V14.3068H26.2969V13.4545H29.6889ZM27.2855 11.8864H28.2912V18.125C28.2912 18.4091 28.3324 18.6222 28.4148 18.7642C28.5 18.9034 28.608 18.9972 28.7386 19.0455C28.8722 19.0909 29.0128 19.1136 29.1605 19.1136C29.2713 19.1136 29.3622 19.108 29.4332 19.0966C29.5043 19.0824 29.5611 19.071 29.6037 19.0625L29.8082 19.9659C29.7401 19.9915 29.6449 20.017 29.5227 20.0426C29.4006 20.071 29.2457 20.0852 29.0582 20.0852C28.7741 20.0852 28.4957 20.0241 28.223 19.902C27.9531 19.7798 27.7287 19.5938 27.5497 19.3438C27.3736 19.0938 27.2855 18.7784 27.2855 18.3977V11.8864ZM33.1278 20.1534C32.7131 20.1534 32.3366 20.0753 31.9986 19.919C31.6605 19.7599 31.392 19.5312 31.1932 19.233C30.9943 18.9318 30.8949 18.5682 30.8949 18.142C30.8949 17.767 30.9688 17.4631 31.1165 17.2301C31.2642 16.9943 31.4616 16.8097 31.7088 16.6761C31.956 16.5426 32.2287 16.4432 32.527 16.3778C32.8281 16.3097 33.1307 16.2557 33.4347 16.2159C33.8324 16.1648 34.1548 16.1264 34.402 16.1009C34.652 16.0724 34.8338 16.0256 34.9474 15.9602C35.0639 15.8949 35.1222 15.7812 35.1222 15.6193V15.5852C35.1222 15.1648 35.0071 14.8381 34.777 14.6051C34.5497 14.3722 34.2045 14.2557 33.7415 14.2557C33.2614 14.2557 32.8849 14.3608 32.6122 14.571C32.3395 14.7812 32.1477 15.0057 32.0369 15.2443L31.0824 14.9034C31.2528 14.5057 31.4801 14.196 31.7642 13.9744C32.0511 13.75 32.3636 13.5937 32.7017 13.5057C33.0426 13.4148 33.3778 13.3693 33.7074 13.3693C33.9176 13.3693 34.1591 13.3949 34.4318 13.446C34.7074 13.4943 34.973 13.5952 35.2287 13.7486C35.4872 13.902 35.7017 14.1335 35.8722 14.4432C36.0426 14.7528 36.1278 15.1676 36.1278 15.6875V20H35.1222V19.1136H35.071C35.0028 19.2557 34.8892 19.4077 34.7301 19.5696C34.571 19.7315 34.3594 19.8693 34.0952 19.983C33.831 20.0966 33.5085 20.1534 33.1278 20.1534ZM33.2812 19.25C33.679 19.25 34.0142 19.1719 34.2869 19.0156C34.5625 18.8594 34.7699 18.6577 34.9091 18.4105C35.0511 18.1634 35.1222 17.9034 35.1222 17.6307V16.7102C35.0795 16.7614 34.9858 16.8082 34.8409 16.8509C34.6989 16.8906 34.5341 16.9261 34.3466 16.9574C34.1619 16.9858 33.9815 17.0114 33.8054 17.0341C33.6321 17.054 33.4915 17.071 33.3835 17.0852C33.1222 17.1193 32.8778 17.1747 32.6506 17.2514C32.4261 17.3253 32.2443 17.4375 32.1051 17.5881C31.9688 17.7358 31.9006 17.9375 31.9006 18.1932C31.9006 18.5426 32.0298 18.8068 32.2884 18.9858C32.5497 19.1619 32.8807 19.25 33.2812 19.25ZM42.5998 14.9205L41.6964 15.1761C41.6396 15.0256 41.5558 14.8793 41.445 14.7372C41.337 14.5923 41.1893 14.473 41.0018 14.3793C40.8143 14.2855 40.5742 14.2386 40.2816 14.2386C39.881 14.2386 39.5472 14.331 39.2802 14.5156C39.016 14.6974 38.8839 14.929 38.8839 15.2102C38.8839 15.4602 38.9748 15.6577 39.1566 15.8026C39.3384 15.9474 39.6225 16.0682 40.0089 16.1648L40.9805 16.4034C41.5657 16.5455 42.0018 16.7628 42.2887 17.0554C42.5756 17.3452 42.7191 17.7187 42.7191 18.1761C42.7191 18.5511 42.6112 18.8864 42.3952 19.1818C42.1822 19.4773 41.8839 19.7102 41.5004 19.8807C41.1168 20.0511 40.6708 20.1364 40.1623 20.1364C39.4947 20.1364 38.9421 19.9915 38.5046 19.7017C38.0671 19.4119 37.7901 18.9886 37.6737 18.4318L38.6282 18.1932C38.7191 18.5455 38.891 18.8097 39.1438 18.9858C39.3995 19.1619 39.7333 19.25 40.1452 19.25C40.614 19.25 40.9862 19.1506 41.2617 18.9517C41.5401 18.75 41.6793 18.5085 41.6793 18.2273C41.6793 18 41.5998 17.8097 41.4407 17.6562C41.2816 17.5 41.0373 17.3835 40.7077 17.3068L39.6168 17.0511C39.0174 16.9091 38.5771 16.6889 38.2958 16.3906C38.0174 16.0895 37.8782 15.7131 37.8782 15.2614C37.8782 14.892 37.9819 14.5653 38.1893 14.2812C38.3995 13.9972 38.685 13.7741 39.0458 13.6122C39.4094 13.4503 39.8214 13.3693 40.2816 13.3693C40.9293 13.3693 41.4379 13.5114 41.8072 13.7955C42.1793 14.0795 42.4435 14.4545 42.5998 14.9205ZM4.05682 32V23.2727H7.00568C7.69034 23.2727 8.25 23.3963 8.68466 23.6435C9.12216 23.8878 9.44602 24.2188 9.65625 24.6364C9.86648 25.054 9.97159 25.5199 9.97159 26.0341C9.97159 26.5483 9.86648 27.0156 9.65625 27.4361C9.44886 27.8565 9.12784 28.1918 8.69318 28.4418C8.25852 28.6889 7.7017 28.8125 7.02273 28.8125H4.90909V27.875H6.98864C7.45739 27.875 7.83381 27.794 8.1179 27.6321C8.40199 27.4702 8.60795 27.2514 8.7358 26.9759C8.86648 26.6974 8.93182 26.3835 8.93182 26.0341C8.93182 25.6847 8.86648 25.3722 8.7358 25.0966C8.60795 24.821 8.40057 24.6051 8.11364 24.4489C7.8267 24.2898 7.44602 24.2102 6.97159 24.2102H5.11364V32H4.05682ZM13.4638 32.1534C13.049 32.1534 12.6726 32.0753 12.3345 31.919C11.9964 31.7599 11.728 31.5312 11.5291 31.233C11.3303 30.9318 11.2308 30.5682 11.2308 30.142C11.2308 29.767 11.3047 29.4631 11.4524 29.2301C11.6001 28.9943 11.7976 28.8097 12.0447 28.6761C12.2919 28.5426 12.5646 28.4432 12.8629 28.3778C13.1641 28.3097 13.4666 28.2557 13.7706 28.2159C14.1683 28.1648 14.4908 28.1264 14.7379 28.1009C14.9879 28.0724 15.1697 28.0256 15.2834 27.9602C15.3999 27.8949 15.4581 27.7812 15.4581 27.6193V27.5852C15.4581 27.1648 15.343 26.8381 15.1129 26.6051C14.8857 26.3722 14.5405 26.2557 14.0774 26.2557C13.5973 26.2557 13.2209 26.3608 12.9482 26.571C12.6754 26.7812 12.4837 27.0057 12.3729 27.2443L11.4183 26.9034C11.5888 26.5057 11.8161 26.196 12.1001 25.9744C12.3871 25.75 12.6996 25.5937 13.0376 25.5057C13.3786 25.4148 13.7138 25.3693 14.0433 25.3693C14.2536 25.3693 14.495 25.3949 14.7678 25.446C15.0433 25.4943 15.3089 25.5952 15.5646 25.7486C15.8232 25.902 16.0376 26.1335 16.2081 26.4432C16.3786 26.7528 16.4638 27.1676 16.4638 27.6875V32H15.4581V31.1136H15.407C15.3388 31.2557 15.2251 31.4077 15.0661 31.5696C14.907 31.7315 14.6953 31.8693 14.4311 31.983C14.1669 32.0966 13.8445 32.1534 13.4638 32.1534ZM13.6172 31.25C14.0149 31.25 14.3501 31.1719 14.6229 31.0156C14.8984 30.8594 15.1058 30.6577 15.245 30.4105C15.3871 30.1634 15.4581 29.9034 15.4581 29.6307V28.7102C15.4155 28.7614 15.3217 28.8082 15.1768 28.8509C15.0348 28.8906 14.87 28.9261 14.6825 28.9574C14.4979 28.9858 14.3175 29.0114 14.1413 29.0341C13.968 29.054 13.8274 29.071 13.7195 29.0852C13.4581 29.1193 13.2138 29.1747 12.9865 29.2514C12.7621 29.3253 12.5803 29.4375 12.4411 29.5881C12.3047 29.7358 12.2365 29.9375 12.2365 30.1932C12.2365 30.5426 12.3658 30.8068 12.6243 30.9858C12.8857 31.1619 13.2166 31.25 13.6172 31.25ZM18.7127 34.4545C18.5423 34.4545 18.3903 34.4403 18.2567 34.4119C18.1232 34.3864 18.0309 34.3608 17.9798 34.3352L18.2354 33.4489C18.4798 33.5114 18.6957 33.5341 18.8832 33.517C19.0707 33.5 19.2369 33.4162 19.3817 33.2656C19.5295 33.1179 19.6644 32.8778 19.7866 32.5455L19.9741 32.0341L17.5536 25.4545H18.6445L20.4513 30.6705H20.5195L22.3263 25.4545H23.4173L20.6388 32.9545C20.5138 33.2926 20.359 33.5724 20.1744 33.794C19.9897 34.0185 19.7752 34.1847 19.5309 34.2926C19.2894 34.4006 19.0167 34.4545 18.7127 34.4545Z" fill="black"/>
</svg>
