<?xml version="1.0" encoding="utf-8"?>
<!-- Generator: Adobe Illustrator 19.0.0, SVG Export Plug-In . SVG Version: 6.00 Build 0)  -->
<svg version="1.1" id="layer" xmlns="http://www.w3.org/2000/svg" xmlns:xlink="http://www.w3.org/1999/xlink" x="0px" y="0px"
	 viewBox="-153 -46 652 652" style="enable-background:new -153 -46 652 652;" xml:space="preserve">
<style type="text/css">
	.st0{fill:#FF0000;}
</style>
<g>
	<path class="st0" d="M260.4,338.1c-0.6-0.2-1.8-0.4-3.6-0.4c-1.1,0-2,0-2.7,0.1c-0.7,0.1-1.3,0.2-1.7,0.3c-0.4,0.2-0.7,0.4-1,0.6
		c-0.2,0.2-0.4,0.5-0.4,0.8c-1.2,4-2.6,7.9-4,11.8c-1.4,3.9-3,7.7-4.6,11.5c-1.7,3.8-3.5,7.5-5.5,11.2c-2,3.7-4.2,7.3-6.7,10.9h-0.1
		l-7-45.2c0-0.4-0.1-0.8-0.3-1c-0.1-0.3-0.4-0.5-0.7-0.7c-0.3-0.1-0.8-0.2-1.4-0.3c-0.6-0.1-1.5-0.1-2.5-0.1c-1,0-1.8,0-2.4,0.1
		c-0.7,0.1-1.2,0.2-1.6,0.4c-0.4,0.2-0.7,0.4-0.8,0.7c-0.1,0.3-0.2,0.7-0.2,1.2c0,0.3,0,0.6,0.1,1c0,0.4,0.1,0.9,0.2,1.4l8.9,54.1
		l-14.6,19.3c-0.4,0.6-0.7,1.1-0.7,1.5c0,0.4,0.1,0.7,0.5,1c0.4,0.2,0.9,0.4,1.6,0.5c0.7,0.1,1.6,0.2,2.7,0.2c1,0,1.9-0.1,2.6-0.1
		c0.7-0.1,1.4-0.2,1.9-0.4c0.5-0.2,1-0.4,1.3-0.6c0.4-0.2,0.7-0.5,0.9-0.9l15.4-21.7c3.8-5.3,7.1-10.3,9.9-15.1
		c2.8-4.8,5.2-9.4,7.2-13.8c2.1-4.4,3.9-8.6,5.4-12.7c1.6-4,3-7.9,4.3-11.7c0.2-0.4,0.3-0.9,0.4-1.3c0.1-0.5,0.1-0.9,0.1-1.4
		C261.3,338.7,261,338.4,260.4,338.1 M190,364.3c-0.7,3.6-1.8,6.9-3.3,9.9c-1.5,3-3.2,5.6-5.1,7.8c-1.9,2.2-4,4-6.2,5.2
		c-2.2,1.2-4.4,1.9-6.6,1.9c-1.5,0-2.8-0.3-3.8-0.9c-1.1-0.6-1.9-1.4-2.6-2.5c-0.7-1-1.1-2.3-1.4-3.8c-0.3-1.5-0.4-3.1-0.4-4.9
		c0-1.8,0.2-3.9,0.4-6.2c0.3-2.3,0.8-4.6,1.4-6.9c0.6-2.3,1.4-4.6,2.4-6.8c1-2.2,2.2-4.2,3.5-5.9c1.3-1.7,2.9-3.1,4.6-4.1
		c1.7-1,3.6-1.5,5.8-1.5c2.7,0,5.1,0.7,7.3,2.1c2.2,1.4,4.2,3.5,6.1,6.4L190,364.3z M204.6,339.6c0-0.3,0-0.6-0.1-0.8
		c-0.1-0.3-0.3-0.5-0.6-0.6c-0.3-0.2-0.7-0.3-1.3-0.3c-0.5-0.1-1.2-0.1-2-0.1c-1.6,0-2.8,0.1-3.5,0.4c-0.8,0.3-1.2,0.8-1.4,1.4
		l-1.1,5.6c-2-2.6-4.2-4.6-6.8-6.1c-2.5-1.5-5.5-2.2-9.1-2.2c-3.5,0-6.6,0.7-9.4,2c-2.8,1.4-5.2,3.2-7.3,5.4
		c-2.1,2.2-3.9,4.8-5.4,7.6c-1.5,2.9-2.7,5.8-3.7,8.8c-1,3-1.6,6-2.1,9c-0.4,3-0.7,5.7-0.7,8c0,2.8,0.3,5.5,0.8,7.9
		c0.6,2.4,1.5,4.6,2.7,6.3c1.2,1.8,2.9,3.2,5,4.2c2.1,1,4.6,1.5,7.6,1.5c2.3,0,4.5-0.4,6.7-1.2c2.2-0.8,4.2-1.8,6-3.1
		c1.8-1.3,3.4-2.7,4.8-4.3c1.4-1.5,2.4-3.1,3-4.6c-0.4,1.3-1,3.3-1.7,5.7c-0.7,2.5-1.4,5.6-2,9.3c-0.4,1.9-1,3.6-1.8,5
		c-0.8,1.4-1.9,2.5-3.2,3.5c-1.3,0.9-2.8,1.6-4.5,2c-1.7,0.5-3.7,0.7-5.8,0.7c-2.6,0-4.8-0.2-6.5-0.7c-1.8-0.4-3.2-0.9-4.4-1.5
		c-1.2-0.5-2.1-1-2.9-1.4c-0.7-0.4-1.3-0.7-1.8-0.7c-0.4,0-0.7,0.1-1,0.3c-0.3,0.2-0.6,0.5-0.8,0.9c-0.2,0.4-0.4,0.8-0.5,1.3
		c-0.1,0.5-0.3,1-0.4,1.4c-0.1,0.5-0.2,0.9-0.2,1.4c0,0.4,0,0.8,0,1c0,0.6,0.1,1.1,0.3,1.5c0.2,0.4,0.6,0.8,1.2,1.2
		c1.6,0.9,3.8,1.8,6.5,2.4c2.7,0.7,5.7,1,9,1c3.8,0,7.2-0.4,10.2-1.2c3-0.8,5.6-2.1,7.8-3.7c2.2-1.6,4-3.7,5.4-6.1
		c1.4-2.5,2.4-5.3,3.1-8.6L204.6,339.6z M150.6,338.5c-0.2-0.2-0.6-0.5-1-0.6c-0.5-0.2-1-0.3-1.6-0.5c-0.6-0.1-1.2-0.3-1.9-0.4
		c-0.7-0.1-1.4-0.2-2.1-0.2c-1.5,0-3.1,0.4-4.7,1c-1.6,0.7-3.2,1.6-4.6,2.8c-1.5,1.2-2.8,2.5-4.1,4.1c-1.3,1.6-2.3,3.2-3.2,4.9
		l2-10.1c0-0.3,0-0.6-0.1-0.8c-0.1-0.3-0.3-0.5-0.6-0.6c-0.3-0.2-0.7-0.3-1.3-0.3c-0.5-0.1-1.2-0.1-2.1-0.1c-0.8,0-1.5,0-2.1,0.1
		c-0.6,0.1-1.1,0.2-1.5,0.3c-0.4,0.2-0.7,0.4-0.9,0.6c-0.2,0.2-0.3,0.5-0.4,0.8l-10.7,55.5c-0.1,0.3-0.1,0.6,0,0.8
		c0.1,0.2,0.3,0.4,0.7,0.6c0.3,0.2,0.8,0.3,1.4,0.4c0.6,0.1,1.4,0.1,2.4,0.1c1,0,1.8,0,2.4-0.1c0.7-0.1,1.2-0.2,1.6-0.4
		c0.4-0.2,0.7-0.4,0.9-0.6c0.2-0.2,0.3-0.5,0.4-0.8l4.7-24.7c0.7-3.4,1.7-6.6,3.1-9.5c1.4-2.9,3-5.4,4.7-7.6c1.7-2.1,3.5-3.8,5.2-5
		c1.8-1.2,3.3-1.8,4.7-1.8c0.8,0,1.5,0.1,2.1,0.2c0.6,0.1,1.1,0.3,1.6,0.5c0.5,0.2,0.9,0.4,1.3,0.5c0.4,0.1,0.7,0.2,1,0.2
		s0.6-0.2,0.9-0.6c0.3-0.4,0.5-0.8,0.7-1.4c0.2-0.5,0.4-1.2,0.6-1.8c0.2-0.7,0.3-1.3,0.4-1.9c0.1-0.6,0.2-1.2,0.2-1.6
		c0.1-0.5,0.1-0.8,0.1-1C151,339.2,150.9,338.8,150.6,338.5 M94.2,355.8c-0.7,1.2-1.9,2.3-3.6,3.2c-1.7,0.9-3.9,1.6-6.7,2.2
		c-2.8,0.5-6.3,0.8-10.5,0.8h-6.1c0.7-2.3,1.6-4.5,2.7-6.6c1.1-2.1,2.4-3.9,3.9-5.4c1.5-1.6,3.3-2.8,5.3-3.7c2-0.9,4.3-1.4,6.9-1.4
		c2.9,0,5.2,0.6,6.8,1.9c1.6,1.3,2.4,3,2.4,5.1C95.2,353.3,94.8,354.6,94.2,355.8 M104.3,346c-0.7-1.7-1.8-3.2-3.2-4.5
		c-1.5-1.4-3.4-2.5-5.7-3.3c-2.3-0.9-5.2-1.3-8.5-1.3c-3.9,0-7.4,0.6-10.5,1.9c-3.1,1.3-5.8,3-8.2,5c-2.4,2.1-4.4,4.5-6.1,7.3
		c-1.7,2.8-3.1,5.6-4.2,8.6c-1.1,3-1.9,6-2.4,9.1c-0.5,3.1-0.7,5.9-0.7,8.6c0,3.5,0.4,6.4,1.3,9c0.9,2.5,2.2,4.7,4,6.4
		c1.8,1.7,4,3,6.7,3.8c2.7,0.8,5.8,1.2,9.3,1.2c2,0,4-0.1,6-0.4c2-0.2,3.8-0.6,5.5-0.9c1.7-0.4,3.1-0.8,4.3-1.3
		c1.2-0.5,2.1-1,2.5-1.5c0.3-0.4,0.6-0.8,0.9-1.3c0.3-0.5,0.5-1.1,0.6-1.7c0.2-0.6,0.3-1.2,0.4-1.8c0.1-0.6,0.1-1.1,0.1-1.5
		c0-0.5-0.1-0.9-0.3-1.1c-0.2-0.3-0.4-0.4-0.8-0.4c-0.4,0-1,0.2-2,0.6c-1,0.4-2.2,0.8-3.7,1.3c-1.5,0.5-3.2,0.9-5.3,1.3
		c-2,0.4-4.3,0.6-6.9,0.6c-4.4,0-7.6-1.1-9.6-3.3c-2-2.2-3-5.3-3-9.4c0-1.1,0.1-2.3,0.1-3.6c0.1-1.3,0.3-2.6,0.6-3.9h6.3
		c5.9,0,10.9-0.4,15.1-1.3c4.2-0.9,7.7-2.1,10.4-3.7c2.7-1.6,4.7-3.5,6-5.8c1.3-2.3,1.9-4.8,1.9-7.6
		C105.3,349.3,104.9,347.7,104.3,346 M45.3,346.3c-0.5-1.8-1.3-3.4-2.4-4.8c-1.1-1.4-2.6-2.5-4.4-3.3c-1.8-0.8-4-1.3-6.7-1.3
		c-2.4,0-4.8,0.4-7,1.3c-2.3,0.9-4.3,1.9-6.2,3.3c-1.9,1.3-3.5,2.7-4.8,4.3c-1.4,1.6-2.3,3-2.9,4.4l2-10.6c0-0.3,0-0.6-0.1-0.8
		c-0.1-0.3-0.3-0.5-0.6-0.6c-0.3-0.2-0.7-0.3-1.3-0.3c-0.5-0.1-1.2-0.1-2.1-0.1c-0.8,0-1.5,0-2.1,0.1c-0.6,0.1-1,0.2-1.4,0.3
		c-0.4,0.2-0.7,0.4-0.8,0.6c-0.2,0.2-0.3,0.5-0.3,0.8l-10.8,55.5c-0.1,0.3-0.1,0.6,0,0.8c0.1,0.2,0.3,0.4,0.7,0.6
		c0.3,0.2,0.8,0.3,1.4,0.4c0.6,0.1,1.4,0.1,2.4,0.1c1,0,1.8,0,2.4-0.1c0.7-0.1,1.2-0.2,1.6-0.4c0.4-0.2,0.7-0.4,0.9-0.6
		c0.2-0.2,0.3-0.5,0.4-0.8l4.8-24.8c0.7-3.5,1.8-6.8,3.3-9.8c1.5-3,3.2-5.6,5.1-7.8c1.9-2.2,3.9-3.9,6.1-5.2
		c2.2-1.2,4.4-1.9,6.5-1.9c2.4,0,4.2,0.8,5.2,2.3c1,1.5,1.5,3.6,1.5,6.1c0,0.9-0.1,1.9-0.1,3.1c-0.1,1.2-0.3,2.4-0.6,3.7l-6.6,34.2
		c0,0.3,0,0.6,0.1,0.8c0.1,0.2,0.3,0.4,0.7,0.6c0.3,0.2,0.8,0.3,1.4,0.4c0.6,0.1,1.4,0.1,2.4,0.1c1,0,1.8,0,2.4-0.1
		c0.6-0.1,1.2-0.2,1.6-0.4c0.4-0.2,0.7-0.4,0.9-0.6c0.2-0.2,0.3-0.5,0.4-0.8l6.8-34.6c0.3-1.5,0.5-2.9,0.7-4.3
		c0.2-1.4,0.2-2.8,0.2-4.3C46,349.9,45.8,348.1,45.3,346.3 M-22.1,355.8c-0.7,1.2-1.9,2.3-3.6,3.2c-1.7,0.9-3.9,1.6-6.7,2.2
		c-2.8,0.5-6.3,0.8-10.5,0.8H-49c0.7-2.3,1.6-4.5,2.7-6.6c1.1-2.1,2.4-3.9,3.9-5.4c1.5-1.6,3.3-2.8,5.3-3.7c2-0.9,4.3-1.4,6.9-1.4
		c2.9,0,5.2,0.6,6.8,1.9c1.6,1.3,2.4,3,2.4,5.1C-21.1,353.3-21.4,354.6-22.1,355.8 M-12,346c-0.7-1.7-1.8-3.2-3.2-4.5
		c-1.5-1.4-3.4-2.5-5.7-3.3c-2.3-0.9-5.2-1.3-8.5-1.3c-3.9,0-7.4,0.6-10.5,1.9c-3.1,1.3-5.8,3-8.2,5c-2.4,2.1-4.4,4.5-6.1,7.3
		c-1.7,2.8-3.1,5.6-4.2,8.6c-1.1,3-1.9,6-2.4,9.1c-0.5,3.1-0.7,5.9-0.7,8.6c0,3.5,0.4,6.4,1.3,9c0.9,2.5,2.2,4.7,4,6.4
		c1.8,1.7,4,3,6.7,3.8c2.7,0.8,5.8,1.2,9.3,1.2c2,0,4-0.1,6-0.4c2-0.2,3.8-0.6,5.5-0.9c1.7-0.4,3.1-0.8,4.3-1.3
		c1.2-0.5,2.1-1,2.5-1.5c0.3-0.4,0.6-0.8,0.9-1.3c0.3-0.5,0.5-1.1,0.6-1.7c0.2-0.6,0.3-1.2,0.4-1.8c0.1-0.6,0.1-1.1,0.1-1.5
		c0-0.5-0.1-0.9-0.3-1.1c-0.2-0.3-0.4-0.4-0.8-0.4c-0.4,0-1,0.2-2,0.6c-1,0.4-2.2,0.8-3.7,1.3c-1.5,0.5-3.2,0.9-5.3,1.3
		c-2,0.4-4.3,0.6-6.9,0.6c-4.4,0-7.6-1.1-9.6-3.3c-2-2.2-3-5.3-3-9.4c0-1.1,0.1-2.3,0.1-3.6c0.1-1.3,0.3-2.6,0.6-3.9h6.3
		c5.9,0,10.9-0.4,15.1-1.3c4.2-0.9,7.7-2.1,10.4-3.7c2.7-1.6,4.7-3.5,6-5.8c1.3-2.3,1.9-4.8,1.9-7.6C-11,349.3-11.3,347.7-12,346"/>
	<path class="st0" d="M-62.1,190.9c0,0-3.3,0-5.6,2.1c-2.2,2-6.1,9.9-6.1,9.9s0.2-4.1,0-5.5c-0.2-1.3-0.6-4.9-2.5-5.8
		c-1.2-0.6-3.7-0.8-5.3-0.8h-23.6l-26.5,112.6c-0.9,5.5,1.9,7.1,3.3,7.1h2.6h2.4h22.3c0,0,20.1-83.7,20.7-86.8
		c0.7-3.1,2.9-5.7,4.3-6.5c2.1-1.6,5.2-2.4,9.3-2.4H-42c0,0,3.4,0.1,6.1-3c1.2-1.5,1.6-2.3,2.6-5.4l4.1-15.6H-62.1z"/>
	<path class="st0" d="M134.1,281.3c-6.6,3.9-17.5,3.5-17.5,3.5c-4.7,0-8.8-0.9-12.3-2.6c-12.1-6.8-6-22.9-3.5-29.8l7.6-19.5
		c3-6.4,5.9-10.5,8.7-12.4c2.8-1.9,6.1-2.9,9.8-2.9h3.4h3.2h19L134.1,281.3z M191,164.3c-1.5-1.4-3.2-2.1-5.1-2.1h-19.6l-7.6,31
		h-36.4c0,0-14.9-1.1-26,6.3c-5.7,3.8-12.4,14.5-19.5,33.5c-7.1,18.9-10.6,35.1-10.6,48.5c0,4.9,0.3,9.4,2.4,15.8
		c5.7,12.9,19.3,13.4,22.1,13.4h22c6,0,9.6-5,9.6-5l10.1-15.5l-3.5,13.3c-0.6,2.6,1,5.3,1.9,6.1c0.9,0.8,1.9,1.2,3.2,1.2h5.8h17.3
		l36.4-140.4C193.3,167.7,192.5,165.7,191,164.3"/>
	<path class="st0" d="M62.4,204c-3.1-6.5-6.5-8.5-9.2-9.6c-2.8-1.2-13.6-3.4-33.3-3.4c-19.7,0-28.9,1.4-36.6,5.6
		c-7.5,4.1-12,11.7-18.4,28.9c-6.4,17.2-9.6,34.1-9.6,50.7l0.6,9.5l1.5,8c1.9,5.4,4.2,9.1,6.9,11.4c2.7,2.3,5.8,3.7,9.3,4.5
		c3.5,0.7,7.5,1.1,12.3,1.1h45.4c8.5,0,12-8.4,12.3-9.3l4.5-18.2H-0.6c-12.4,0-14.4-4.1-13.8-8.9c0.6-4.9,2.9-19.6,2.9-19.6h61.7
		c6.1,0,7.8-1,9.1-3.9c1.9-4.8,4.7-30.2,4.7-30.2C64.5,215.4,65.2,210,62.4,204 M35.5,235.4H-7c4.2-18.7,16.7-22.5,19.4-23.1
		c3.1-0.7,12.8-2.2,19.4,2.4C40.3,220.6,35.5,235.4,35.5,235.4"/>
</g>
<polygon class="st0" points="196.8,163.7 196.8,165.6 199.9,165.6 199.9,175.6 202.2,175.6 202.2,165.6 205.4,165.6 205.4,163.7 "/>
<polygon class="st0" points="216.8,175.6 216.8,165.2 213.5,175.6 212.4,175.6 209.1,165.2 209.1,175.6 207.4,175.6 207.4,163.7 
	210.7,163.7 213.2,171.4 215.6,163.7 219,163.7 219,175.6 "/>
<g>
	<path class="st0" d="M465.8,305.4c0,0-0.1-0.1-0.2-0.4c-0.2-0.3-0.5-0.7-1-1.3c-0.9-1.1-2.3-2.6-4.5-4.1
		c-4.3-3.2-11.2-6.5-22.6-8.1l-0.4-0.1c-0.6-0.1-0.9-0.9-0.8-1.5c0.1-0.6,0.7-1.1,1.3-1c1-1,3.4,0.5,4.9,0.8
		c19.5,4,25.2,14.3,25.3,14.5c0.3,0.6,0.1,1.3-0.5,1.6c-0.2,0.1-0.4,0.1-0.5,0.1C466.5,306,466.1,305.8,465.8,305.4"/>
	<path class="st0" d="M332.6,348.9c-0.9-42.4-14.8-82.3-21.5-123.8c-0.2-1.5-2.6-1.5-2.7,0.1c-3.9,48.3,0.7,99.3,21.6,143.6
		c0.6,1.2,2.5,0.9,2.6-0.5c2.2-39.7-12.7-76.7-20.5-115c-0.6-3.2-6.7-35.4-3-16.2c1.8,9.7,2.7,19.5,3.5,29.3c2.2,24.9,1.3,50.1,0,75
		c-0.1,1.6,2.1,2.1,2.7,0.6c14.9-37,52.1-55.6,83.3-76.9c1.1-0.8,0.1-2.7-1.2-2.4c-39.3,8.5-77,22.4-116.1,31.8
		c-1.1,0.3-25,7.7-10.4,3.1c8.9-2.8,18-4.6,27.1-6.2c20.1-3.7,40.8-4.3,61.2-2.5c1.5,0.1-13.1,6.6-13.3,6.7
		c-10.8,4.2-22.5,6.3-33.8,8.3c-9.2,1.6-18.5,2.4-27.8,3.3c-3.9,0.4-21.5,5.2-10.3,0.6c29.8-12.3,65.6-29,98.1-18.4
		c23.9,7.7-17.1,26.5-24.3,28c-18.9,4-41.3-0.9-51.1-18.8c-13.2-24.1,9.9-43.7,27.9-54.8c17.7-10.9-9.5,47.1-12.2,51.8
		c-1.2,2.1-2.4,4.2-3.6,6.3c-5,4.1-5.4,6.5-1,7.1c3.7-7,6.9-14.2,10.1-21.3c9.3-20.5,17.6-41.2,29.5-60.4c-3.5,5.7-4.8,16.2-7,22.6
		c-3.3,9.6-7.5,18.9-11.6,28.1c-8.3,18.7-17.3,37-25,56c-0.6,1.5,1.5,2.4,2.4,1.3c15.8-18.5,28.1-39.4,42.4-59
		c3.4-4.7,26.5-34.5,19-17.6c-6.4,14.3-16.4,27-26.2,38.9c-17.4,21.4-37.9,40.1-56.6,60.3c14.9-16,28.3-42.4,45.8-60.3
		c9.2-9.4,19.8-17.3,31-24.1c0.4-0.2,14.6-7.2,14.1-5.2c-1.9,7.7-8.7,14.7-14.1,19.9c-10.5,10.3-24.7,16.9-38.5,21.1
		c-0.2,0.1-16.2,3-14.6,0.2c3.5-6.2,9.4-10.8,15.3-14.5c32.7-20.9,82.9-7.3,118.6-2.6c1.6,0.2,2-2.1,0.6-2.7
		C389.8,266,323.9,238.2,264.5,253c-1,0.2-1.5,1.4-0.8,2.3c30.2,36.4,87.8,41.3,131.9,41.6c1.5,0,2.2-2.2,0.6-2.7
		c-43.5-12.6-88.6-21.2-133.8-14.6c-1.6,0.2-1.4,2.5,0.1,2.7c37.7,4.8,77,7.6,114.1-2.4c1.3-0.3,1.6-2.2,0.2-2.7
		c-23.6-8.1-44.8-0.8-66.4,9.7c-6.5,3.1-12.8,6.7-19.2,10.1c-5.5,2.9-17.5,13.9-13.6-2.8c4-17,10.4-33.6,16.7-49.9
		c5.3-13.8,11.1-27.4,16.5-41.2c0.4-1,3.1,16,3.1,16.5c1.3,13,1,26.2,0.8,39.2c-0.4,32.2-1.7,63.6,6.7,95c0.3,1,1.8,1.7,2.5,0.5
		c26.9-46.1,25.2-104,27.7-155.6c0.3-6.2,0.7-12.5,1.1-18.7c0.1-0.9-1.2-17.2-1-9.8c0.5,18.8,0,37.6-0.3,56.3
		c-0.6,36.2,0.2,72.1,6.6,107.9c0.3,1.4,2.1,1.5,2.7,0.2c9.5-21.9,13.4-44.8,15.9-68.4c1.3-11.9,2.1-23.8,3.2-35.7
		c0.6-7,1.5-13.9,2.4-20.8c1.7-13.1-0.3-4-0.4,1.7c-0.1,29-5.3,57.9-10.8,86.3c-2.5,12.8-5.4,25.6-8.1,38.4c-0.5,2.5-1.1,5-1.6,7.5
		c-3.8,5.9-3.5,8.3,0.7,7.2c1.2-7.8,1.9-15.6,2.8-23.5c1.4-13.1,2.7-26.2,4.3-39.2c1.7-13.7,10.1-32.8,9-45.5
		c1.3,15.4,1.4,30.9,1.5,46.4c0.2,21.4-20.1,6.5-31.9,1.4c-48.9-21.3-95.2-47.5-149-54.3c-1.5-0.2-2.1,2.3-0.6,2.7
		c54.1,13.5,109.6,19.2,164.8,26.2c13.7,1.8,27.3,3.7,41,5.9c-0.5-0.1,18.7,2.1,15.6,2.4c-11.3,1.1-22.7,0.9-34,0.8
		c-28.8-0.3-57.4-2.8-86.2-1.6c-1.6,0.1-1.4,2.5,0.1,2.7c33.1,4.6,65.9,10.9,98.9,15.8c9.7,1.5-11.8-0.6-14.3-0.6
		c-6,0-12.1-0.4-18.1-0.8c-12.5-0.8-25.1-2.3-37.5-3.5c-44.5-4.5-92.2-7.6-128.5,23.1c-1,0.9-0.2,2.8,1.1,2.4
		c84.1-21.7,165.1-61.6,232.5-116.5c1.4-1.1-0.4-3.2-1.8-2.1c-18.6,14.3-35.9,30-53.4,45.6c-3.8,3.4-7.7,6.7-11.6,10
		c-5.5,4.7,6.4-5.5,6.9-6.2c8.3-9.8,17.2-18.9,26.5-27.7c9.3-8.8,19.5-16.4,30.4-22.9c8.1-4.8,29-15.4,13.1,0.7
		c-13.9,14-26.9,28.8-39.5,44c-9.1,11-17.8,22.2-27,33.1c-2.7,3.1-5.4,6.2-8.2,9.2c3.1-3.3,9.8-7,13.6-9.9
		c6.8-5.2,14.3-9.6,21.4-14.3c2.1-1.4,4.2-2.9,6.1-4.5c-4.1,3.1-8.1,11.1-11.6,15.2c-2.5,2.7-4.8,5.5-6.9,8.5
		c1.6-2.1,0.6-15.2,0.9-18.1c2.4-25.7,10.6-50.2,11.4-76.2c0.1-1.6-2-2-2.7-0.6c-17.4,36.5-25.2,76.5-34,115.7
		c-6.5,28.8-1.2,3.1-0.8-5.2c0.6-14.2,1.3-28.5,1.9-42.7c1.1-25.6,2.3-51.3,3.4-76.9c0.1-1.8-2.7-2.1-2.8-0.3
		c-2,38.5-5.4,76.9-10.6,115.1c-1.4,10.5,0.7,11.1,1.4,0.3c0.6-10.4,1.2-20.9,1.7-31.3c1.1-21.5,1.6-43,1.7-64.5
		c0-1.5-2.1-2.2-2.7-0.6c-13.4,38.5-18.4,78.8-25.3,118.8c-3.3,19,1.7-5,2-9.8c0.8-11.2,1.2-22.4,1.7-33.6
		c1.1-25.7,1.6-51.5,2.7-77.2c0.1-1.8-2.6-2-2.8-0.3c-2.3,22.4-4.6,44.8-6.9,67.2c-1.2,11.3-2.3,22.5-3.4,33.8
		c-0.5,5.4,0.3,29.5,0,8.9c-0.7-41.7-4.9-83.2-10.6-124.5c-0.2-1.5-2.7-1.5-2.7,0.1c-0.2,38.1-1.8,76.1,0,114.1
		c0.1,1.6,2.7,1.4,2.7-0.1c1.6-27.1-2.2-53.5-6.4-80.2c-0.2-1.6-2.6-1.4-2.7,0.1c-3.6,32-0.2,63.4,6.4,94.8c0.4,1.8,2.9,1.3,2.7-0.5
		c-5.7-48-25.4-94.4-49.5-135.9c-0.8-1.3-2.9-0.8-2.6,0.8c5.2,26.4,17.7,49.3,33.4,70.8c4.2,5.7,8.8,11.1,13.3,16.5
		c3.4,4,17.1,13.9,2.8,7.9c-10.2-4.3-18.3-7.3-29.1-4.9c-1.1,0.2-1.4,1.4-0.8,2.3c11.7,16.9,29.9,22.2,49,27.3c6,1.6,21.1,2.5,1,2.9
		c-8,0.2-16.1-1.2-24-2.2c-2.9-0.4,16.9-2.3,14.8-2.1c12.4-1.4,24.9-1.1,37.3-1.2c1.8,0,2-2.4,0.3-2.8c-16.3-3.6-32.7-5.8-49.2-8.2
		c-11-1.5-21.7-3.7-32.4-6.3c-12.9-3.2,17-10.7,13.2-9.5c14.1-4.3,29.5-4.2,44.1-3.9c6.1,0.1,12.3,0.6,18.4,1.1
		c6.5,0.5-9.4,15.8-11.2,17.2c-18.5,15-44.5,21.6-67.1,27.3c-10.2,2.6-20.4,4.6-30.7,6.6c-4.5,0.9-9,1.7-13.5,2.6
		c-7.1,1.3-9.6,3.5-3.5-3.8c34.6-42,86.6-74.6,137.2-93.4c15.3-5.6,26.9-10.8,15.1,8.6c-6.5,10.7-16.1,19.5-25.5,27.6
		c-20.6,17.9-45.3,31.1-69.6,43.4c-9,4.6-18.2,8.9-27.3,13.2c-0.9,0.4,7.1-16.3,9.6-20.2c13-20.5,30.4-38.4,48.4-54.4
		c8.3-7.4,17.2-14,26.6-19.7c4.2-2.5,21.6-13,17.6-3.3c-12.6,30.4-38.3,55.2-59.3,79.9c5.7-6.7,14.2-19.3,21.3-28
		c1.7-2.1,38.3-36.5,38.5-26.9c0.4,16.3-6.4,32.5-13.1,47c-3.8,8.5-8.7,16.6-13.4,24.6c5.3-8.9,5.3-23.2,7.9-33.3
		c8.4-32.4,20.2-63.9,32.9-94.8c4-9.7,2.9,20.4,2.7,15.3c0.2,6.6-0.2,13.1-0.6,19.7c-1.1,17.8-4.6,35.4-9,52.6
		c-1.5,5.8-3.5,11.5-5.5,17.2c2.2-6.4-1.4-26.5-1.6-32.1c-0.6-21.3,0.4-42.6,1.8-63.9c0.4-5.3,0.8-10.6,1.2-15.9
		c3.1-6.2,2.7-8.7-1.1-7.5c0.3,11.1-0.1,22.2-0.5,33.3c-0.9,22.5-3.3,44.9-5.8,67.3c-2.5,22.3-5.4,44.6-8,66.9
		c1.7-15.3,0.9-38.9,0.9-57.6c-0.1-45,0.9-89.9,1-134.9c0-1.8-2.8-2.1-2.8-0.3c-0.1,52.3-2,104.6-7.7,156.6
		c5.1-46.8,3.4-102.3-0.3-151.9c-0.1-1.7-2.5-1.3-2.7,0.1c-12,64.4-30.6,133.2-19.3,198.9c0.2,1.2,1.8,1.5,2.5,0.5
		c16-20.8,31.1-42.3,43.1-65.7c0.3-0.6-0.1-1.6-0.8-1.8c-39-9.1-78.8-3-118.4-2.5c-1.8,0-2,2.8-0.2,2.8h114.8
		c12.2,0,9.5-2.7-0.8-2.4c-8.7,0.3-17.4,0.8-26.1,1.3c-6.6,0.4-62.3,7.1-58.6-7.1c0.5-1.7-2.1-2.7-2.6-1c-2.8,10.4-1.5,11.4,9.7,12
		c31.4,1.7,63.1-2.5,94.4-2.9c1.8,0,2.1-2.8,0.3-2.8h-81h-41.5c-2.4,4.3-0.1,5.1,7,2.4c5.4-0.2,10.9-0.5,16.3-0.8
		c15.9-0.8,31.9-1.6,47.8-1.4c12.8,0.2,39,0.9,27.2,21c-6.2,10.5-13.2,20.5-20.3,30.4c-0.1,0.2-10.6,14.6-11.1,11.7
		c-1-6-1.4-12-1.8-18c-3.4-49.9,8.1-101.2,17.5-149.9c1.7-9,1.7-28.9,3.1-7.6c1,16.7,1.3,33.4,1.5,50.1c0.3,30.8-0.4,61.7-0.5,92.5
		c0,1.8,2.6,2.1,2.8,0.3c3.2-27.1,5.3-54.2,6.7-81.4c0.7-13.8,1.1-27.7,1.4-41.5c0.2-8.3,0.3-16.7,0.4-25c0.1-11-2.7-11.9-2.7,0
		c-0.2,61.3-1.8,122.7,0,184c0.1,1.7,2.6,2.1,2.8,0.3c6.7-61.2,16.6-122.2,15-184c0-1.7-2.6-2.1-2.7-0.3
		c-4.2,44.4-6.3,89.1-2.1,133.5c0.1,1.4,2.2,1.5,2.7,0.2c14.4-37,21.5-79.9,15.1-119.3c-0.2-1.4-2.1-1.5-2.7-0.2
		c-19.3,46.4-35.9,93.7-45.2,143.2c-0.3,1.4,1.8,2.1,2.5,0.9c16-26.2,31.1-53.9,30.3-85.4c0-1-0.9-1.9-2-1.4
		c-29,14.8-49.6,40-64.9,68.2c-0.9,1.6,1.1,3,2.3,1.6c24.2-29.3,51.9-56.6,66.7-92.3c0.4-1.1-0.6-1.9-1.5-1.8
		c-23.6,1.5-45.6,23.7-61.5,39c-19.4,18.6-41.2,42-49,68.5c-0.3,1.1,0.7,2.3,1.9,1.7c48-22.8,116.6-50.3,135.9-104.9
		c0.3-1-0.5-2.1-1.5-1.8c-64,12.9-130.8,58.2-170.5,109.5c-0.7,1,0.2,2.4,1.4,2.1c43.6-8.5,117.6-13.8,140.6-59
		c0.4-0.8-0.3-1.8-1.2-1.9c-30.5-2.6-64-4.9-90.9,12.2c-0.9,0.6-1.2,2.2,0.1,2.5c24.3,7.2,49.2,9.7,74.1,13.7
		c20,3.2,0.2,0.6-6.1,0.9c-12.8,0.6-25.2,1.9-37.7,4.6c-1.6,0.3-1.4,2.5,0.1,2.7c16,2.5,31.5,4.1,47.6,2.4c1.4-0.2,1.5-2.3,0.2-2.7
		c-12.7-4-25.6-6.8-38.1-11.3c-6-2.2-38.3-23.7-10.5-17.3c8.2,1.9,16.2,6.5,24,9.4c1.3,0.5,2.5-1.2,1.5-2.2
		c-16.2-17-30.7-35-42.7-55.3c-7.2-12.2-12.2-25.3-15.8-38.9c1,3.8,8.2,16.2,11.4,22.8c11.7,23.5,20.9,48.3,27.8,73.6
		c1.2,4.4,2.2,8.9,3.1,13.4c0.1,0.4,5.3,17,4.1,11.5c-2.7-12.9-4.4-25.9-5.7-38.9c-1.2-12.3,1.1-28.7-0.6-39.7
		c2.1,13.3,3.9,26.6,5.1,39.9c0.6,7.9,0.8,15.7,0.5,23.6c0.1-8.2,1.5-16.5,1.4-24.9c-0.1-13.6,0.2-27.3,0.4-40.9
		c0.2-10-0.2-24.8-1.1-31.5c1.9,13.7,3.4,27.5,4.8,41.2c3.1,30.1,4.6,60.4,4.8,90.7c0,1.7,2.6,2.1,2.8,0.3c2-19.6,4-39.1,6-58.7
		c1.2-11.3,2.3-22.6,3.5-33.8c0.6-5.6,1.1-11.2,1.7-16.8c3.4-6.4,3-9.2-1.4-8.2c-1.9,42.4-2.2,84.7-6.1,127c-0.2,1.8,2.4,2,2.8,0.3
		c7.6-39.7,12-79.9,23.2-118.8c3.3-11.5,1.9-6.6,1.8,1.9c-0.1,10.7-0.5,21.5-0.9,32.2c-0.8,20.9-2.1,41.8-3.3,62.7
		c-0.1,1.8,2.5,2,2.7,0.3c3.3-21.4,5.9-42.9,8.1-64.5c1.1-11.1,2-22.2,2.8-33.2c0.4-5.5,0.8-11.1,1.1-16.6c3.1-6.5,2.4-9.2-2.2-8.2
		c-2,45.6-4,91.2-6.1,136.7c-0.1,1.5,2.3,2.2,2.7,0.6c9-37.1,15.8-74.7,28.2-110.8c1.3-3.7,7.5-18.1,7.5-17.6
		c-0.3,10.2-2.5,20.5-4.4,30.5c-3.9,20.4-8.2,40.1-7.6,61c0,1.2,1.7,2.3,2.5,0.9c6.5-11.3,16.9-19.1,21-31.8
		c0.4-1.3-1.1-2.5-2.2-1.5c-13.7,12.9-35.6,18.9-44.6,36.3c-0.6,1.2,1.3,2.5,2.2,1.5c31.1-32.5,57.1-69.2,89.3-101.1
		c1-1,0.3-2.6-1.1-2.4c-40.4,5.2-71.2,43.5-95.3,73.2c-1,1.2,0.8,2.8,2,1.8c17.8-14.8,34.6-30.6,52.2-45.6
		c12.2-10.4,16.1-16.1,0.2-3.9c-11.5,8.8-23.5,16.8-35.6,24.6c-39.5,25.4-82.3,45.7-126.3,62c-10.9,4-22,7.5-33.1,10.9
		c-19.3,5.8-13.2,2.2,0.9-5.5c20.7-11.3,46.2-12.4,69.2-11.9c39.1,0.8,77.7,9.8,116.8,6.2c1.6-0.1,1.4-2.5-0.1-2.7
		c-16.6-2.3-33.1-5-49.6-7.8c-8.2-1.4-16.4-2.8-24.5-4.2c-5-0.8-38.1-2.4-16.3-2.7c37.4-0.6,74.6,4,112,0.5c1.7-0.2,1.3-2.5-0.1-2.7
		c-73.4-13.7-148.4-17.2-221.3-34.2c56,13.1,115.3,47.3,173.4,68.4c0.8,0.3,1.9-0.3,1.9-1.2c0-23.6-0.1-47.1-2.2-70.6
		c-0.1-1.4-2.3-1.5-2.7-0.2c-12.5,40.2-13.3,82.4-19.4,123.8c-0.3,1.8,2.4,1.9,2.8,0.3c11.4-53.5,25-107.1,23.6-162.2
		c0-1.8-2.4-2-2.8-0.3c-3.8,20.7-5.2,41.7-7.1,62.7c-1.1,11.9-2.6,23.8-4.5,35.5c-1.2,6.8-2.8,13.5-4.7,20.1
		c0.1-0.5-4.6,19.4-6.1,11c-9.6-53.7-3.3-108.8-4.9-163c-0.1-1.7-2.6-2.1-2.8-0.3c-5.4,53-1.9,107.3-16.3,159.2
		c-1.9,6.9-10.6,36.3-14.7,16.6c-3.8-18-3.6-36.7-3.4-54.9c0.2-29.3,1.7-58.1-3.7-87c-0.2-1.4-2.2-1.5-2.7-0.2
		c-14.2,36.8-31,72.8-38.7,111.7c-0.2,1.1,1.1,1.8,2,1.4c15-7.1,29.3-15.3,44.2-22.5c10.3-5,21.1-8.3,32.4-10
		c6.9-1.3,13.3-0.5,19.4,2.6c-4.3,1-8.7,1.9-13.1,2.6c-21.5,3.7-43.8,2.7-65.4,1.2c-6.4-0.4-17.1-2-21.3-1.3
		c12.2-1.8,24.6-1.5,36.9-1.1c17.8,0.7,35.5,3.8,52.9,7.5c10.2,2.1,21.1,6.4,31.3,6.4c-6.8,0-13.6-0.4-20.3-0.9
		c-32.9-2.2-68.2-8.9-95-29.3c-19.8-15.1,20.5-12.2,29.7-11.8c19.8,0.8,39.4,5.5,58.4,10.7c17.2,4.7,34,11,50.6,17.4
		c7.6,3,15.1,6.2,22.5,9.4c2.9,1.2-7.7-2.3-10.9-2.7c-38.2-5.5-99-16.4-122,24.7c-0.5,0.8-0.1,2.1,1,2.2c29,1.1,67.2-19.8,74.4-49.3
		c0.3-1.2-0.7-2.2-1.9-1.7c-44.8,17.6-75.1,58.6-97.1,99.7c-0.9,1.6,1.1,2.9,2.3,1.6c33-36.5,74.5-69.2,92.5-116.5
		c0.5-1.3-1.1-2.4-2.2-1.5c-25.6,21.3-41.1,51.2-60.8,77.6c-9.8,13.1,1.9-6.8,3.3-10.2c4.1-9.3,8.5-18.5,12.8-27.7
		c9.7-21,18.1-42.2,23.3-64.7c0.3-1.4-1.5-2.7-2.4-1.3c-20,29.2-30.8,63.2-47.2,94.4c-0.8,1.5,1.4,3.2,2.3,1.6
		c13.5-24.7,30.8-48.9,30.3-78.1c0-1-1-1.9-2-1.4c-27.4,14.5-65,52.2-25.1,78.1c22.1,14.4,68.4,8,75.2-21.1c0.1-0.6,0.1-1.3-0.5-1.6
		c-35.7-22.4-84,3.2-118.2,17.2c-1.6,0.6-0.6,2.7,0.8,2.6c34.8-2.6,69.8-5.4,101.2-21.9c1.2-0.6,0.9-2.5-0.5-2.6
		c-36.4-4.7-73.6,0-108.1,12.2c-1.5,0.5-0.7,2.9,0.8,2.6c34.3-5.8,67.3-16.7,100.6-26.5c7.7-2.3,15.5-4.3,23.3-6.3
		c14.1-3.6,9.5-2.6,1.1,2.9c-11.6,7.5-23.1,15.1-34.1,23.4c-9.6,7.3-18,15.8-25.5,25.2c-2.1,2.7-4.9,6.9-6.4,10
		c-6,12.1-1.3-6.1-1.1-11.1c1.1-32.4-0.4-65-7.4-96.8c-0.3-1.5-2.8-1.5-2.7,0.1c0.8,29.1,9.2,56.5,16.4,84.5
		c4.5,17.5,7.5,35,7.6,53.1c0.1,6.9-5.8-11.8-5.3-10.5c-4.1-10.6-6.6-21.8-9-32.9c-3-14.2-4.5-28.6-5.5-43
		c-0.7-9.4-0.7-18.7-0.5-28.1c0.1-7.5-2.1-22.1,1.2-4.2c6.6,35.9,17.9,70.2,18.7,107.1C329.9,350.4,332.7,350.7,332.6,348.9"/>
</g>
<polygon class="st0" points="358,260.3 366.1,286.5 330.5,296.1 319.7,287 318,267.6 337.4,250.4 "/>
<polygon class="st0" points="333.9,249.9 338.4,242.9 335.9,226.6 "/>
<polygon class="st0" points="336.9,290.8 338.2,300.9 345.2,302.6 352.7,290.8 "/>
<polygon class="st0" points="309.8,267.7 315.8,266.2 309.6,258 "/>
<polygon class="st0" points="322.6,286.8 310.3,290.3 314.3,312.2 327.9,299.1 "/>
<rect x="365.4" y="271.1" class="st0" width="5.3" height="4.9"/>
</svg>
