<svg width="40" height="40" viewBox="0 0 40 40" fill="none" xmlns="http://www.w3.org/2000/svg">
<path d="M21.5331 22.4818C21.2728 22.2215 21.2728 21.7994 21.5331 21.539C21.7935 21.2787 22.2156 21.2787 22.4759 21.539L29.6754 28.7389C29.9357 28.9993 29.9357 29.4214 29.6754 29.6818C29.415 29.9421 28.9929 29.9421 28.7326 29.6818L21.5331 22.4818Z" fill="#323232"/>
<path d="M16.8867 9C21.2425 9 24.7734 12.5316 24.7734 16.8877C24.7733 21.2437 21.2424 24.7744 16.8867 24.7744C12.5311 24.7743 9.00016 21.2436 9 16.8877C9 12.5317 12.531 9.0001 16.8867 9ZM16.8867 10.3311C13.2673 10.3312 10.333 13.2651 10.333 16.8848C10.333 20.5044 13.2673 23.4384 16.8867 23.4385C20.5062 23.4385 23.4404 20.5045 23.4404 16.8848C23.4404 13.2651 20.5062 10.3311 16.8867 10.3311Z" fill="#323232"/>
<path d="M14.8545 21.5891C17.6738 20.7563 19.7311 18.1475 19.7311 15.0581C19.7311 14.0759 19.5231 13.1423 19.1489 12.2988C20.8406 13.1339 22.0042 14.8764 22.0042 16.8908C22.0042 19.7172 19.7131 22.0086 16.8868 22.0086C16.1646 22.0086 15.4775 21.859 14.8545 21.5891Z" fill="#8DE2E0"/>
</svg>
