<svg width="48" height="48" viewBox="0 0 48 48" fill="none" xmlns="http://www.w3.org/2000/svg">
<rect width="48" height="48" rx="24" fill="#F6F6F6"/>
<path fill-rule="evenodd" clip-rule="evenodd" d="M20.0126 12.5029C20.5007 12.5538 20.8341 12.8834 20.9559 13.3867C21.034 13.7093 21.1504 14.3157 21.3075 15.2148L21.3133 15.2695C21.3471 15.8073 21.1723 16.2619 20.7899 16.5811C20.5456 16.7849 20.1428 17.1292 19.5838 17.6133C19.5159 17.7201 19.5255 17.7864 19.6112 17.9023C19.8311 18.1998 21.3664 20.3645 24.2342 24.418L27.4286 24.251L27.4627 24.25C28.0656 24.2593 28.5369 24.5677 28.8143 25.123C28.9262 25.3471 29.2332 25.9459 29.7342 26.918L31.9569 26.71C32.8739 26.6394 33.4298 27.2089 33.494 28.2002C33.5585 29.1985 33.0269 29.8339 32.0145 29.9268L31.2001 29.957C31.1804 30.5959 30.7728 31 30.119 31H29.4959L29.4959 35C29.4959 35.2761 29.272 35.5 28.9959 35.5H19.2264C18.9174 35.4997 18.682 35.2218 18.7333 34.917L19.4696 30.5605C19.278 30.3732 19.1469 30.1436 19.0877 29.8721C19.0115 29.5223 18.7622 28.193 18.3358 25.8643L18.329 25.8145C18.2947 25.3898 18.435 25.0536 18.702 24.8594L16.4598 18.8877L16.454 18.8193L16.0116 13.6816C15.9303 12.9912 16.2802 12.5002 16.952 12.5H19.9608L20.0126 12.5029ZM20.41 31L19.8182 34.5H28.4959L28.4959 31H20.41ZM32.0418 27.7061L30.2293 27.876C30.4027 28.2118 30.5906 28.5777 30.7948 28.9727L31.9491 28.9287C32.391 28.8879 32.5258 28.727 32.4959 28.2646C32.4656 27.7959 32.355 27.682 32.0418 27.7061ZM17.0057 13.5801L17.4452 18.665L19.6942 24.6553L23.0526 24.4795C20.431 20.7746 19.0116 18.7731 18.8075 18.4971C18.4504 18.014 18.4503 17.4655 18.8065 16.9805L18.8817 16.8994C19.4696 16.39 19.892 16.0281 20.1493 15.8135C20.2706 15.7122 20.3264 15.5756 20.3172 15.3574C20.1664 14.4953 20.0548 13.9137 19.9842 13.6221C19.9612 13.5268 19.9522 13.5065 19.9266 13.5H16.9989C17.0003 13.5204 17.0019 13.5471 17.0057 13.5801Z" fill="#323232"/>
<path fill-rule="evenodd" clip-rule="evenodd" d="M19.3537 25.6736C19.2858 25.6736 19.3037 25.638 19.3182 25.6841C19.7433 27.994 19.9931 29.3258 20.0657 29.6588C20.0966 29.8006 20.1975 29.91 20.4179 29.9997H30.1222C30.1711 29.9997 30.1939 30.005 30.2038 30.0004C28.876 27.4329 28.1168 25.9585 27.9225 25.5696C27.8116 25.3475 27.6785 25.2571 27.4646 25.25L19.3537 25.6736Z" fill="#8DE2E0"/>
<path d="M31.3075 12.7358C31.5211 12.5222 31.8511 12.4955 32.0936 12.6557L32.1923 12.7358L34.8534 15.3969C35.0486 15.5921 35.0485 15.9087 34.8534 16.104C34.6582 16.2992 34.3416 16.2992 34.1464 16.104L32.2499 14.2075V21.0004C32.2499 21.2766 32.026 21.5004 31.7499 21.5004C31.4738 21.5004 31.2499 21.2766 31.2499 21.0004V14.2075L29.3534 16.104C29.1582 16.2992 28.8416 16.2992 28.6464 16.104C28.4512 15.9087 28.4512 15.5922 28.6464 15.3969L31.3075 12.7358Z" fill="#E40000"/>
</svg>
