<svg width="40" height="40" viewBox="0 0 40 40" fill="none" xmlns="http://www.w3.org/2000/svg">
<path d="M4.52273 15.7273H5.48864L6.2983 16.7926L6.51136 17.0767L7.71875 18.6818H6.75284L5.95739 17.6165L5.75852 17.3466L4.52273 15.7273ZM8.01705 14.3636C8.01705 15.1307 7.87855 15.7936 7.60156 16.3523C7.32457 16.911 6.9446 17.3419 6.46165 17.6449C5.97869 17.9479 5.42708 18.0994 4.80682 18.0994C4.18655 18.0994 3.63494 17.9479 3.15199 17.6449C2.66903 17.3419 2.28906 16.911 2.01207 16.3523C1.73509 15.7936 1.59659 15.1307 1.59659 14.3636C1.59659 13.5966 1.73509 12.9337 2.01207 12.375C2.28906 11.8163 2.66903 11.3854 3.15199 11.0824C3.63494 10.7794 4.18655 10.6278 4.80682 10.6278C5.42708 10.6278 5.97869 10.7794 6.46165 11.0824C6.9446 11.3854 7.32457 11.8163 7.60156 12.375C7.87855 12.9337 8.01705 13.5966 8.01705 14.3636ZM7.16477 14.3636C7.16477 13.7339 7.05942 13.2024 6.84872 12.7692C6.64039 12.3359 6.35748 12.008 6 11.7855C5.64489 11.563 5.24716 11.4517 4.80682 11.4517C4.36648 11.4517 3.96757 11.563 3.61009 11.7855C3.25497 12.008 2.97206 12.3359 2.76136 12.7692C2.55303 13.2024 2.44886 13.7339 2.44886 14.3636C2.44886 14.9934 2.55303 15.5249 2.76136 15.9581C2.97206 16.3913 3.25497 16.7192 3.61009 16.9418C3.96757 17.1643 4.36648 17.2756 4.80682 17.2756C5.24716 17.2756 5.64489 17.1643 6 16.9418C6.35748 16.7192 6.64039 16.3913 6.84872 15.9581C7.05942 15.5249 7.16477 14.9934 7.16477 14.3636ZM10.9893 18.1278C10.6437 18.1278 10.33 18.0627 10.0483 17.9325C9.76657 17.8 9.54285 17.6094 9.37713 17.3608C9.21141 17.1098 9.12855 16.8068 9.12855 16.4517C9.12855 16.1392 9.1901 15.8859 9.31321 15.6918C9.43632 15.4953 9.60085 15.3414 9.80682 15.2301C10.0128 15.1188 10.2401 15.036 10.4886 14.9815C10.7396 14.9247 10.9917 14.8797 11.245 14.8466C11.5765 14.804 11.8452 14.772 12.0511 14.7507C12.2595 14.727 12.411 14.688 12.5057 14.6335C12.6027 14.5791 12.6513 14.4844 12.6513 14.3494V14.321C12.6513 13.9706 12.5554 13.6984 12.3636 13.5043C12.1742 13.3101 11.8866 13.2131 11.5007 13.2131C11.1006 13.2131 10.7869 13.3007 10.5597 13.4759C10.3324 13.651 10.1726 13.8381 10.0803 14.0369L9.2848 13.7528C9.42685 13.4214 9.61624 13.1634 9.85298 12.9787C10.0921 12.7917 10.3525 12.6615 10.6342 12.5881C10.9183 12.5123 11.1977 12.4744 11.4723 12.4744C11.6475 12.4744 11.8487 12.4957 12.076 12.5384C12.3056 12.5786 12.527 12.6626 12.7401 12.7905C12.9555 12.9183 13.1342 13.1113 13.2763 13.3693C13.4183 13.6274 13.4893 13.973 13.4893 14.4062V18H12.6513V17.2614H12.6087C12.5518 17.3797 12.4571 17.5064 12.3246 17.6413C12.192 17.7763 12.0156 17.8911 11.7955 17.9858C11.5753 18.0805 11.3066 18.1278 10.9893 18.1278ZM11.1172 17.375C11.4486 17.375 11.728 17.3099 11.9553 17.1797C12.1849 17.0495 12.3577 16.8814 12.4737 16.6754C12.5921 16.4695 12.6513 16.2528 12.6513 16.0256V15.2585C12.6158 15.3011 12.5376 15.3402 12.4169 15.3757C12.2985 15.4089 12.1612 15.4384 12.005 15.4645C11.8511 15.4882 11.7008 15.5095 11.554 15.5284C11.4096 15.545 11.2924 15.5592 11.2024 15.571C10.9846 15.5994 10.781 15.6456 10.5916 15.7095C10.4046 15.7711 10.2531 15.8646 10.1371 15.9901C10.0234 16.1132 9.96662 16.2812 9.96662 16.4943C9.96662 16.7855 10.0743 17.0057 10.2898 17.1548C10.5076 17.3016 10.7834 17.375 11.1172 17.375ZM15.8571 14.7188V18H15.019V12.5455H15.8287V13.3977H15.8997C16.0275 13.1207 16.2217 12.8982 16.4821 12.7301C16.7425 12.5597 17.0787 12.4744 17.4906 12.4744C17.8599 12.4744 18.1831 12.5502 18.46 12.7017C18.737 12.8509 18.9525 13.0781 19.1064 13.3835C19.2602 13.6866 19.3372 14.0701 19.3372 14.5341V18H18.4991V14.5909C18.4991 14.1624 18.3878 13.8286 18.1653 13.5895C17.9428 13.348 17.6374 13.2273 17.2491 13.2273C16.9816 13.2273 16.7425 13.2853 16.5318 13.4013C16.3234 13.5173 16.1589 13.6866 16.0382 13.9091C15.9174 14.1316 15.8571 14.4015 15.8571 14.7188ZM23.2408 12.5455V13.2557H20.4141V12.5455H23.2408ZM21.2379 11.2386H22.076V16.4375C22.076 16.6742 22.1103 16.8518 22.179 16.9702C22.25 17.0862 22.34 17.1643 22.4489 17.2045C22.5601 17.2424 22.6773 17.2614 22.8004 17.2614C22.8928 17.2614 22.9685 17.2566 23.0277 17.2472C23.0869 17.2353 23.1342 17.2259 23.1697 17.2188L23.3402 17.9716C23.2834 17.9929 23.2041 18.0142 23.1023 18.0355C23.0005 18.0592 22.8714 18.071 22.7152 18.071C22.4785 18.071 22.2464 18.0201 22.0192 17.9183C21.7943 17.8165 21.6072 17.6615 21.4581 17.4531C21.3113 17.2448 21.2379 16.982 21.2379 16.6648V11.2386ZM26.1065 18.1278C25.7609 18.1278 25.4472 18.0627 25.1655 17.9325C24.8838 17.8 24.66 17.6094 24.4943 17.3608C24.3286 17.1098 24.2457 16.8068 24.2457 16.4517C24.2457 16.1392 24.3073 15.8859 24.4304 15.6918C24.5535 15.4953 24.718 15.3414 24.924 15.2301C25.13 15.1188 25.3572 15.036 25.6058 14.9815C25.8568 14.9247 26.1089 14.8797 26.3622 14.8466C26.6937 14.804 26.9624 14.772 27.1683 14.7507C27.3767 14.727 27.5282 14.688 27.6229 14.6335C27.7199 14.5791 27.7685 14.4844 27.7685 14.3494V14.321C27.7685 13.9706 27.6726 13.6984 27.4808 13.5043C27.2914 13.3101 27.0038 13.2131 26.6179 13.2131C26.2178 13.2131 25.9041 13.3007 25.6768 13.4759C25.4496 13.651 25.2898 13.8381 25.1974 14.0369L24.402 13.7528C24.544 13.4214 24.7334 13.1634 24.9702 12.9787C25.2093 12.7917 25.4697 12.6615 25.7514 12.5881C26.0355 12.5123 26.3149 12.4744 26.5895 12.4744C26.7647 12.4744 26.9659 12.4957 27.1932 12.5384C27.4228 12.5786 27.6442 12.6626 27.8572 12.7905C28.0727 12.9183 28.2514 13.1113 28.3935 13.3693C28.5355 13.6274 28.6065 13.973 28.6065 14.4062V18H27.7685V17.2614H27.7259C27.669 17.3797 27.5743 17.5064 27.4418 17.6413C27.3092 17.7763 27.1328 17.8911 26.9126 17.9858C26.6925 18.0805 26.4238 18.1278 26.1065 18.1278ZM26.2344 17.375C26.5658 17.375 26.8452 17.3099 27.0724 17.1797C27.3021 17.0495 27.4749 16.8814 27.5909 16.6754C27.7093 16.4695 27.7685 16.2528 27.7685 16.0256V15.2585C27.733 15.3011 27.6548 15.3402 27.5341 15.3757C27.4157 15.4089 27.2784 15.4384 27.1222 15.4645C26.9683 15.4882 26.8179 15.5095 26.6712 15.5284C26.5268 15.545 26.4096 15.5592 26.3196 15.571C26.1018 15.5994 25.8982 15.6456 25.7088 15.7095C25.5218 15.7711 25.3703 15.8646 25.2543 15.9901C25.1406 16.1132 25.0838 16.2812 25.0838 16.4943C25.0838 16.7855 25.1915 17.0057 25.407 17.1548C25.6248 17.3016 25.9006 17.375 26.2344 17.375ZM33.9998 13.767L33.247 13.9801C33.1996 13.8546 33.1298 13.7327 33.0375 13.6143C32.9475 13.4936 32.8244 13.3942 32.6681 13.3161C32.5119 13.2379 32.3118 13.1989 32.068 13.1989C31.7342 13.1989 31.456 13.2758 31.2335 13.4297C31.0133 13.5812 30.9032 13.7741 30.9032 14.0085C30.9032 14.2169 30.979 14.3814 31.1305 14.5021C31.282 14.6229 31.5188 14.7235 31.8407 14.804L32.6504 15.0028C33.1381 15.1212 33.5015 15.3023 33.7406 15.5462C33.9797 15.7876 34.0993 16.099 34.0993 16.4801C34.0993 16.7926 34.0093 17.072 33.8294 17.3182C33.6518 17.5644 33.4032 17.7585 33.0836 17.9006C32.764 18.0426 32.3923 18.1136 31.9686 18.1136C31.4122 18.1136 30.9518 17.9929 30.5872 17.7514C30.2226 17.5099 29.9918 17.1572 29.8947 16.6932L30.6902 16.4943C30.7659 16.7879 30.9092 17.008 31.1199 17.1548C31.3329 17.3016 31.6111 17.375 31.9544 17.375C32.345 17.375 32.6551 17.2921 32.8848 17.1264C33.1168 16.9583 33.2328 16.7571 33.2328 16.5227C33.2328 16.3333 33.1665 16.1747 33.0339 16.0469C32.9013 15.9167 32.6977 15.8196 32.4231 15.7557L31.514 15.5426C31.0145 15.4242 30.6475 15.2408 30.4132 14.9922C30.1812 14.7412 30.0652 14.4276 30.0652 14.0511C30.0652 13.7434 30.1516 13.4711 30.3244 13.2344C30.4996 12.9976 30.7375 12.8118 31.0382 12.6768C31.3412 12.5419 31.6845 12.4744 32.068 12.4744C32.6078 12.4744 33.0315 12.5928 33.3393 12.8295C33.6494 13.0663 33.8696 13.3788 33.9998 13.767ZM1.88068 30V22.7273H4.33807C4.90862 22.7273 5.375 22.8303 5.73722 23.0362C6.1018 23.2398 6.37169 23.5156 6.54688 23.8636C6.72206 24.2116 6.80966 24.5999 6.80966 25.0284C6.80966 25.4569 6.72206 25.8464 6.54688 26.1967C6.37405 26.5471 6.10653 26.8265 5.74432 27.0348C5.3821 27.2408 4.91809 27.3438 4.35227 27.3438H2.59091V26.5625H4.32386C4.71449 26.5625 5.02817 26.495 5.26491 26.3601C5.50166 26.2251 5.6733 26.0429 5.77983 25.8132C5.88873 25.5812 5.94318 25.3196 5.94318 25.0284C5.94318 24.7372 5.88873 24.4768 5.77983 24.2472C5.6733 24.0175 5.50047 23.8376 5.26136 23.7074C5.02225 23.5748 4.70502 23.5085 4.30966 23.5085H2.76136V30H1.88068ZM9.71982 30.1278C9.37417 30.1278 9.06049 30.0627 8.77876 29.9325C8.49704 29.8 8.27332 29.6094 8.1076 29.3608C7.94188 29.1098 7.85902 28.8068 7.85902 28.4517C7.85902 28.1392 7.92057 27.8859 8.04368 27.6918C8.16679 27.4953 8.33132 27.3414 8.53729 27.2301C8.74325 27.1188 8.97053 27.036 9.21911 26.9815C9.47005 26.9247 9.72218 26.8797 9.9755 26.8466C10.3069 26.804 10.5756 26.772 10.7816 26.7507C10.9899 26.727 11.1415 26.688 11.2362 26.6335C11.3332 26.5791 11.3817 26.4844 11.3817 26.3494V26.321C11.3817 25.9706 11.2859 25.6984 11.0941 25.5043C10.9047 25.3101 10.6171 25.2131 10.2312 25.2131C9.83108 25.2131 9.5174 25.3007 9.29013 25.4759C9.06286 25.651 8.90305 25.8381 8.81072 26.0369L8.01527 25.7528C8.15732 25.4214 8.34671 25.1634 8.58345 24.9787C8.82256 24.7917 9.08298 24.6615 9.3647 24.5881C9.64879 24.5123 9.92815 24.4744 10.2028 24.4744C10.378 24.4744 10.5792 24.4957 10.8065 24.5384C11.0361 24.5786 11.2575 24.6626 11.4705 24.7905C11.686 24.9183 11.8647 25.1113 12.0067 25.3693C12.1488 25.6274 12.2198 25.973 12.2198 26.4062V30H11.3817V29.2614H11.3391C11.2823 29.3797 11.1876 29.5064 11.055 29.6413C10.9225 29.7763 10.7461 29.8911 10.5259 29.9858C10.3058 30.0805 10.0371 30.1278 9.71982 30.1278ZM9.84766 29.375C10.1791 29.375 10.4585 29.3099 10.6857 29.1797C10.9154 29.0495 11.0882 28.8814 11.2042 28.6754C11.3226 28.4695 11.3817 28.2528 11.3817 28.0256V27.2585C11.3462 27.3011 11.2681 27.3402 11.1474 27.3757C11.029 27.4089 10.8917 27.4384 10.7354 27.4645C10.5816 27.4882 10.4312 27.5095 10.2844 27.5284C10.14 27.545 10.0228 27.5592 9.93288 27.571C9.71508 27.5994 9.51148 27.6456 9.32209 27.7095C9.13506 27.7711 8.98355 27.8646 8.86754 27.9901C8.75391 28.1132 8.69709 28.2812 8.69709 28.4943C8.69709 28.7855 8.80481 29.0057 9.02024 29.1548C9.23804 29.3016 9.51385 29.375 9.84766 29.375ZM14.0939 32.0455C13.9519 32.0455 13.8252 32.0336 13.714 32.0099C13.6027 31.9886 13.5257 31.9673 13.4831 31.946L13.6962 31.2074C13.8998 31.2595 14.0797 31.2784 14.236 31.2642C14.3922 31.25 14.5307 31.1802 14.6515 31.0547C14.7746 30.9316 14.887 30.7315 14.9888 30.4545L15.1451 30.0284L13.128 24.5455H14.0371L15.5428 28.892H15.5996L17.1053 24.5455H18.0144L15.699 30.7955C15.5949 31.0772 15.4658 31.3104 15.312 31.495C15.1581 31.6821 14.9793 31.8205 14.7757 31.9105C14.5745 32.0005 14.3472 32.0455 14.0939 32.0455Z" fill="black"/>
</svg>
