<svg width="48" height="48" viewBox="0 0 48 48" fill="none" xmlns="http://www.w3.org/2000/svg">
<path d="M24.002 2.40039C32.9043 2.40039 40.121 9.61716 40.1211 18.5195C40.1211 27.422 32.9044 34.6387 24.002 34.6387C15.0996 34.6386 7.88281 27.4219 7.88281 18.5195C7.8829 9.61721 15.0996 2.40048 24.002 2.40039ZM24.002 4.40039C16.2042 4.40047 9.8829 10.7218 9.88281 18.5195C9.88281 26.3174 16.2042 32.6386 24.002 32.6387C31.7998 32.6387 38.1211 26.3174 38.1211 18.5195C38.121 10.7217 31.7998 4.40039 24.002 4.40039Z" fill="#323232"/>
<path d="M4.15039 39.79L13.1924 38.954L17.5684 46.911L23.0534 36.576C22.3277 36.5389 21.6127 36.463 20.9123 36.3433C17.6972 36.3486 15.5249 36.0463 14.3954 35.4364C13.3119 34.8513 12.1833 33.4166 11.0093 31.1323C10.5099 30.6191 10.0479 30.0698 9.61139 29.5L4.15039 39.79Z" fill="#323232"/>
<path d="M11.0093 31.1328L7.65234 37.4578L14.3133 36.8418L17.5363 42.7048L20.9123 36.3438C17.0593 35.6828 13.6213 33.8178 11.0093 31.1328" fill="#8DE2E0"/>
<path d="M38.0332 29.9473C37.5858 30.4956 37.1035 31.0126 36.5961 31.5044C34.9891 33.6538 33.6304 35.006 32.52 35.5609C31.3783 36.1314 29.3839 36.4192 26.5371 36.4244C25.8251 36.5246 25.1042 36.5899 24.3682 36.6053L29.8392 46.9113L34.2152 38.9543L43.2572 39.7903L38.0332 29.9473Z" fill="#323232"/>
<path d="M26.5371 36.4239L29.8701 42.7039L33.0941 36.8419L39.7551 37.4579L36.5961 31.5039C33.9101 34.1089 30.4221 35.8759 26.5371 36.4239" fill="#8DE2E0"/>
<path d="M30.8598 16.291H26.0817L24.6042 11.7464C24.4143 11.1627 23.5877 11.1627 23.3979 11.7464L21.9215 16.291H17.1434C16.529 16.291 16.2731 17.0775 16.7708 17.4384L20.6362 20.2472L19.1598 24.7918C18.97 25.3756 19.6386 25.8614 20.1362 25.5005L24.0016 22.6917L27.867 25.5005C28.3646 25.8614 29.0332 25.3756 28.8434 24.7918L27.367 20.2472L31.2325 17.4384C31.7289 17.0775 31.4742 16.291 30.8598 16.291Z" fill="#E40000"/>
</svg>
