<svg width="391" height="190" viewBox="0 0 391 190" fill="none" xmlns="http://www.w3.org/2000/svg">
<rect x="0.5" y="0.5" width="390" height="189" rx="9.5" fill="white" stroke="#D0D0D0"/>
<rect x="144.5" y="59.5" width="102" height="102" rx="3.5" stroke="#979797"/>
<path d="M173.115 135.304V128.741H174.229V135.304H173.115ZM170.391 132.58V131.466H176.953V132.58H170.391ZM182.831 136.139C182.128 136.139 181.502 136.01 180.952 135.751C180.405 135.493 179.971 135.137 179.649 134.683C179.328 134.228 179.16 133.708 179.147 133.121H181.235C181.258 133.516 181.424 133.836 181.732 134.081C182.041 134.326 182.407 134.449 182.831 134.449C183.169 134.449 183.468 134.374 183.726 134.225C183.988 134.073 184.192 133.862 184.338 133.594C184.487 133.322 184.561 133.01 184.561 132.659C184.561 132.301 184.485 131.986 184.333 131.714C184.183 131.443 183.976 131.231 183.711 131.078C183.446 130.926 183.143 130.848 182.801 130.844C182.503 130.844 182.213 130.906 181.931 131.028C181.653 131.151 181.436 131.318 181.28 131.531L179.366 131.188L179.848 125.818H186.073V127.578H181.623L181.36 130.129H181.419C181.598 129.877 181.868 129.668 182.23 129.502C182.591 129.336 182.995 129.254 183.443 129.254C184.056 129.254 184.603 129.398 185.083 129.686C185.564 129.974 185.943 130.371 186.222 130.874C186.5 131.375 186.638 131.951 186.634 132.604C186.638 133.29 186.479 133.9 186.157 134.434C185.839 134.964 185.393 135.382 184.82 135.687C184.25 135.988 183.587 136.139 182.831 136.139ZM192.128 136.224C191.273 136.22 190.537 136.01 189.921 135.592C189.307 135.175 188.835 134.57 188.504 133.778C188.176 132.986 188.013 132.033 188.017 130.919C188.017 129.809 188.181 128.862 188.509 128.08C188.84 127.298 189.312 126.703 189.926 126.295C190.542 125.884 191.276 125.679 192.128 125.679C192.98 125.679 193.712 125.884 194.325 126.295C194.942 126.706 195.416 127.303 195.747 128.085C196.079 128.864 196.243 129.809 196.24 130.919C196.24 132.036 196.074 132.991 195.742 133.783C195.414 134.575 194.944 135.18 194.33 135.597C193.717 136.015 192.983 136.224 192.128 136.224ZM192.128 134.439C192.711 134.439 193.177 134.146 193.525 133.559C193.873 132.972 194.045 132.092 194.042 130.919C194.042 130.147 193.963 129.504 193.803 128.99C193.648 128.476 193.426 128.09 193.137 127.832C192.852 127.573 192.516 127.444 192.128 127.444C191.548 127.444 191.084 127.734 190.736 128.314C190.388 128.894 190.212 129.762 190.209 130.919C190.209 131.701 190.287 132.354 190.443 132.878C190.602 133.398 190.825 133.789 191.114 134.051C191.402 134.31 191.74 134.439 192.128 134.439ZM201.855 136V128H204.559C205.186 128 205.699 128.113 206.098 128.34C206.499 128.564 206.796 128.867 206.988 129.25C207.181 129.633 207.277 130.06 207.277 130.531C207.277 131.003 207.181 131.431 206.988 131.816C206.798 132.202 206.504 132.509 206.105 132.738C205.707 132.965 205.197 133.078 204.574 133.078H202.637V132.219H204.543C204.973 132.219 205.318 132.145 205.578 131.996C205.839 131.848 206.027 131.647 206.145 131.395C206.264 131.139 206.324 130.852 206.324 130.531C206.324 130.211 206.264 129.924 206.145 129.672C206.027 129.419 205.837 129.221 205.574 129.078C205.311 128.932 204.962 128.859 204.527 128.859H202.824V136H201.855ZM208.4 128.859V128H214.4V128.859H211.885V136H210.916V128.859H208.4ZM220.271 130C220.224 129.604 220.034 129.297 219.7 129.078C219.367 128.859 218.958 128.75 218.474 128.75C218.119 128.75 217.81 128.807 217.544 128.922C217.281 129.036 217.075 129.194 216.927 129.395C216.781 129.595 216.708 129.823 216.708 130.078C216.708 130.292 216.759 130.475 216.86 130.629C216.965 130.78 217.097 130.906 217.259 131.008C217.42 131.107 217.59 131.189 217.767 131.254C217.944 131.316 218.106 131.367 218.255 131.406L219.067 131.625C219.276 131.68 219.507 131.755 219.763 131.852C220.021 131.948 220.267 132.079 220.501 132.246C220.738 132.41 220.933 132.621 221.087 132.879C221.241 133.137 221.317 133.453 221.317 133.828C221.317 134.26 221.204 134.651 220.978 135C220.754 135.349 220.425 135.626 219.993 135.832C219.563 136.038 219.041 136.141 218.427 136.141C217.854 136.141 217.358 136.048 216.938 135.863C216.522 135.678 216.194 135.421 215.954 135.09C215.717 134.759 215.583 134.375 215.552 133.938H216.552C216.578 134.24 216.679 134.49 216.856 134.687C217.036 134.883 217.263 135.029 217.536 135.125C217.812 135.219 218.109 135.266 218.427 135.266C218.797 135.266 219.129 135.206 219.423 135.086C219.717 134.964 219.95 134.794 220.122 134.578C220.294 134.359 220.38 134.104 220.38 133.812C220.38 133.547 220.306 133.331 220.157 133.164C220.009 132.997 219.813 132.862 219.571 132.758C219.329 132.654 219.067 132.562 218.786 132.484L217.802 132.203C217.177 132.023 216.682 131.767 216.317 131.434C215.953 131.1 215.771 130.664 215.771 130.125C215.771 129.677 215.892 129.286 216.134 128.953C216.379 128.617 216.707 128.357 217.118 128.172C217.532 127.984 217.994 127.891 218.505 127.891C219.021 127.891 219.479 127.983 219.88 128.168C220.281 128.35 220.599 128.6 220.833 128.918C221.07 129.236 221.195 129.596 221.208 130H220.271Z" fill="black"/>
<path d="M173.5 82.5H218.5C226.232 82.5 232.5 88.768 232.5 96.5C232.5 104.232 226.232 110.5 218.5 110.5H173.5C165.768 110.5 159.5 104.232 159.5 96.5C159.5 88.768 165.768 82.5 173.5 82.5Z" fill="#F6F6F6" stroke="white"/>
<path d="M180.513 93.7464C180.473 93.3454 180.302 93.0339 180.001 92.8118C179.699 92.5897 179.29 92.4787 178.773 92.4787C178.421 92.4787 178.125 92.5284 177.883 92.6278C177.641 92.724 177.455 92.8582 177.326 93.0305C177.2 93.2029 177.137 93.3984 177.137 93.6172C177.131 93.7995 177.169 93.9586 177.252 94.0945C177.338 94.2304 177.455 94.348 177.604 94.4474C177.754 94.5436 177.926 94.6281 178.122 94.701C178.317 94.7706 178.526 94.8303 178.748 94.88L179.663 95.0987C180.107 95.1982 180.515 95.3307 180.886 95.4964C181.257 95.6622 181.578 95.866 181.85 96.108C182.122 96.3499 182.332 96.6349 182.482 96.9631C182.634 97.2912 182.712 97.6674 182.715 98.0916C182.712 98.7147 182.553 99.255 182.238 99.7124C181.926 100.166 181.476 100.519 180.886 100.771C180.299 101.02 179.591 101.144 178.763 101.144C177.941 101.144 177.225 101.018 176.615 100.766C176.009 100.514 175.535 100.142 175.193 99.6477C174.855 99.1506 174.678 98.5357 174.661 97.8033H176.744C176.768 98.1446 176.865 98.4297 177.038 98.6584C177.213 98.8838 177.447 99.0545 177.739 99.1705C178.034 99.2831 178.367 99.3395 178.738 99.3395C179.103 99.3395 179.419 99.2865 179.688 99.1804C179.959 99.0743 180.17 98.9268 180.319 98.7379C180.468 98.549 180.543 98.3319 180.543 98.0866C180.543 97.858 180.475 97.6657 180.339 97.5099C180.206 97.3542 180.011 97.2216 179.752 97.1122C179.497 97.0028 179.184 96.9034 178.813 96.8139L177.704 96.5355C176.845 96.3267 176.168 96.0002 175.671 95.5561C175.173 95.112 174.926 94.5137 174.93 93.7614C174.926 93.1449 175.091 92.6063 175.422 92.1456C175.757 91.6849 176.216 91.3253 176.799 91.0668C177.382 90.8082 178.045 90.679 178.788 90.679C179.543 90.679 180.203 90.8082 180.766 91.0668C181.333 91.3253 181.774 91.6849 182.089 92.1456C182.404 92.6063 182.566 93.1399 182.576 93.7464H180.513ZM187.604 101.149C186.818 101.149 186.142 100.99 185.575 100.672C185.012 100.35 184.578 99.8963 184.273 99.3097C183.968 98.7197 183.815 98.022 183.815 97.2166C183.815 96.4311 183.968 95.7417 184.273 95.1484C184.578 94.5552 185.007 94.0928 185.56 93.7614C186.117 93.4299 186.77 93.2642 187.519 93.2642C188.023 93.2642 188.492 93.3454 188.926 93.5078C189.364 93.6669 189.745 93.9072 190.07 94.2287C190.398 94.5502 190.653 94.9545 190.835 95.4418C191.017 95.9257 191.109 96.4924 191.109 97.142V97.7237H184.66V96.4112H189.115C189.115 96.1063 189.049 95.8362 188.916 95.6009C188.784 95.3655 188.6 95.1816 188.364 95.049C188.132 94.9131 187.862 94.8452 187.554 94.8452C187.232 94.8452 186.947 94.9197 186.699 95.0689C186.454 95.2147 186.261 95.4119 186.122 95.6605C185.983 95.9058 185.912 96.1792 185.908 96.4808V97.7287C185.908 98.1065 185.978 98.433 186.117 98.7081C186.26 98.9832 186.46 99.1953 186.719 99.3445C186.977 99.4936 187.284 99.5682 187.638 99.5682C187.874 99.5682 188.089 99.535 188.285 99.4688C188.48 99.4025 188.648 99.303 188.787 99.1705C188.926 99.0379 189.032 98.8755 189.105 98.6832L191.064 98.8125C190.964 99.2831 190.761 99.6941 190.452 100.045C190.147 100.393 189.753 100.665 189.269 100.861C188.789 101.053 188.233 101.149 187.604 101.149ZM196.552 93.3636V94.9545H191.954V93.3636H196.552ZM192.998 91.5341H195.116V98.6534C195.116 98.849 195.146 99.0014 195.205 99.1108C195.265 99.2169 195.348 99.2914 195.454 99.3345C195.563 99.3776 195.689 99.3991 195.832 99.3991C195.931 99.3991 196.03 99.3909 196.13 99.3743C196.229 99.3544 196.306 99.3395 196.359 99.3295L196.692 100.906C196.586 100.939 196.436 100.977 196.244 101.02C196.052 101.066 195.818 101.094 195.543 101.104C195.033 101.124 194.585 101.056 194.201 100.901C193.82 100.745 193.523 100.503 193.311 100.175C193.099 99.8466 192.994 99.4323 192.998 98.9318V91.5341ZM206.069 97.7486V93.3636H208.187V101H206.154V99.6129H206.074C205.902 100.06 205.615 100.42 205.214 100.692C204.816 100.964 204.331 101.099 203.758 101.099C203.247 101.099 202.798 100.983 202.41 100.751C202.022 100.519 201.719 100.19 201.5 99.7621C201.285 99.3345 201.176 98.8224 201.172 98.2259V93.3636H203.29V97.848C203.294 98.2988 203.415 98.6551 203.653 98.9169C203.892 99.1787 204.212 99.3097 204.613 99.3097C204.868 99.3097 205.107 99.2517 205.329 99.1357C205.551 99.0163 205.73 98.8407 205.866 98.6087C206.005 98.3767 206.073 98.09 206.069 97.7486ZM209.881 103.864V93.3636H211.969V94.6463H212.064C212.157 94.4408 212.291 94.232 212.467 94.0199C212.646 93.8045 212.878 93.6255 213.163 93.483C213.451 93.3371 213.809 93.2642 214.236 93.2642C214.793 93.2642 215.307 93.41 215.778 93.7017C216.248 93.9901 216.624 94.4259 216.906 95.0092C217.188 95.5893 217.329 96.3168 217.329 97.1918C217.329 98.0436 217.191 98.7628 216.916 99.3494C216.644 99.9328 216.273 100.375 215.802 100.677C215.335 100.975 214.811 101.124 214.231 101.124C213.82 101.124 213.471 101.056 213.182 100.92C212.897 100.785 212.664 100.614 212.481 100.408C212.299 100.2 212.16 99.9891 212.064 99.777H211.999V103.864H209.881ZM211.954 97.1818C211.954 97.6359 212.017 98.032 212.143 98.37C212.269 98.7081 212.452 98.9716 212.69 99.1605C212.929 99.3461 213.219 99.4389 213.56 99.4389C213.905 99.4389 214.197 99.3445 214.435 99.1555C214.674 98.9633 214.855 98.6982 214.977 98.3601C215.103 98.0187 215.166 97.6259 215.166 97.1818C215.166 96.741 215.105 96.3532 214.982 96.0185C214.86 95.6837 214.679 95.4219 214.44 95.233C214.202 95.044 213.908 94.9496 213.56 94.9496C213.216 94.9496 212.924 95.0407 212.685 95.223C212.45 95.4053 212.269 95.6638 212.143 95.9986C212.017 96.3333 211.954 96.7277 211.954 97.1818Z" fill="#E40000"/>
<path d="M177.8 33.7102C177.755 33.2519 177.56 32.8958 177.215 32.642C176.871 32.3883 176.403 32.2614 175.812 32.2614C175.41 32.2614 175.071 32.3182 174.795 32.4318C174.518 32.5417 174.306 32.6951 174.158 32.892C174.014 33.089 173.942 33.3125 173.942 33.5625C173.935 33.7708 173.978 33.9527 174.073 34.108C174.172 34.2633 174.306 34.3977 174.477 34.5114C174.647 34.6212 174.844 34.7178 175.067 34.8011C175.291 34.8807 175.53 34.9489 175.783 35.0057L176.829 35.2557C177.336 35.3693 177.802 35.5208 178.227 35.7102C178.651 35.8996 179.018 36.1326 179.329 36.4091C179.639 36.6856 179.88 37.0114 180.05 37.3864C180.225 37.7614 180.314 38.1913 180.317 38.6761C180.314 39.3883 180.132 40.0057 179.772 40.5284C179.416 41.0473 178.901 41.4508 178.227 41.7386C177.556 42.0227 176.747 42.1648 175.8 42.1648C174.861 42.1648 174.043 42.0208 173.346 41.733C172.653 41.4451 172.111 41.0189 171.721 40.4545C171.335 39.8864 171.132 39.1837 171.113 38.3466H173.494C173.52 38.7367 173.632 39.0625 173.829 39.3239C174.03 39.5814 174.297 39.7765 174.63 39.9091C174.967 40.0379 175.348 40.1023 175.772 40.1023C176.189 40.1023 176.55 40.0417 176.857 39.9205C177.168 39.7992 177.408 39.6307 177.579 39.4148C177.749 39.1989 177.835 38.9508 177.835 38.6705C177.835 38.4091 177.757 38.1894 177.602 38.0114C177.45 37.8333 177.227 37.6818 176.931 37.5568C176.639 37.4318 176.281 37.3182 175.857 37.2159L174.59 36.8977C173.609 36.6591 172.835 36.286 172.266 35.7784C171.698 35.2708 171.416 34.5871 171.42 33.7273C171.416 33.0227 171.603 32.4072 171.982 31.8807C172.365 31.3542 172.889 30.9432 173.556 30.6477C174.223 30.3523 174.98 30.2045 175.829 30.2045C176.692 30.2045 177.446 30.3523 178.09 30.6477C178.738 30.9432 179.242 31.3542 179.602 31.8807C179.961 32.4072 180.147 33.017 180.158 33.7102H177.8ZM185.904 42.1705C185.006 42.1705 184.234 41.9886 183.586 41.625C182.942 41.2576 182.446 40.7386 182.097 40.0682C181.749 39.3939 181.575 38.5966 181.575 37.6761C181.575 36.7784 181.749 35.9905 182.097 35.3125C182.446 34.6345 182.936 34.1061 183.569 33.7273C184.205 33.3485 184.951 33.1591 185.808 33.1591C186.383 33.1591 186.919 33.2519 187.415 33.4375C187.915 33.6193 188.351 33.8939 188.722 34.2614C189.097 34.6288 189.389 35.0909 189.597 35.6477C189.806 36.2008 189.91 36.8485 189.91 37.5909V38.2557H182.54V36.7557H187.631C187.631 36.4072 187.556 36.0985 187.404 35.8295C187.253 35.5606 187.042 35.3504 186.773 35.1989C186.508 35.0436 186.2 34.9659 185.847 34.9659C185.48 34.9659 185.154 35.0511 184.87 35.2216C184.59 35.3883 184.37 35.6136 184.211 35.8977C184.052 36.178 183.97 36.4905 183.967 36.8352V38.2614C183.967 38.6932 184.046 39.0663 184.205 39.3807C184.368 39.6951 184.597 39.9375 184.893 40.108C185.188 40.2784 185.539 40.3636 185.944 40.3636C186.213 40.3636 186.459 40.3258 186.683 40.25C186.906 40.1742 187.097 40.0606 187.256 39.9091C187.415 39.7576 187.537 39.572 187.62 39.3523L189.859 39.5C189.745 40.0379 189.512 40.5076 189.16 40.9091C188.811 41.3068 188.361 41.6174 187.808 41.8409C187.258 42.0606 186.624 42.1705 185.904 42.1705ZM196.131 33.2727V35.0909H190.876V33.2727H196.131ZM192.069 31.1818H194.489V39.3182C194.489 39.5417 194.523 39.7159 194.592 39.8409C194.66 39.9621 194.754 40.0473 194.876 40.0966C195.001 40.1458 195.145 40.1705 195.308 40.1705C195.421 40.1705 195.535 40.161 195.648 40.142C195.762 40.1193 195.849 40.1023 195.91 40.0909L196.29 41.892C196.169 41.9299 195.999 41.9735 195.779 42.0227C195.559 42.0758 195.292 42.108 194.978 42.1193C194.395 42.142 193.883 42.0644 193.444 41.8864C193.008 41.7083 192.669 41.4318 192.427 41.0568C192.184 40.6818 192.065 40.2083 192.069 39.6364V31.1818ZM207.008 38.2841V33.2727H209.428V42H207.104V40.4148H207.013C206.817 40.9261 206.489 41.3371 206.031 41.6477C205.576 41.9583 205.021 42.1136 204.366 42.1136C203.782 42.1136 203.269 41.9811 202.826 41.7159C202.383 41.4508 202.036 41.0739 201.786 40.5852C201.54 40.0966 201.415 39.5114 201.411 38.8295V33.2727H203.832V38.3977C203.835 38.9129 203.974 39.3201 204.246 39.6193C204.519 39.9186 204.885 40.0682 205.343 40.0682C205.635 40.0682 205.907 40.0019 206.161 39.8693C206.415 39.733 206.62 39.5322 206.775 39.267C206.934 39.0019 207.012 38.6742 207.008 38.2841ZM211.364 45.2727V33.2727H213.751V34.7386H213.859C213.965 34.5038 214.118 34.2652 214.319 34.0227C214.523 33.7765 214.789 33.572 215.114 33.4091C215.444 33.2424 215.853 33.1591 216.342 33.1591C216.978 33.1591 217.565 33.3258 218.103 33.6591C218.641 33.9886 219.071 34.4867 219.393 35.1534C219.715 35.8163 219.876 36.6477 219.876 37.6477C219.876 38.6212 219.719 39.4432 219.404 40.1136C219.094 40.7803 218.669 41.286 218.131 41.6307C217.597 41.9716 216.999 42.142 216.336 42.142C215.866 42.142 215.467 42.0644 215.137 41.9091C214.811 41.7538 214.544 41.5587 214.336 41.3239C214.128 41.0852 213.969 40.8447 213.859 40.6023H213.785V45.2727H211.364ZM213.734 37.6364C213.734 38.1553 213.806 38.608 213.95 38.9943C214.094 39.3807 214.302 39.6818 214.575 39.8977C214.847 40.1098 215.179 40.2159 215.569 40.2159C215.963 40.2159 216.296 40.108 216.569 39.892C216.842 39.6723 217.048 39.3693 217.188 38.983C217.332 38.5928 217.404 38.1439 217.404 37.6364C217.404 37.1326 217.334 36.6894 217.194 36.3068C217.054 35.9242 216.847 35.625 216.575 35.4091C216.302 35.1932 215.967 35.0852 215.569 35.0852C215.175 35.0852 214.842 35.1894 214.569 35.3977C214.3 35.6061 214.094 35.9015 213.95 36.2841C213.806 36.6667 213.734 37.1174 213.734 37.6364Z" fill="black"/>
<rect x="21.5" y="59.5" width="102" height="102" rx="3.5" stroke="#979797"/>
<rect x="55.5" y="79.5" width="56" height="15" stroke="black"/>
<rect x="55.5" y="103.5" width="56" height="15" stroke="#979797"/>
<rect x="55.5" y="128.5" width="56" height="15" stroke="#979797"/>
<rect x="34" y="80" width="13" height="14" stroke="black" stroke-width="2"/>
<mask id="path-12-outside-1_264_1497" maskUnits="userSpaceOnUse" x="30.6872" y="68.8088" width="26.163" height="26.163" fill="black">
<rect fill="white" x="30.6872" y="68.8088" width="26.163" height="26.163"/>
<path d="M40.4852 87.3959L50.9406 76.9405L53.2642 79.2642L40.4859 92.0425L33.5156 85.0723L35.8386 82.7493L40.4852 87.3959Z"/>
</mask>
<path d="M40.4852 87.3959L50.9406 76.9405L53.2642 79.2642L40.4859 92.0425L33.5156 85.0723L35.8386 82.7493L40.4852 87.3959Z" fill="#E40000"/>
<path d="M40.4852 87.3959L39.071 88.8101L40.4852 90.2243L41.8994 88.8101L40.4852 87.3959ZM50.9406 76.9405L52.3548 75.5263L50.9406 74.1121L49.5263 75.5263L50.9406 76.9405ZM53.2642 79.2642L54.6784 80.6784L56.0926 79.2642L54.6784 77.85L53.2642 79.2642ZM40.4859 92.0425L39.0717 93.4567L40.4859 94.8709L41.9001 93.4567L40.4859 92.0425ZM33.5156 85.0723L32.1014 83.6581L30.6872 85.0723L32.1014 86.4865L33.5156 85.0723ZM35.8386 82.7493L37.2528 81.3351L35.8386 79.9209L34.4244 81.3351L35.8386 82.7493ZM40.4852 87.3959L41.8994 88.8101L52.3548 78.3548L50.9406 76.9405L49.5263 75.5263L39.071 85.9817L40.4852 87.3959ZM50.9406 76.9405L49.5263 78.3548L51.85 80.6784L53.2642 79.2642L54.6784 77.85L52.3548 75.5263L50.9406 76.9405ZM53.2642 79.2642L51.85 77.85L39.0717 90.6283L40.4859 92.0425L41.9001 93.4567L54.6784 80.6784L53.2642 79.2642ZM40.4859 92.0425L41.9001 90.6283L34.9298 83.6581L33.5156 85.0723L32.1014 86.4865L39.0717 93.4567L40.4859 92.0425ZM33.5156 85.0723L34.9298 86.4865L37.2528 84.1635L35.8386 82.7493L34.4244 81.3351L32.1014 83.6581L33.5156 85.0723ZM35.8386 82.7493L34.4244 84.1635L39.071 88.8101L40.4852 87.3959L41.8994 85.9817L37.2528 81.3351L35.8386 82.7493Z" fill="#F6F6F6" mask="url(#path-12-outside-1_264_1497)"/>
<rect x="34" y="104" width="13" height="14" stroke="#979797" stroke-width="2"/>
<rect x="34" y="129" width="13" height="14" stroke="#979797" stroke-width="2"/>
<path d="M53.6847 34.4375H51.196C51.1506 34.1155 51.0578 33.8295 50.9176 33.5795C50.7775 33.3258 50.5975 33.1098 50.3778 32.9318C50.1581 32.7538 49.9044 32.6174 49.6165 32.5227C49.3324 32.428 49.0237 32.3807 48.6903 32.3807C48.0881 32.3807 47.5634 32.5303 47.1165 32.8295C46.6695 33.125 46.3229 33.5568 46.0767 34.125C45.8305 34.6894 45.7074 35.375 45.7074 36.1818C45.7074 37.0114 45.8305 37.7083 46.0767 38.2727C46.3267 38.8371 46.6752 39.2633 47.1222 39.5511C47.5691 39.839 48.0862 39.983 48.6733 39.983C49.0028 39.983 49.3078 39.9394 49.5881 39.8523C49.8722 39.7652 50.1241 39.6383 50.3438 39.4716C50.5634 39.3011 50.7453 39.0947 50.8892 38.8523C51.0369 38.6098 51.1392 38.3333 51.196 38.0227L53.6847 38.0341C53.6203 38.5682 53.4593 39.0833 53.2017 39.5795C52.9479 40.072 52.6051 40.5133 52.1733 40.9034C51.7453 41.2898 51.2339 41.5966 50.6392 41.8239C50.0483 42.0473 49.3797 42.1591 48.6335 42.1591C47.5956 42.1591 46.6676 41.9242 45.8494 41.4545C45.035 40.9848 44.3911 40.3049 43.9176 39.4148C43.4479 38.5246 43.2131 37.447 43.2131 36.1818C43.2131 34.9129 43.4517 33.8333 43.929 32.9432C44.4063 32.053 45.054 31.375 45.8722 30.9091C46.6903 30.4394 47.6108 30.2045 48.6335 30.2045C49.3078 30.2045 49.9328 30.2992 50.5085 30.4886C51.0881 30.678 51.6013 30.9545 52.0483 31.3182C52.4953 31.678 52.8589 32.1193 53.1392 32.642C53.4233 33.1648 53.6051 33.7633 53.6847 34.4375ZM57.8239 36.9545V42H55.4034V30.3636H57.7557V34.8125H57.858C58.0549 34.2973 58.3731 33.8939 58.8125 33.6023C59.2519 33.3068 59.803 33.1591 60.4659 33.1591C61.072 33.1591 61.6004 33.2917 62.0511 33.5568C62.5057 33.8182 62.858 34.1951 63.108 34.6875C63.3617 35.1761 63.4867 35.7614 63.483 36.4432V42H61.0625V36.875C61.0663 36.3371 60.9299 35.9186 60.6534 35.6193C60.3807 35.3201 59.9981 35.1705 59.5057 35.1705C59.1761 35.1705 58.8845 35.2405 58.6307 35.3807C58.3807 35.5208 58.1837 35.7254 58.0398 35.9943C57.8996 36.2595 57.8277 36.5795 57.8239 36.9545ZM69.331 42.1705C68.4484 42.1705 67.6851 41.983 67.0412 41.608C66.401 41.2292 65.9067 40.7027 65.5582 40.0284C65.2098 39.3504 65.0355 38.5644 65.0355 37.6705C65.0355 36.7689 65.2098 35.9811 65.5582 35.3068C65.9067 34.6288 66.401 34.1023 67.0412 33.7273C67.6851 33.3485 68.4484 33.1591 69.331 33.1591C70.2135 33.1591 70.9749 33.3485 71.6151 33.7273C72.259 34.1023 72.7552 34.6288 73.1037 35.3068C73.4522 35.9811 73.6264 36.7689 73.6264 37.6705C73.6264 38.5644 73.4522 39.3504 73.1037 40.0284C72.7552 40.7027 72.259 41.2292 71.6151 41.608C70.9749 41.983 70.2135 42.1705 69.331 42.1705ZM69.3423 40.2955C69.7438 40.2955 70.0791 40.1818 70.348 39.9545C70.617 39.7235 70.8196 39.4091 70.956 39.0114C71.0961 38.6136 71.1662 38.161 71.1662 37.6534C71.1662 37.1458 71.0961 36.6932 70.956 36.2955C70.8196 35.8977 70.617 35.5833 70.348 35.3523C70.0791 35.1212 69.7438 35.0057 69.3423 35.0057C68.937 35.0057 68.5961 35.1212 68.3196 35.3523C68.0469 35.5833 67.8404 35.8977 67.7003 36.2955C67.5639 36.6932 67.4957 37.1458 67.4957 37.6534C67.4957 38.161 67.5639 38.6136 67.7003 39.0114C67.8404 39.4091 68.0469 39.7235 68.3196 39.9545C68.5961 40.1818 68.937 40.2955 69.3423 40.2955ZM79.1435 42.1705C78.2609 42.1705 77.4976 41.983 76.8537 41.608C76.2135 41.2292 75.7192 40.7027 75.3707 40.0284C75.0223 39.3504 74.848 38.5644 74.848 37.6705C74.848 36.7689 75.0223 35.9811 75.3707 35.3068C75.7192 34.6288 76.2135 34.1023 76.8537 33.7273C77.4976 33.3485 78.2609 33.1591 79.1435 33.1591C80.026 33.1591 80.7874 33.3485 81.4276 33.7273C82.0715 34.1023 82.5677 34.6288 82.9162 35.3068C83.2647 35.9811 83.4389 36.7689 83.4389 37.6705C83.4389 38.5644 83.2647 39.3504 82.9162 40.0284C82.5677 40.7027 82.0715 41.2292 81.4276 41.608C80.7874 41.983 80.026 42.1705 79.1435 42.1705ZM79.1548 40.2955C79.5563 40.2955 79.8916 40.1818 80.1605 39.9545C80.4295 39.7235 80.6321 39.4091 80.7685 39.0114C80.9086 38.6136 80.9787 38.161 80.9787 37.6534C80.9787 37.1458 80.9086 36.6932 80.7685 36.2955C80.6321 35.8977 80.4295 35.5833 80.1605 35.3523C79.8916 35.1212 79.5563 35.0057 79.1548 35.0057C78.7495 35.0057 78.4086 35.1212 78.1321 35.3523C77.8594 35.5833 77.6529 35.8977 77.5128 36.2955C77.3764 36.6932 77.3082 37.1458 77.3082 37.6534C77.3082 38.161 77.3764 38.6136 77.5128 39.0114C77.6529 39.4091 77.8594 39.7235 78.1321 39.9545C78.4086 40.1818 78.7495 40.2955 79.1548 40.2955ZM92.2741 35.7614L90.0582 35.8977C90.0204 35.7083 89.9389 35.5379 89.8139 35.3864C89.6889 35.2311 89.5241 35.108 89.3196 35.017C89.1188 34.9223 88.8783 34.875 88.598 34.875C88.223 34.875 87.9067 34.9545 87.6491 35.1136C87.3916 35.2689 87.2628 35.4773 87.2628 35.7386C87.2628 35.947 87.3461 36.1231 87.5128 36.267C87.6795 36.411 87.9654 36.5265 88.3707 36.6136L89.9503 36.9318C90.7988 37.1061 91.4313 37.3864 91.848 37.7727C92.2647 38.1591 92.473 38.6667 92.473 39.2955C92.473 39.8674 92.3045 40.3693 91.9673 40.8011C91.634 41.233 91.1757 41.5701 90.5923 41.8125C90.0128 42.0511 89.3442 42.1705 88.5866 42.1705C87.4313 42.1705 86.5109 41.9299 85.8253 41.4489C85.1435 40.964 84.7438 40.3049 84.6264 39.4716L87.0071 39.3466C87.0791 39.6989 87.2533 39.9678 87.5298 40.1534C87.8063 40.3352 88.1605 40.4261 88.5923 40.4261C89.0166 40.4261 89.3575 40.3447 89.6151 40.1818C89.8764 40.0152 90.009 39.8011 90.0128 39.5398C90.009 39.3201 89.9162 39.1402 89.7344 39C89.5526 38.8561 89.2723 38.7462 88.8935 38.6705L87.3821 38.3693C86.5298 38.1989 85.8954 37.9034 85.4787 37.483C85.0658 37.0625 84.8594 36.5265 84.8594 35.875C84.8594 35.3144 85.0109 34.8314 85.3139 34.4261C85.6207 34.0208 86.0507 33.7083 86.6037 33.4886C87.1605 33.2689 87.812 33.1591 88.5582 33.1591C89.6605 33.1591 90.5279 33.392 91.1605 33.858C91.7969 34.3239 92.1681 34.9583 92.2741 35.7614ZM97.9744 42.1705C97.0767 42.1705 96.304 41.9886 95.6562 41.625C95.0123 41.2576 94.5161 40.7386 94.1676 40.0682C93.8191 39.3939 93.6449 38.5966 93.6449 37.6761C93.6449 36.7784 93.8191 35.9905 94.1676 35.3125C94.5161 34.6345 95.0066 34.1061 95.6392 33.7273C96.2756 33.3485 97.0218 33.1591 97.8778 33.1591C98.4536 33.1591 98.9896 33.2519 99.4858 33.4375C99.9858 33.6193 100.421 33.8939 100.793 34.2614C101.168 34.6288 101.459 35.0909 101.668 35.6477C101.876 36.2008 101.98 36.8485 101.98 37.5909V38.2557H94.6108V36.7557H99.7017C99.7017 36.4072 99.6259 36.0985 99.4744 35.8295C99.3229 35.5606 99.1127 35.3504 98.8438 35.1989C98.5786 35.0436 98.2699 34.9659 97.9176 34.9659C97.5502 34.9659 97.2244 35.0511 96.9403 35.2216C96.66 35.3883 96.4403 35.6136 96.2812 35.8977C96.1222 36.178 96.0407 36.4905 96.0369 36.8352V38.2614C96.0369 38.6932 96.1165 39.0663 96.2756 39.3807C96.4384 39.6951 96.6676 39.9375 96.9631 40.108C97.2585 40.2784 97.6089 40.3636 98.0142 40.3636C98.2831 40.3636 98.5294 40.3258 98.7528 40.25C98.9763 40.1742 99.1676 40.0606 99.3267 39.9091C99.4858 39.7576 99.607 39.572 99.6903 39.3523L101.929 39.5C101.815 40.0379 101.582 40.5076 101.23 40.9091C100.882 41.3068 100.431 41.6174 99.8778 41.8409C99.3286 42.0606 98.6941 42.1705 97.9744 42.1705Z" fill="black"/>
<rect x="267.5" y="59.5" width="102" height="102" rx="3.5" stroke="#979797"/>
<path d="M321.666 74.2031C334.552 74.2033 344.999 84.6497 344.999 97.5361C344.999 110.019 335.196 120.213 322.869 120.839L322.81 120.062C334.735 119.467 344.222 109.61 344.222 97.5361C344.222 85.0793 334.123 74.9806 321.666 74.9805C309.209 74.9805 299.111 85.0792 299.11 97.5361C299.11 109.442 308.334 119.192 320.025 120.032L319.981 120.809C307.881 119.945 298.332 109.856 298.332 97.5361C298.332 84.6496 308.779 74.2031 321.666 74.2031Z" fill="#9F9F9F"/>
<path d="M322.444 71.0918C327.58 71.0918 332.373 72.5581 336.431 75.0918L334.425 78.4238C330.953 76.2432 326.846 74.9805 322.444 74.9805C309.987 74.9805 299.889 85.0792 299.889 97.5361C299.889 109.441 309.113 119.192 320.804 120.032L320.585 123.914C306.848 122.96 296 111.516 296 97.5361C296 82.9315 307.84 71.0919 322.444 71.0918Z" fill="#E40000"/>
<path d="M321.5 85.5C328.127 85.5 333.5 90.8726 333.5 97.5C333.5 104.127 328.127 109.5 321.5 109.5C314.873 109.5 309.5 104.127 309.5 97.5C309.5 90.8726 314.873 85.5 321.5 85.5Z" fill="#F6F6F6" stroke="white"/>
<path d="M291.926 147.169C291.073 147.169 290.313 147.012 289.644 146.698C288.98 146.384 288.453 145.952 288.063 145.4C287.672 144.849 287.469 144.217 287.453 143.505H289.989C290.017 143.984 290.218 144.372 290.592 144.67C290.967 144.968 291.411 145.116 291.926 145.116C292.337 145.116 292.699 145.026 293.013 144.845C293.331 144.66 293.579 144.404 293.756 144.078C293.937 143.748 294.027 143.37 294.027 142.943C294.027 142.509 293.935 142.126 293.75 141.796C293.568 141.466 293.317 141.209 292.995 141.023C292.673 140.838 292.305 140.744 291.89 140.74C291.528 140.74 291.176 140.814 290.834 140.963C290.496 141.112 290.232 141.315 290.043 141.573L287.719 141.156L288.304 134.636H295.863V136.773H290.459L290.14 139.87H290.212C290.429 139.565 290.757 139.311 291.196 139.11C291.635 138.908 292.126 138.808 292.669 138.808C293.414 138.808 294.078 138.983 294.661 139.333C295.245 139.683 295.706 140.164 296.044 140.776C296.382 141.384 296.549 142.084 296.545 142.877C296.549 143.71 296.356 144.45 295.965 145.098C295.579 145.742 295.037 146.249 294.341 146.62C293.649 146.986 292.844 147.169 291.926 147.169ZM303.216 147.272C302.177 147.268 301.284 147.012 300.535 146.505C299.791 145.998 299.217 145.263 298.815 144.301C298.416 143.34 298.219 142.183 298.223 140.83C298.223 139.482 298.422 138.333 298.821 137.383C299.223 136.433 299.797 135.711 300.541 135.216C301.29 134.717 302.181 134.467 303.216 134.467C304.25 134.467 305.139 134.717 305.884 135.216C306.632 135.715 307.208 136.439 307.61 137.389C308.013 138.335 308.212 139.482 308.208 140.83C308.208 142.187 308.007 143.346 307.604 144.308C307.206 145.269 306.634 146.004 305.89 146.511C305.145 147.018 304.254 147.272 303.216 147.272ZM303.216 145.104C303.924 145.104 304.489 144.748 304.912 144.036C305.334 143.324 305.544 142.255 305.54 140.83C305.54 139.893 305.443 139.112 305.25 138.488C305.061 137.864 304.791 137.395 304.441 137.081C304.095 136.767 303.686 136.61 303.216 136.61C302.511 136.61 301.948 136.963 301.525 137.667C301.103 138.371 300.889 139.426 300.885 140.83C300.885 141.78 300.98 142.573 301.169 143.209C301.362 143.841 301.634 144.316 301.984 144.634C302.334 144.947 302.745 145.104 303.216 145.104ZM314.92 147.272C313.881 147.268 312.988 147.012 312.239 146.505C311.495 145.998 310.921 145.263 310.519 144.301C310.12 143.34 309.923 142.183 309.927 140.83C309.927 139.482 310.126 138.333 310.525 137.383C310.927 136.433 311.501 135.711 312.245 135.216C312.994 134.717 313.885 134.467 314.92 134.467C315.954 134.467 316.843 134.717 317.588 135.216C318.337 135.715 318.912 136.439 319.314 137.389C319.717 138.335 319.916 139.482 319.912 140.83C319.912 142.187 319.711 143.346 319.308 144.308C318.91 145.269 318.339 146.004 317.594 146.511C316.849 147.018 315.958 147.272 314.92 147.272ZM314.92 145.104C315.628 145.104 316.193 144.748 316.616 144.036C317.039 143.324 317.248 142.255 317.244 140.83C317.244 139.893 317.147 139.112 316.954 138.488C316.765 137.864 316.495 137.395 316.145 137.081C315.799 136.767 315.39 136.61 314.92 136.61C314.215 136.61 313.652 136.963 313.229 137.667C312.807 138.371 312.593 139.426 312.589 140.83C312.589 141.78 312.684 142.573 312.873 143.209C313.066 143.841 313.338 144.316 313.688 144.634C314.038 144.947 314.449 145.104 314.92 145.104ZM325.853 147V137.545H329.048C329.79 137.545 330.396 137.679 330.867 137.947C331.341 138.212 331.692 138.57 331.919 139.023C332.147 139.475 332.261 139.98 332.261 140.537C332.261 141.094 332.147 141.6 331.919 142.056C331.695 142.511 331.347 142.874 330.876 143.145C330.405 143.413 329.802 143.547 329.066 143.547H326.777V142.531H329.03C329.537 142.531 329.945 142.444 330.253 142.268C330.561 142.093 330.784 141.856 330.922 141.557C331.064 141.256 331.135 140.915 331.135 140.537C331.135 140.158 331.064 139.82 330.922 139.521C330.784 139.223 330.559 138.989 330.248 138.82C329.937 138.647 329.525 138.561 329.011 138.561H326.998V147H325.853ZM333.588 138.561V137.545H340.679V138.561H337.706V147H336.561V138.561H333.588ZM347.617 139.909C347.561 139.441 347.337 139.078 346.943 138.82C346.549 138.561 346.065 138.432 345.493 138.432C345.074 138.432 344.708 138.5 344.394 138.635C344.083 138.77 343.84 138.957 343.665 139.194C343.493 139.431 343.406 139.7 343.406 140.001C343.406 140.254 343.466 140.471 343.586 140.652C343.71 140.831 343.866 140.98 344.057 141.1C344.248 141.217 344.448 141.314 344.657 141.391C344.867 141.465 345.059 141.525 345.235 141.571L346.195 141.83C346.441 141.894 346.715 141.983 347.016 142.097C347.321 142.211 347.612 142.367 347.889 142.564C348.169 142.757 348.4 143.007 348.581 143.311C348.763 143.616 348.854 143.99 348.854 144.433C348.854 144.944 348.72 145.406 348.452 145.818C348.188 146.231 347.8 146.558 347.289 146.801C346.781 147.045 346.164 147.166 345.438 147.166C344.761 147.166 344.174 147.057 343.679 146.838C343.186 146.62 342.799 146.315 342.515 145.924C342.235 145.533 342.077 145.08 342.04 144.562H343.222C343.253 144.92 343.373 145.215 343.582 145.449C343.794 145.68 344.062 145.852 344.385 145.966C344.711 146.077 345.062 146.132 345.438 146.132C345.875 146.132 346.267 146.061 346.615 145.92C346.963 145.775 347.238 145.575 347.441 145.32C347.644 145.061 347.746 144.759 347.746 144.415C347.746 144.101 347.658 143.845 347.483 143.648C347.307 143.451 347.076 143.291 346.79 143.168C346.504 143.045 346.195 142.937 345.862 142.845L344.699 142.513C343.96 142.3 343.376 141.997 342.945 141.603C342.514 141.209 342.298 140.694 342.298 140.057C342.298 139.527 342.442 139.066 342.728 138.672C343.017 138.275 343.405 137.967 343.891 137.749C344.38 137.527 344.927 137.416 345.53 137.416C346.139 137.416 346.681 137.525 347.155 137.744C347.629 137.959 348.004 138.255 348.281 138.63C348.561 139.006 348.709 139.432 348.725 139.909H347.617Z" fill="black"/>
<path d="M297.037 32.392V30.3636H306.594V32.392H303.031V42H300.599V32.392H297.037ZM307.216 42V33.2727H309.562V34.7955H309.653C309.813 34.2538 310.08 33.8447 310.455 33.5682C310.83 33.2879 311.261 33.1477 311.75 33.1477C311.871 33.1477 312.002 33.1553 312.142 33.1705C312.282 33.1856 312.405 33.2064 312.511 33.233V35.3807C312.398 35.3466 312.241 35.3163 312.04 35.2898C311.839 35.2633 311.655 35.25 311.489 35.25C311.133 35.25 310.814 35.3277 310.534 35.483C310.258 35.6345 310.038 35.8466 309.875 36.1193C309.716 36.392 309.636 36.7064 309.636 37.0625V42H307.216ZM316.001 42.1648C315.445 42.1648 314.948 42.0682 314.513 41.875C314.077 41.678 313.732 41.3883 313.479 41.0057C313.229 40.6193 313.104 40.1383 313.104 39.5625C313.104 39.0777 313.193 38.6705 313.371 38.3409C313.549 38.0114 313.791 37.7462 314.098 37.5455C314.405 37.3447 314.753 37.1932 315.143 37.0909C315.537 36.9886 315.95 36.9167 316.382 36.875C316.89 36.822 317.299 36.7727 317.609 36.7273C317.92 36.678 318.145 36.6061 318.286 36.5114C318.426 36.4167 318.496 36.2765 318.496 36.0909V36.0568C318.496 35.697 318.382 35.4186 318.155 35.2216C317.931 35.0246 317.613 34.9261 317.2 34.9261C316.765 34.9261 316.418 35.0227 316.161 35.2159C315.903 35.4053 315.732 35.6439 315.649 35.9318L313.411 35.75C313.524 35.2197 313.748 34.7614 314.081 34.375C314.414 33.9848 314.844 33.6856 315.371 33.4773C315.901 33.2652 316.515 33.1591 317.212 33.1591C317.696 33.1591 318.161 33.2159 318.604 33.3295C319.051 33.4432 319.446 33.6193 319.791 33.858C320.14 34.0966 320.414 34.4034 320.615 34.7784C320.816 35.1496 320.916 35.5947 320.916 36.1136V42H318.621V40.7898H318.553C318.412 41.0625 318.225 41.303 317.99 41.5114C317.755 41.7159 317.473 41.8769 317.143 41.9943C316.814 42.108 316.433 42.1648 316.001 42.1648ZM316.695 40.4943C317.051 40.4943 317.365 40.4242 317.638 40.2841C317.911 40.1402 318.125 39.947 318.28 39.7045C318.435 39.4621 318.513 39.1875 318.513 38.8807V37.9545C318.437 38.0038 318.333 38.0492 318.2 38.0909C318.071 38.1288 317.926 38.1648 317.763 38.1989C317.6 38.2292 317.437 38.2576 317.274 38.2841C317.111 38.3068 316.964 38.3277 316.831 38.3466C316.547 38.3883 316.299 38.4545 316.087 38.5455C315.875 38.6364 315.71 38.7595 315.592 38.9148C315.475 39.0663 315.416 39.2557 315.416 39.483C315.416 39.8125 315.536 40.0644 315.774 40.2386C316.017 40.4091 316.323 40.4943 316.695 40.4943ZM326.737 42.1705C325.843 42.1705 325.074 41.9811 324.43 41.6023C323.79 41.2197 323.298 40.6894 322.953 40.0114C322.612 39.3333 322.442 38.553 322.442 37.6705C322.442 36.7765 322.614 35.9924 322.959 35.3182C323.307 34.6402 323.802 34.1117 324.442 33.733C325.082 33.3504 325.843 33.1591 326.726 33.1591C327.487 33.1591 328.154 33.2973 328.726 33.5739C329.298 33.8504 329.75 34.2386 330.084 34.7386C330.417 35.2386 330.601 35.8258 330.635 36.5H328.351C328.286 36.0644 328.116 35.714 327.839 35.4489C327.567 35.1799 327.209 35.0455 326.766 35.0455C326.391 35.0455 326.063 35.1477 325.783 35.3523C325.506 35.553 325.29 35.8466 325.135 36.233C324.98 36.6193 324.902 37.0871 324.902 37.6364C324.902 38.1932 324.978 38.6667 325.129 39.0568C325.285 39.447 325.502 39.7443 325.783 39.9489C326.063 40.1534 326.391 40.2557 326.766 40.2557C327.042 40.2557 327.29 40.1989 327.51 40.0852C327.733 39.9716 327.917 39.8068 328.061 39.5909C328.209 39.3712 328.305 39.108 328.351 38.8011H330.635C330.597 39.4678 330.415 40.0549 330.089 40.5625C329.768 41.0663 329.322 41.4602 328.754 41.7443C328.186 42.0284 327.514 42.1705 326.737 42.1705ZM334.378 39.4886L334.384 36.5852H334.736L337.531 33.2727H340.31L336.554 37.6591H335.98L334.378 39.4886ZM332.185 42V30.3636H334.605V42H332.185ZM337.639 42L335.071 38.1989L336.685 36.4886L340.474 42H337.639Z" fill="black"/>
</svg>
