<svg width="48" height="48" viewBox="0 0 48 48" fill="none" xmlns="http://www.w3.org/2000/svg">
<path d="M40 26V44H9V26H7V44C7 45.1046 7.89543 46 9 46H40C41.1046 46 42 45.1046 42 44V26H40Z" fill="#323232"/>
<path d="M19.9986 24H6V18H43V24H28.9929V26H43C44.1046 26 45 25.1046 45 24V18C45 16.8954 44.1046 16 43 16H6C4.89543 16 4 16.8954 4 18V24C4 25.1046 4.89543 26 6 26H19.9986V24Z" fill="#323232"/>
<rect x="22" y="18" width="5" height="26" fill="#E40000"/>
<path d="M22.8191 13.997C16.0706 12.0582 13.5917 9.9634 15.3824 7.71242C17.6121 5.7435 20.091 7.83835 22.8191 13.997Z" fill="#8DE2E0"/>
<path d="M26.1 13.997C32.8485 12.0582 35.3274 9.9634 33.5367 7.71242C31.307 5.7435 28.8281 7.83835 26.1 13.997Z" fill="#8DE2E0"/>
<path fill-rule="evenodd" clip-rule="evenodd" d="M12.1802 12.8642C10.1718 11.1579 9.46675 8.41909 10.4191 5.99564C11.3645 3.59013 13.7416 2.00657 16.388 2.0027C18.3445 1.94497 20.2097 2.81705 21.3216 4.27441C23.3322 6.45338 25.5 12.196 25.5 16.0018C25.5 16.6207 24.9435 17.091 24.3332 16.9878C24.2296 16.9703 24.0401 16.9366 23.7769 16.8872C23.3409 16.8054 22.8558 16.7088 22.3336 16.5979C20.84 16.2807 19.3458 15.9117 17.9459 15.4933C15.3303 14.7116 13.3465 13.854 12.1802 12.8642ZM18.5186 13.577C19.8609 13.9782 21.3046 14.3348 22.7491 14.6415C22.982 14.691 23.2073 14.7375 23.4236 14.781C23.0438 11.5181 21.3161 7.21698 19.7931 5.56094C19.0143 4.54507 17.7583 3.9596 16.4357 4.00217L16.4025 4.00269C14.5638 4.00081 12.9236 5.09092 12.2805 6.72715C11.6426 8.35045 12.1147 10.1842 13.4747 11.3396C14.3697 12.0991 16.1527 12.87 18.5186 13.577Z" fill="#323232"/>
<path fill-rule="evenodd" clip-rule="evenodd" d="M38.5809 5.99564C37.6336 3.58512 35.2484 1.99997 32.5954 2.00269C30.6813 1.94052 28.823 2.79922 27.6475 4.30809C25.6456 6.51201 23.5 12.2154 23.5 16.0018C23.5 16.6207 24.0565 17.091 24.6668 16.9878C24.7704 16.9703 24.9599 16.9366 25.2231 16.8872C25.6591 16.8054 26.1442 16.7088 26.6664 16.5979C28.1599 16.2807 29.6542 15.9117 31.0541 15.4933C33.6697 14.7116 35.6535 13.854 36.8194 12.8645C38.8282 11.1579 39.5332 8.41909 38.5809 5.99564ZM30.4814 13.577C29.1391 13.9782 27.6954 14.3348 26.2509 14.6415C26.0179 14.691 25.7927 14.7375 25.5763 14.781C25.9555 11.5189 27.677 7.22504 29.1482 5.6307L29.2069 5.56094C29.9856 4.54507 31.2417 3.9596 32.5642 4.00217C34.4362 4.00081 36.0764 5.09092 36.7194 6.72715C37.3574 8.35045 36.8853 10.1842 35.5249 11.34C34.6303 12.0991 32.8473 12.87 30.4814 13.577Z" fill="#323232"/>
</svg>
